<?xml version="1.0" standalone="no"?>
<!DOCTYPE svg PUBLIC "-//W3C//DTD SVG 20010904//EN"
 "http://www.w3.org/TR/2001/REC-SVG-20010904/DTD/svg10.dtd">
<svg version="1.0" xmlns="http://www.w3.org/2000/svg"
 width="1280.000000pt" height="1280.000000pt" viewBox="0 0 1280.000000 1280.000000"
 preserveAspectRatio="xMidYMid meet">
<metadata>
Created by potrace 1.15, written by Peter Selinger 2001-2017
</metadata>
<g transform="translate(0.000000,1280.000000) scale(0.100000,-0.100000)"
fill="#ffffff" stroke="none">
<path d="M7364 12515 c-17 -8 -36 -20 -42 -28 -7 -7 -59 -108 -116 -223 -97
-196 -105 -216 -127 -329 -21 -112 -29 -134 -126 -330 -57 -115 -111 -223
-119 -238 -9 -15 -21 -38 -28 -50 -6 -12 -30 -50 -53 -85 -23 -35 -49 -86 -59
-114 -15 -47 -15 -52 1 -87 l16 -37 -56 -110 c-32 -60 -69 -129 -83 -154 -13
-25 -45 -83 -69 -130 -25 -47 -102 -170 -172 -273 -69 -104 -130 -196 -136
-205 -5 -10 -20 -32 -32 -49 -13 -17 -23 -34 -23 -37 0 -4 -33 -73 -73 -154
-40 -81 -76 -156 -79 -167 -14 -45 -59 -159 -67 -169 -5 -6 -18 -27 -28 -46
-50 -90 -148 -260 -178 -310 -18 -30 -45 -77 -61 -105 -15 -27 -35 -63 -44
-80 -9 -16 -32 -57 -50 -90 -18 -33 -83 -159 -145 -280 -61 -121 -120 -236
-132 -255 -11 -19 -35 -62 -53 -95 -18 -33 -45 -80 -58 -105 -14 -25 -34 -61
-45 -80 -23 -44 -233 -385 -258 -422 -11 -15 -19 -30 -19 -32 0 -3 -15 -29
-33 -58 -19 -29 -53 -89 -77 -133 -23 -44 -60 -110 -81 -147 -21 -36 -39 -71
-39 -76 0 -6 -3 -12 -7 -14 -5 -1 -18 -23 -31 -48 -23 -46 -55 -105 -122 -220
-77 -135 -137 -250 -175 -335 -10 -22 -33 -74 -52 -115 -20 -41 -44 -97 -55
-125 -33 -86 -389 -796 -440 -878 -26 -43 -48 -80 -48 -83 0 -2 -17 -32 -38
-66 -21 -35 -53 -93 -71 -130 -18 -37 -37 -70 -41 -73 -5 -3 -40 16 -77 43
-37 27 -86 57 -108 66 -22 10 -47 22 -56 26 -62 32 -367 151 -434 169 -33 9
-138 47 -170 61 -11 5 -43 18 -71 29 -28 11 -73 30 -100 42 -27 12 -65 28 -84
36 -19 8 -98 46 -175 85 -185 92 -210 100 -258 86 -48 -15 -93 -65 -101 -115
-3 -21 0 -65 8 -98 14 -59 19 -78 49 -180 9 -27 25 -84 37 -125 37 -124 102
-286 189 -475 54 -115 68 -152 96 -250 17 -59 37 -126 90 -300 15 -49 38 -112
50 -140 13 -27 30 -66 38 -85 8 -19 31 -70 51 -113 20 -43 36 -80 36 -82 0 -3
12 -30 26 -62 32 -71 28 -61 107 -273 36 -96 73 -200 82 -230 9 -30 21 -63 26
-72 5 -10 9 -25 9 -33 0 -9 11 -50 25 -93 14 -42 38 -120 54 -172 28 -94 55
-163 110 -283 16 -34 38 -84 50 -112 12 -27 26 -59 31 -70 5 -11 51 -108 103
-215 52 -107 105 -220 117 -250 12 -30 26 -64 31 -75 28 -68 39 -100 39 -121
0 -31 63 -94 95 -94 21 0 55 -14 205 -82 49 -23 137 -62 185 -83 64 -27 93
-34 170 -38 54 -3 94 -12 122 -26 72 -36 190 -21 299 37 10 6 37 18 59 27 73
30 90 37 107 46 62 32 304 117 358 127 203 36 258 49 390 92 129 43 189 58
350 91 41 8 105 17 340 50 41 6 120 17 175 25 55 8 132 19 170 25 39 6 90 16
115 23 25 8 65 19 90 26 171 47 208 58 255 77 22 8 49 19 60 23 25 10 104 40
130 50 54 22 234 94 260 105 17 7 48 18 70 25 22 7 69 23 105 35 36 12 83 28
105 35 22 7 55 19 73 26 17 8 49 21 70 30 61 25 74 31 132 57 70 32 164 64
260 88 41 10 84 23 95 28 11 5 36 15 55 21 19 7 49 19 65 25 17 7 52 21 79 31
96 37 158 122 137 186 -16 49 -133 171 -226 235 -44 31 -93 68 -110 83 -48 44
-340 250 -620 438 -337 226 -396 262 -480 297 -38 15 -87 35 -107 43 -21 9
-38 22 -38 30 0 11 43 77 61 92 3 3 39 50 80 105 40 55 81 109 91 119 10 11
18 23 18 27 0 4 6 14 13 21 7 7 33 40 57 72 64 88 78 104 155 181 198 199 366
403 500 605 57 87 125 183 151 212 97 110 176 208 198 242 10 16 53 97 95 180
43 83 122 219 177 301 87 131 248 435 318 600 30 69 33 78 81 195 26 63 63
149 82 190 19 41 38 84 43 95 4 11 19 45 32 75 14 30 32 71 41 90 8 19 31 70
51 113 20 43 36 80 36 82 0 4 8 22 74 167 14 31 26 59 26 62 0 2 15 37 34 78
18 40 44 96 56 123 12 28 36 79 52 115 17 36 39 87 49 113 16 40 110 233 152
312 55 104 101 205 173 375 26 63 77 167 113 230 35 63 75 135 89 160 14 25
33 56 42 70 9 14 24 39 32 55 8 17 55 100 104 185 82 143 325 621 373 733 26
60 29 189 6 244 -8 20 -50 73 -93 117 -89 93 -146 180 -163 251 -14 57 -45
155 -64 200 -7 17 -21 50 -31 75 -21 52 -32 62 -94 91 -98 47 -192 89 -195 89
-2 0 -39 16 -82 36 -43 20 -94 43 -113 51 -19 8 -60 26 -90 40 -30 14 -64 29
-75 33 -11 5 -47 21 -80 35 -236 104 -249 109 -405 155 -41 12 -93 28 -115 35
-22 7 -67 21 -100 30 -104 30 -157 50 -328 129 -43 20 -80 36 -82 36 -2 0 -43
18 -90 40 -47 22 -88 40 -91 40 -3 0 -31 12 -62 26 -31 14 -81 37 -110 50 -29
13 -56 24 -60 24 -36 0 -211 121 -312 215 -78 72 -80 73 -172 106 -92 32 -189
38 -244 14z m179 -192 c33 -12 73 -38 111 -74 83 -75 221 -179 276 -206 60
-29 154 -71 211 -93 49 -20 85 -35 214 -95 44 -20 100 -45 125 -55 25 -10 77
-32 115 -50 81 -37 215 -90 229 -90 5 0 48 -12 95 -26 47 -15 122 -37 166 -50
127 -38 146 -45 213 -75 35 -16 66 -29 68 -29 3 0 39 -16 80 -35 41 -19 76
-35 78 -35 3 0 40 -16 83 -36 80 -37 103 -47 188 -85 77 -34 177 -79 209 -95
16 -8 35 -14 43 -14 20 0 16 -28 -9 -63 -45 -63 -126 -221 -168 -326 -16 -42
-34 -84 -71 -166 -5 -11 -17 -47 -28 -80 -10 -33 -23 -71 -29 -85 -5 -14 -15
-43 -21 -65 -7 -22 -18 -56 -25 -75 -8 -19 -21 -60 -31 -90 -17 -51 -72 -179
-97 -225 -6 -11 -36 -69 -65 -130 -30 -60 -59 -119 -65 -129 -19 -34 -125
-250 -148 -301 -32 -72 -119 -260 -175 -380 -62 -132 -87 -190 -116 -265 -40
-103 -33 -86 -168 -360 -99 -198 -146 -281 -252 -435 -173 -253 -272 -413
-354 -570 -38 -71 -71 -134 -75 -140 -7 -10 -48 -84 -132 -245 -22 -41 -43
-79 -47 -85 -4 -5 -14 -26 -21 -45 -7 -19 -37 -86 -67 -148 -29 -62 -53 -115
-53 -117 0 -3 -16 -29 -35 -59 -19 -30 -35 -58 -35 -61 0 -3 -22 -40 -48 -83
-27 -42 -65 -106 -85 -142 -20 -36 -48 -83 -62 -105 -14 -22 -28 -46 -31 -54
-4 -7 -29 -51 -56 -98 -26 -46 -48 -86 -48 -89 0 -2 -22 -40 -50 -84 -27 -44
-50 -82 -50 -85 0 -3 -11 -22 -24 -43 -12 -20 -38 -65 -57 -100 -19 -35 -38
-71 -44 -80 -20 -34 -60 -97 -67 -107 -4 -5 -66 -93 -138 -195 -71 -102 -134
-190 -140 -197 -5 -6 -17 -24 -27 -40 -10 -15 -58 -82 -108 -147 -107 -141
-196 -265 -211 -292 -32 -57 -52 -99 -82 -174 -6 -14 -22 -50 -36 -81 -36 -79
-50 -140 -42 -175 8 -32 134 -160 181 -184 17 -8 46 -24 65 -36 19 -11 55 -32
80 -46 137 -76 166 -92 180 -99 28 -14 88 -39 94 -39 5 0 99 -40 146 -63 28
-14 589 -388 695 -463 38 -28 71 -57 73 -65 3 -16 -45 -30 -298 -84 -68 -15
-111 -25 -250 -57 -25 -6 -187 -58 -360 -115 -282 -93 -345 -113 -455 -143
-41 -11 -129 -36 -195 -55 -30 -9 -68 -20 -85 -25 -16 -4 -57 -16 -90 -25 -33
-10 -73 -21 -90 -25 -55 -16 -189 -48 -265 -65 -136 -29 -155 -33 -200 -44
-83 -19 -174 -40 -250 -56 -41 -9 -91 -20 -110 -25 -19 -5 -69 -16 -110 -25
-78 -17 -85 -19 -210 -59 -41 -13 -102 -31 -135 -41 -33 -10 -91 -28 -130 -40
-38 -12 -110 -34 -160 -49 -49 -16 -146 -51 -215 -78 -69 -28 -154 -61 -190
-75 -86 -34 -141 -56 -217 -89 -17 -8 -35 -14 -40 -14 -4 0 -66 -23 -138 -50
-71 -28 -133 -50 -137 -50 -7 0 -21 28 -53 110 -32 81 -46 113 -147 320 -55
113 -103 214 -108 225 -4 11 -19 44 -34 73 -14 30 -26 58 -26 62 0 5 -16 43
-35 85 -32 70 -72 180 -105 295 -7 25 -18 63 -25 85 -7 22 -23 74 -35 115 -30
101 -49 159 -65 195 -7 17 -25 64 -40 105 -14 41 -33 93 -42 115 -8 22 -19 49
-23 60 -11 28 -67 157 -107 243 -18 41 -33 76 -33 78 0 3 -12 31 -26 62 -45
99 -51 115 -79 207 -14 50 -30 101 -35 115 -4 14 -20 66 -35 115 -42 142 -73
229 -114 318 -20 45 -43 98 -51 117 -7 19 -17 40 -21 45 -3 6 -21 46 -39 90
-17 44 -36 89 -40 100 -9 20 -24 69 -55 180 -9 33 -21 72 -27 87 -5 14 -8 35
-6 47 3 20 6 19 83 -18 70 -34 128 -60 200 -91 11 -4 36 -15 55 -23 19 -9 58
-25 85 -37 62 -27 230 -89 270 -100 56 -15 175 -60 251 -95 42 -19 79 -35 83
-35 4 0 31 -11 59 -25 29 -14 55 -25 58 -25 3 0 52 -33 108 -74 123 -88 160
-103 209 -83 51 22 93 72 138 167 23 47 58 112 78 145 47 78 49 81 95 161 64
111 476 940 476 958 0 3 16 40 36 83 20 43 44 98 54 124 10 25 27 61 37 80 21
37 51 91 103 184 18 33 42 76 53 95 102 181 147 263 147 266 0 3 11 21 23 42
27 41 60 101 120 212 22 41 103 175 179 297 76 122 138 225 138 229 0 3 8 18
19 32 10 15 38 63 61 107 49 91 71 133 133 242 24 43 85 161 136 263 50 102
102 203 114 225 12 22 40 72 61 110 22 39 47 81 56 95 10 14 28 45 42 70 14
25 40 72 58 105 18 33 36 65 40 70 6 8 30 51 84 150 6 11 13 22 16 25 10 10
39 76 55 124 15 46 47 118 116 261 42 87 67 128 137 234 34 52 62 97 62 102 0
4 3 9 8 11 10 4 92 127 92 138 0 5 4 10 8 12 12 5 83 123 129 213 22 44 51 98
63 120 13 22 44 81 70 130 25 50 62 117 80 150 70 124 120 231 120 257 0 15
-5 38 -11 51 -10 21 2 51 103 253 72 145 118 251 126 289 37 177 48 208 120
355 42 85 80 161 85 168 13 16 30 15 90 -5z m2637 -1439 c21 -73 106 -202 186
-284 108 -108 111 -92 -79 -470 -85 -168 -163 -321 -174 -340 -11 -19 -35 -62
-53 -95 -18 -33 -41 -71 -50 -85 -9 -14 -32 -52 -50 -85 -18 -33 -41 -73 -50
-90 -9 -16 -32 -57 -50 -90 -18 -33 -41 -71 -50 -85 -28 -42 -71 -121 -90
-170 -10 -25 -30 -72 -44 -105 -15 -33 -31 -69 -35 -80 -17 -41 -62 -136 -174
-365 -63 -129 -121 -251 -130 -270 -8 -19 -31 -70 -51 -113 -20 -43 -36 -81
-36 -83 0 -3 -16 -40 -36 -82 -20 -42 -42 -92 -50 -109 -40 -93 -48 -112 -109
-248 -7 -16 -29 -65 -49 -108 -20 -43 -36 -80 -36 -83 0 -2 -16 -37 -35 -78
-19 -41 -35 -77 -35 -80 0 -2 -15 -37 -34 -78 -34 -74 -70 -157 -85 -193 -5
-11 -13 -31 -19 -45 -12 -28 -27 -64 -68 -165 -62 -153 -227 -462 -327 -612
-57 -87 -134 -219 -171 -294 -37 -74 -78 -148 -91 -163 -13 -15 -39 -46 -57
-69 -18 -22 -56 -68 -84 -101 -51 -61 -204 -272 -204 -281 0 -10 -104 -151
-159 -216 -31 -37 -65 -77 -75 -90 -49 -61 -86 -102 -190 -209 -119 -124 -145
-153 -173 -197 -9 -15 -20 -30 -23 -33 -4 -3 -26 -32 -51 -65 -24 -33 -54 -71
-66 -85 -13 -14 -23 -30 -23 -37 0 -6 -4 -13 -8 -15 -5 -1 -28 -30 -53 -63
-24 -33 -51 -68 -60 -78 -10 -10 -32 -41 -50 -68 -19 -27 -40 -51 -47 -54 -16
-6 -139 59 -188 98 -33 28 -44 62 -26 83 5 5 28 56 52 114 53 127 47 118 196
315 132 175 360 493 390 543 10 18 22 32 26 32 4 0 8 5 8 10 0 6 23 41 50 79
28 38 50 71 50 74 0 3 34 63 76 133 42 71 91 156 109 189 17 33 64 115 103
183 40 68 72 125 72 128 0 3 15 28 33 57 18 29 36 59 40 67 4 8 13 24 19 34
44 68 86 140 152 261 6 11 14 22 17 25 7 5 117 231 163 335 29 66 29 65 73
145 17 30 52 96 78 145 26 50 59 110 73 135 14 25 42 77 62 115 61 117 102
189 115 205 7 8 70 101 139 205 69 105 130 195 136 202 5 7 10 14 10 16 0 3
21 35 46 72 55 83 259 495 307 620 19 50 48 119 65 155 16 36 46 99 65 140 19
41 44 98 56 125 13 28 35 77 51 110 15 33 38 83 50 110 13 28 101 208 196 400
153 309 181 374 239 550 36 110 70 209 74 220 5 11 19 45 31 75 12 30 31 75
42 100 11 25 24 54 28 65 30 74 93 195 99 190 5 -2 14 -25 21 -51z m-2019
-7925 c41 -29 88 -65 106 -82 31 -29 34 -57 7 -57 -7 0 -30 -7 -51 -16 -80
-35 -168 -64 -193 -64 -21 0 -133 -36 -188 -61 -101 -46 -326 -139 -336 -139
-6 0 -40 -11 -76 -23 -36 -13 -83 -30 -105 -37 -22 -7 -53 -18 -70 -25 -16 -7
-46 -18 -65 -25 -19 -7 -48 -19 -65 -25 -16 -7 -93 -38 -170 -70 -77 -31 -149
-60 -160 -65 -11 -4 -47 -16 -80 -25 -33 -9 -71 -20 -85 -25 -14 -4 -45 -13
-70 -20 -25 -7 -65 -18 -90 -25 -25 -7 -97 -20 -160 -29 -63 -10 -142 -21
-175 -26 -33 -5 -112 -16 -175 -25 -63 -8 -146 -20 -185 -26 -65 -10 -94 -15
-260 -50 -33 -6 -125 -33 -205 -60 -132 -43 -181 -54 -390 -90 -59 -11 -108
-25 -165 -49 -11 -5 -97 -40 -191 -79 -173 -70 -255 -105 -286 -122 -26 -13
-51 -11 -89 8 -20 10 -72 20 -129 24 -66 5 -107 13 -135 27 -22 12 -66 33 -98
47 -53 23 -68 45 -31 45 8 0 22 4 32 9 9 5 35 16 57 24 54 20 175 67 200 77
11 5 37 16 58 24 86 37 104 44 137 56 19 7 49 18 65 25 35 16 237 83 345 115
41 13 107 33 145 45 39 12 97 30 130 40 33 9 71 21 85 26 14 4 55 15 93 24
147 33 204 46 247 55 25 6 95 21 155 35 61 14 130 29 155 34 25 6 74 17 110
25 36 8 99 22 140 31 41 9 86 20 100 25 14 4 54 16 90 25 36 9 74 21 85 25 18
7 75 23 175 50 55 15 204 59 345 102 122 38 156 49 325 108 36 12 79 26 95 30
17 4 55 16 85 27 49 18 120 36 245 63 22 5 72 16 110 25 39 9 88 20 110 25 93
21 283 70 305 79 45 18 66 12 141 -40z"/>
<path d="M7735 11973 c-93 -6 -124 -32 -215 -178 -93 -151 -107 -177 -141
-264 -16 -42 -34 -85 -38 -96 -8 -18 -79 -196 -101 -250 -4 -11 -13 -33 -19
-49 -7 -16 -36 -102 -66 -192 -58 -173 -78 -213 -156 -307 -33 -40 -49 -68
-49 -87 0 -24 -21 -81 -87 -229 -38 -87 -51 -105 -102 -140 -29 -20 -59 -47
-66 -61 -21 -39 -79 -166 -146 -320 -32 -75 -197 -395 -259 -505 -42 -75 -130
-240 -285 -540 -103 -198 -115 -222 -115 -234 0 -5 -22 -30 -49 -56 -32 -31
-50 -57 -54 -78 -7 -43 -202 -354 -227 -362 -11 -3 -34 -25 -52 -48 -18 -23
-35 -44 -39 -47 -3 -3 -35 -44 -72 -92 l-65 -87 3 -67 c2 -60 6 -70 30 -90
l27 -21 -31 -67 c-17 -37 -31 -69 -31 -72 0 -12 -76 -86 -180 -172 -63 -53
-121 -102 -128 -109 -7 -6 -75 -65 -152 -129 -118 -99 -140 -122 -140 -145 0
-16 8 -34 19 -41 18 -13 18 -15 -15 -58 -48 -62 -64 -99 -53 -127 5 -13 4 -35
-3 -54 -10 -31 -9 -34 21 -59 l32 -27 -26 -31 c-31 -37 -32 -68 -3 -99 18 -20
20 -26 9 -33 -8 -5 -21 -4 -32 3 -27 17 -61 -12 -101 -85 -20 -35 -44 -79 -55
-98 -11 -19 -33 -60 -50 -90 -17 -30 -58 -101 -92 -158 -34 -57 -61 -105 -61
-107 0 -2 -40 -71 -90 -155 -49 -84 -90 -154 -90 -156 0 -3 -15 -28 -33 -57
-35 -56 -51 -92 -92 -207 -15 -41 -33 -88 -39 -105 -7 -16 -19 -46 -26 -65 -7
-19 -19 -51 -27 -70 -8 -19 -18 -44 -23 -55 -26 -65 -97 -198 -106 -202 -7 -2
-56 18 -110 45 -109 55 -140 66 -229 82 -33 6 -78 14 -100 19 -22 4 -119 46
-215 94 -96 47 -222 104 -280 127 -58 23 -118 47 -135 55 -16 7 -59 25 -95 40
-36 15 -98 43 -138 61 -85 39 -102 41 -126 15 -27 -30 -16 -62 30 -93 39 -26
42 -32 49 -85 4 -32 10 -62 14 -68 4 -5 16 -39 25 -75 10 -36 22 -74 26 -85
54 -140 52 -136 99 -238 23 -48 41 -94 41 -102 0 -7 4 -16 9 -19 5 -3 12 -22
15 -41 5 -23 19 -44 41 -62 19 -16 35 -34 35 -42 0 -15 29 -107 41 -133 5 -10
9 -24 9 -31 0 -7 11 -48 25 -92 14 -44 32 -105 41 -135 9 -30 20 -64 24 -75
28 -73 46 -117 66 -163 13 -29 24 -57 24 -62 0 -6 4 -18 10 -28 21 -38 74
-180 90 -237 4 -16 15 -50 24 -75 10 -25 20 -54 23 -65 3 -11 16 -42 28 -70
13 -27 36 -90 50 -140 42 -141 60 -174 95 -182 34 -6 43 -19 70 -101 79 -238
123 -330 162 -346 17 -6 33 -24 42 -46 7 -19 23 -43 34 -53 17 -15 19 -24 11
-44 -5 -13 -9 -26 -9 -28 0 -3 20 -25 45 -50 50 -50 72 -55 132 -29 21 9 47
20 58 24 23 9 101 39 130 50 11 5 45 16 75 26 30 10 59 22 65 26 5 4 15 8 23
8 8 0 28 6 45 14 51 21 193 66 212 66 9 0 38 7 64 15 25 7 64 18 86 24 98 23
158 44 234 81 92 45 94 46 111 25 14 -17 76 -20 112 -6 13 5 52 17 88 26 36
10 76 21 90 25 14 4 54 15 90 25 63 16 143 38 205 55 17 5 57 16 90 25 33 9
68 20 77 26 10 5 27 9 37 9 11 0 30 4 43 9 13 5 50 17 83 26 60 17 132 40 170
55 11 4 45 15 75 24 30 10 64 21 75 26 11 4 40 15 65 25 25 10 54 21 65 25 11
5 52 20 90 35 39 15 85 33 103 41 18 8 39 14 47 14 9 0 23 4 33 9 115 59 198
85 246 76 26 -5 49 0 99 25 36 17 73 40 82 51 10 10 28 19 40 19 32 0 85 52
85 84 0 63 -14 74 -195 157 -27 12 -68 34 -90 48 -22 14 -74 43 -115 64 -62
32 -184 114 -225 150 -5 5 -42 30 -81 55 -40 26 -115 77 -168 115 -53 37 -127
83 -166 103 -38 19 -72 39 -74 43 -5 7 122 190 163 236 25 28 46 69 77 155 15
41 57 122 92 180 62 101 158 240 172 250 14 10 230 365 292 480 23 42 38 69
93 165 13 22 37 76 55 120 17 44 36 88 41 97 5 10 9 22 9 27 0 5 16 45 36 88
20 43 44 98 54 123 10 25 30 71 44 102 14 31 26 59 26 62 0 19 63 138 91 172
19 22 48 57 64 79 17 21 49 61 72 90 22 28 62 92 88 141 26 49 63 118 83 154
19 36 57 106 82 155 26 50 64 122 85 160 21 39 59 111 85 160 87 166 131 247
156 286 13 21 24 41 24 44 0 14 210 314 260 371 73 84 450 673 450 703 0 5 3
11 8 13 10 4 112 216 112 233 0 5 58 135 70 157 6 10 10 22 10 28 0 5 12 35
26 67 15 32 38 83 51 113 14 30 35 78 48 105 13 28 34 75 48 105 28 62 154
326 167 351 5 9 33 63 63 120 30 57 63 120 74 139 11 19 35 62 53 95 18 33 41
74 51 90 10 17 24 41 32 55 7 14 28 52 47 85 18 33 38 69 44 80 6 11 13 22 16
25 17 17 40 72 40 95 0 30 72 105 101 105 19 0 49 31 49 50 0 26 -51 79 -122
126 -84 56 -93 66 -89 115 4 55 -32 89 -162 152 -133 65 -161 77 -249 111 -37
13 -190 85 -340 160 -150 74 -295 142 -323 151 -27 9 -58 21 -67 26 -10 5 -23
9 -30 9 -20 0 -158 54 -158 62 0 14 -1 14 169 -36 29 -9 62 -16 72 -16 10 0
21 -4 24 -10 3 -5 15 -10 27 -10 11 0 41 -7 67 -17 54 -19 95 -12 111 18 19
35 -10 64 -102 99 -46 18 -96 38 -113 45 -16 7 -158 65 -315 130 -157 64 -297
123 -312 131 -14 8 -37 13 -50 12 -12 -1 -45 -3 -73 -5z m-24 -333 c22 -12 42
-27 46 -35 6 -17 -23 -97 -40 -107 -13 -8 -97 75 -97 97 0 8 4 15 8 15 5 0 14
11 20 25 14 30 13 30 63 5z m250 -150 l24 -19 -42 -1 c-36 0 -43 3 -43 20 0
26 30 26 61 0z m-329 -67 c47 -45 31 -125 -22 -108 -17 6 -20 15 -20 71 0 35
3 64 7 64 4 0 20 -12 35 -27z m-209 -359 c-38 -78 -43 -43 -6 44 24 56 28 63
31 40 2 -15 -9 -52 -25 -84z m397 18 c0 -9 -5 -24 -10 -32 -7 -11 -10 -5 -10
23 0 23 4 36 10 32 6 -3 10 -14 10 -23z m-223 -8 c-3 -3 -12 -4 -19 -1 -8 3
-5 6 6 6 11 1 17 -2 13 -5z m1364 -13 c21 -8 44 -27 55 -45 9 -17 22 -34 28
-38 8 -5 8 -8 0 -8 -21 0 -134 81 -134 97 0 8 3 13 8 11 4 -2 23 -9 43 -17z
m-374 -33 c-3 -8 -6 -5 -6 6 -1 11 2 17 5 13 3 -3 4 -12 1 -19z m214 -58 c36
-20 19 -30 -48 -30 l-68 1 35 19 c41 22 54 24 81 10z m460 -9 c15 -13 20 -23
14 -28 -6 -5 -22 3 -39 19 -33 33 -13 40 25 9z m-1901 -72 c0 -10 -4 -19 -10
-19 -5 0 -10 12 -10 26 0 14 4 23 10 19 6 -3 10 -15 10 -26z m675 -164 c-14
-19 -33 -35 -42 -35 -17 0 -12 10 36 63 35 38 40 15 6 -28z m785 25 c0 -5 -5
-10 -11 -10 -5 0 -7 5 -4 10 3 6 8 10 11 10 2 0 4 -4 4 -10z m344 -52 c-21
-29 -51 -70 -67 -91 l-29 -37 -20 25 c-23 30 -18 73 13 101 27 24 89 52 117
53 23 1 22 -1 -14 -51z m-1804 -133 c0 -3 -28 -25 -62 -50 -73 -54 -87 -72
-88 -105 0 -20 -7 -27 -35 -36 -43 -14 -45 -3 -11 64 13 26 26 59 30 74 4 20
16 30 48 41 42 14 118 22 118 12z m350 -25 c0 -23 -4 -30 -20 -30 -24 0 -25 8
-4 38 20 29 24 28 24 -8z m204 18 c-16 -28 -38 -48 -53 -48 -10 0 -12 3 -5 8
6 4 16 17 23 30 6 12 19 22 27 22 9 0 12 -5 8 -12z m1106 -46 c0 -4 -13 -23
-30 -42 -22 -27 -29 -31 -30 -17 0 24 29 67 46 67 8 0 14 -4 14 -8z m-755 -61
c3 -5 1 -12 -5 -16 -5 -3 -10 1 -10 9 0 18 6 21 15 7z m864 -108 c0 -16 -4
-36 -7 -46 -7 -15 -10 -16 -26 -4 -19 14 -19 15 0 45 23 39 34 41 33 5z
m-1993 -74 c7 -13 -62 -87 -72 -76 -3 3 2 28 12 56 15 42 20 48 35 40 10 -5
21 -14 25 -20z m177 -36 c-7 -2 -19 -2 -25 0 -7 3 -2 5 12 5 14 0 19 -2 13 -5z
m397 -43 c0 -5 -8 -10 -17 -10 -15 0 -16 2 -3 10 19 12 20 12 20 0z m1330
-127 c-24 -48 -53 -101 -65 -118 -12 -16 -25 -37 -29 -45 -7 -16 -11 -23 -70
-118 -43 -70 -61 -78 -23 -10 13 23 39 70 57 103 35 64 79 128 92 133 4 2 8
13 8 24 0 18 27 76 41 88 3 3 9 14 12 24 4 10 10 16 13 13 4 -3 -13 -46 -36
-94z m-1426 12 c-6 -16 -24 -21 -24 -7 0 11 11 22 21 22 5 0 6 -7 3 -15z
m-584 -89 c0 -20 -16 -36 -36 -36 -28 0 -30 8 -6 26 16 13 42 19 42 10z m1693
-78 c-18 -18 -35 -29 -39 -26 -8 9 41 58 58 58 7 0 -2 -14 -19 -32z m-1573
-27 c0 -5 -7 -14 -15 -21 -12 -10 -15 -10 -15 2 0 8 3 18 7 21 9 10 23 9 23
-2z m-200 -34 c0 -7 -20 -33 -45 -57 -49 -48 -56 -40 -24 27 16 33 26 43 45
43 13 0 24 -6 24 -13z m1175 -67 c-10 -11 -20 -18 -23 -15 -3 3 3 14 13 25 10
11 20 18 23 15 3 -3 -3 -14 -13 -25z m-665 -437 c0 -25 -30 -53 -58 -53 -26 0
-72 -35 -72 -54 0 -6 -9 -22 -19 -35 l-18 -24 -22 22 c-27 27 -24 32 37 67 26
15 64 42 85 61 40 36 67 43 67 16z m984 -90 c-41 -72 -38 -70 -101 -65 -32 2
-60 6 -62 8 -7 7 26 31 94 66 93 50 102 49 69 -9z m-1774 -79 c-17 -38 -35
-78 -40 -89 -35 -86 -72 -154 -93 -174 l-25 -23 -7 47 c-7 46 -7 47 91 193
102 151 129 168 74 46z m330 56 c0 -28 -22 -51 -36 -37 -6 5 23 67 31 67 3 0
5 -14 5 -30z m968 13 c-2 -5 -10 -21 -18 -38 -22 -46 -50 -81 -50 -62 0 19 52
106 63 107 5 0 7 -3 5 -7z m365 -180 c-7 -3 -13 -10 -13 -17 0 -34 -90 -176
-112 -176 -18 0 -6 58 22 107 28 49 97 110 109 96 3 -3 0 -8 -6 -10z m-1137
-47 c18 -14 18 -15 -10 -45 -17 -17 -33 -31 -38 -31 -4 0 -8 20 -8 45 0 37 3
45 18 45 10 0 27 -6 38 -14z m-785 -189 c-10 -9 -11 -8 -5 6 3 10 9 15 12 12
3 -3 0 -11 -7 -18z m54 -121 c18 -13 18 -14 -2 -52 -19 -37 -22 -39 -69 -39
-68 0 -70 23 -7 69 55 41 53 40 78 22z m1595 -90 c0 -13 -4 -26 -8 -28 -5 -1
-28 -30 -53 -62 -36 -49 -45 -56 -47 -39 -2 12 -10 27 -18 33 -18 16 -18 32 3
69 16 27 40 38 116 50 4 0 7 -10 7 -23z m-1677 -114 l38 -7 -97 -95 c-54 -52
-94 -86 -90 -75 4 11 17 49 28 85 31 99 39 112 63 105 11 -4 37 -10 58 -13z
m1137 3 c0 -8 -9 -19 -19 -25 -11 -5 -26 -16 -33 -22 -8 -7 -24 -22 -36 -32
-23 -20 -23 -20 -16 0 20 52 55 94 79 94 15 0 25 -6 25 -15z m-226 -77 c-53
-75 -54 -75 -32 -16 10 29 21 61 25 70 6 20 37 29 41 12 2 -7 -14 -36 -34 -66z
m585 -53 c-38 -52 -79 -93 -79 -77 0 6 5 14 10 17 6 3 10 15 10 25 0 22 55 80
76 80 11 0 6 -13 -17 -45z m-1958 -221 c-11 -15 -21 -21 -21 -14 0 15 31 52
38 46 2 -3 -5 -17 -17 -32z m1932 -23 c-8 -6 -81 -94 -94 -114 -4 -5 -12 -6
-18 -3 -14 9 0 30 66 100 30 32 49 46 51 37 2 -7 0 -16 -5 -20z m-465 -34
c-55 -55 -95 -83 -187 -129 -84 -43 -108 -48 -90 -20 10 16 120 92 134 92 4 0
80 44 155 90 34 20 29 7 -12 -33z m-812 -185 c-14 -20 -36 -48 -48 -62 -13
-14 -46 -52 -73 -85 -28 -32 -59 -69 -69 -82 -20 -23 -36 -22 -36 2 0 8 21 39
48 68 26 29 81 90 122 136 73 82 107 95 56 23z m-976 -28 c0 -13 -45 -71 -79
-101 -41 -37 -73 -46 -50 -14 63 86 96 121 111 121 10 0 18 -3 18 -6z m634
-555 c-5 -9 -34 -13 -34 -5 0 2 3 12 6 20 5 13 9 14 20 5 8 -6 11 -15 8 -20z
m-244 -66 c0 -17 -36 -43 -58 -43 -25 0 -25 0 8 25 34 25 50 31 50 18z m1287
-78 c-4 -8 -14 -15 -23 -15 -16 0 -16 2 1 20 20 22 31 20 22 -5z m-420 -55
c13 0 13 -3 3 -15 -15 -19 -34 -19 -49 -2 -13 16 -3 30 17 22 7 -3 21 -5 29
-5z m-967 -92 c0 -21 -62 -68 -91 -68 -16 0 -29 2 -29 5 0 12 40 79 51 86 15
9 69 -9 69 -23z m655 -167 c-3 -12 -10 -21 -15 -21 -5 0 -4 11 2 25 13 29 23
26 13 -4z m-295 -121 c0 -5 -4 -10 -10 -10 -5 0 -10 5 -10 10 0 6 5 10 10 10
6 0 10 -4 10 -10z m734 -39 c-9 -18 -23 -35 -31 -38 -27 -10 -24 5 9 40 18 19
34 34 36 33 1 -2 -5 -17 -14 -35z m-434 -101 c-15 -28 -24 -19 -16 16 5 19 10
24 17 17 8 -8 7 -18 -1 -33z m336 -55 c-26 -20 -57 -20 -50 0 4 9 19 15 38 15
29 -1 30 -1 12 -15z m-1743 -66 c-4 -64 -20 -171 -22 -146 0 15 -12 39 -27 53
-14 14 -24 29 -22 32 2 4 14 26 28 49 27 46 46 51 43 12z m467 -10 c-6 -10
-17 -19 -25 -19 -21 0 -19 38 3 43 26 6 33 -2 22 -24z m933 -106 c-23 -59 -55
-113 -68 -113 -8 0 -15 5 -15 10 0 10 43 80 65 107 15 18 25 16 18 -4z m-194
-77 c-19 -33 -49 -49 -49 -26 0 11 61 72 67 66 2 -2 -6 -20 -18 -40z m-1252
-38 c-3 -8 -6 -5 -6 6 -1 11 2 17 5 13 3 -3 4 -12 1 -19z m358 -88 c3 -5 1
-10 -4 -10 -6 0 -11 5 -11 10 0 6 2 10 4 10 3 0 8 -4 11 -10z m345 -105 c0
-11 -46 -101 -55 -107 -19 -14 -25 -8 -25 23 0 44 29 89 57 89 13 0 23 -2 23
-5z m570 -57 c-1 -32 -28 -49 -72 -46 l-43 3 40 27 c43 29 75 36 75 16z
m-1785 -120 c-10 -24 -23 -56 -30 -73 -29 -67 -56 -121 -74 -144 -17 -23 -18
-23 -23 -4 -7 25 11 63 82 180 58 96 75 111 45 41z m730 -25 c-10 -21 -20 -33
-22 -26 -5 14 26 77 34 69 3 -3 -2 -22 -12 -43z m-138 -15 c-3 -8 -6 -5 -6 6
-1 11 2 17 5 13 3 -3 4 -12 1 -19z m100 -60 c-3 -8 -6 -5 -6 6 -1 11 2 17 5
13 3 -3 4 -12 1 -19z m376 -49 c-39 -72 -78 -109 -114 -109 -54 0 -48 27 22
95 46 46 72 63 92 64 l28 1 -28 -51z m-883 22 c0 -19 -31 -81 -40 -81 -15 0
-12 27 5 60 15 28 35 40 35 21z m348 -20 c23 -14 -20 -85 -63 -105 -20 -10
-39 -16 -41 -13 -7 7 7 37 17 37 5 0 9 5 9 11 0 12 50 79 59 79 3 0 12 -4 19
-9z m-418 -161 c0 -9 -14 -42 -55 -135 -13 -27 -39 -93 -59 -145 -56 -147 -98
-187 -69 -65 7 33 21 89 29 125 15 67 43 130 56 130 5 0 8 5 8 10 0 24 51 90
70 90 11 0 20 -4 20 -10z m1350 -50 c-20 -13 -53 -13 -45 0 3 6 18 10 33 10
21 0 24 -2 12 -10z m-923 -102 c-3 -7 -5 -2 -5 12 0 14 2 19 5 13 2 -7 2 -19
0 -25z m961 -10 c-6 -18 -116 -49 -158 -46 l-35 4 30 8 c17 4 37 10 45 14 25
9 94 29 108 31 8 0 12 -5 10 -11z m-121 -200 c-24 -57 -33 -66 -84 -82 -30 -9
-77 -16 -106 -16 -44 0 -49 2 -37 14 8 8 51 28 95 46 44 17 89 35 100 40 29
12 38 12 32 -2z m-3141 -203 c22 -9 48 -20 59 -24 11 -5 36 -15 55 -22 19 -7
49 -21 65 -32 l30 -19 -30 6 c-113 20 -138 28 -189 62 -31 20 -56 38 -56 40 0
8 30 3 66 -11z m3253 -85 c-45 -83 -65 -94 -55 -28 10 62 44 108 79 108 16 0
12 -12 -24 -80z m-295 -27 c-25 -43 -50 -82 -55 -87 -10 -11 -13 85 -3 120 6
21 43 41 81 43 21 1 20 -4 -23 -76z m-1367 -45 c-3 -8 -6 -5 -6 6 -1 11 2 17
5 13 3 -3 4 -12 1 -19z m403 -70 c0 -17 -101 -118 -117 -118 -23 0 -14 22 33
76 42 50 84 71 84 42z m780 -50 c0 -35 -21 -136 -34 -162 -8 -17 -28 -60 -44
-96 -63 -138 -91 -192 -159 -305 -19 -33 -27 -8 -11 32 9 21 28 70 43 108 15
39 31 79 35 90 5 11 22 56 40 100 17 44 35 89 40 100 5 11 17 43 26 70 10 28
23 55 29 62 13 16 35 16 35 1z m-2045 -68 c8 -13 -15 -13 -35 0 -12 8 -11 10
7 10 12 0 25 -4 28 -10z m865 -85 l0 -66 -29 16 c-17 8 -33 19 -36 25 -6 9 49
90 61 90 2 0 4 -29 4 -65z m801 -28 c-13 -13 -15 1 -4 30 7 17 8 17 11 -1 2
-10 -1 -23 -7 -29z m803 -56 c15 -24 -29 -115 -105 -217 -44 -60 -95 -128
-112 -151 -28 -39 -57 -56 -57 -34 0 20 223 388 244 403 15 10 24 10 30 -1z
m-2589 -19 c42 -9 36 -16 -22 -26 -18 -3 -47 -9 -63 -12 -35 -7 -60 9 -60 38
0 19 5 20 53 15 28 -4 70 -10 92 -15z m703 -69 c28 -21 47 -15 91 29 l42 43
66 -37 c37 -19 69 -40 71 -46 3 -11 -240 -21 -300 -13 -33 4 -37 28 -10 69
l17 26 3 -29 c2 -16 11 -35 20 -42z m956 -99 c20 -19 20 -30 -2 -76 l-18 -38
-18 41 c-14 32 -16 46 -7 65 12 28 24 30 45 8z m-957 -20 c-3 -3 -12 -4 -19
-1 -8 3 -5 6 6 6 11 1 17 -2 13 -5z m-458 -17 c8 -11 6 -18 -9 -32 -20 -18
-20 -17 -20 13 0 34 10 41 29 19z m214 -49 c7 -22 -4 -38 -28 -38 -18 0 -21 4
-17 25 5 26 37 35 45 13z m174 -45 c5 -15 -53 -80 -63 -71 -12 13 28 89 44 86
9 -2 17 -8 19 -15z m-660 -85 c13 -12 23 -25 23 -30 0 -12 -34 -10 -48 4 -13
13 -17 48 -5 48 4 0 17 -10 30 -22z m1560 -41 c28 -25 19 -47 -21 -47 -46 0
-58 16 -38 50 17 30 23 29 59 -3z m-632 -16 c-3 -6 -14 -11 -23 -11 -15 1 -15
2 2 15 21 16 32 13 21 -4z m-45 -103 c0 -25 -29 -68 -46 -68 -19 0 -18 25 3
71 13 30 20 36 30 28 7 -7 13 -20 13 -31z m1094 -46 c-28 -49 -133 -161 -120
-127 8 20 16 41 44 125 8 25 21 53 30 62 13 16 17 16 43 2 l29 -15 -26 -47z
m-831 -16 c-18 -30 -64 -78 -70 -72 -3 3 2 24 13 46 14 29 25 40 42 40 17 0
21 -4 15 -14z m-976 -42 c-3 -3 -12 -4 -19 -1 -8 3 -5 6 6 6 11 1 17 -2 13 -5z
m1308 -100 c-9 -19 -19 -34 -24 -34 -19 0 -18 15 7 56 31 51 44 34 17 -22z
m795 42 c0 -8 -13 -24 -30 -36 -35 -25 -39 -14 -9 24 23 29 39 34 39 12z
m-441 -54 c-6 -10 -20 -24 -31 -31 -15 -9 -20 -8 -24 4 -8 20 11 43 39 47 29
5 30 3 16 -20z m-1499 -16 c0 -15 -36 -46 -53 -46 -5 0 1 14 13 30 23 32 40
39 40 16z m2050 -28 c0 -12 10 -32 22 -45 l21 -23 -23 -25 c-29 -31 -38 -31
-42 -2 -2 13 -15 28 -33 37 l-30 14 35 37 c37 40 50 41 50 7z m-985 -117 c5
-9 -39 -68 -128 -175 -18 -21 -40 -48 -49 -60 -10 -11 -18 -16 -18 -11 0 6 4
15 9 20 5 6 23 37 41 70 63 113 100 165 120 165 10 0 21 -4 25 -9z m-1168 -68
c4 -10 -2 -23 -16 -35 -30 -23 -38 -23 -52 4 -10 18 -8 24 7 35 25 18 53 16
61 -4z m461 -172 c-14 -23 -38 -36 -38 -21 0 13 40 53 47 47 2 -3 -1 -14 -9
-26z m-248 -89 c0 -12 -23 -32 -37 -32 -17 0 -17 27 0 33 19 8 37 8 37 -1z
m-90 -207 c0 -15 -3 -24 -34 -82 -9 -17 -16 -42 -17 -55 0 -12 -9 9 -20 47
-21 79 -20 92 13 98 45 9 58 7 58 -8z m370 -298 c0 -2 -10 -12 -21 -23 -22
-19 -22 -19 -10 4 10 18 31 31 31 19z m-383 -109 c35 -77 40 -98 20 -98 -8 0
-19 19 -26 43 -7 23 -15 50 -17 60 -8 25 11 21 23 -5z m210 -24 c-3 -3 -12 -4
-19 -1 -8 3 -5 6 6 6 11 1 17 -2 13 -5z m573 -54 c-25 -4 -58 -12 -73 -18 -28
-12 -95 -17 -85 -7 13 13 106 33 153 32 l50 0 -45 -7z"/>
</g>
</svg>
