<?xml version="1.0" standalone="no"?>
<!DOCTYPE svg PUBLIC "-//W3C//DTD SVG 20010904//EN"
 "http://www.w3.org/TR/2001/REC-SVG-20010904/DTD/svg10.dtd">
<svg version="1.0" xmlns="http://www.w3.org/2000/svg"
 width="1280.000000pt" height="1280.000000pt" viewBox="0 0 1280.000000 1280.000000"
 preserveAspectRatio="xMidYMid meet">
<metadata>
Created by potrace 1.15, written by Peter Selinger 2001-2017
</metadata>
<g transform="translate(0.000000,1280.000000) scale(0.100000,-0.100000)"
fill="#000000" stroke="none">
<path d="M6395 11108 c-11 -11 -19 -24 -17 -29 1 -5 -5 -9 -14 -9 -11 0 -14
-5 -10 -17 11 -27 -15 -33 -57 -11 -50 25 -100 18 -123 -17 -9 -14 -38 -41
-65 -61 -27 -20 -49 -41 -49 -46 0 -6 -17 -27 -37 -47 -21 -20 -50 -52 -64
-72 -15 -19 -52 -62 -83 -94 -30 -33 -56 -64 -56 -68 0 -5 -19 -28 -42 -52
-24 -24 -59 -63 -78 -86 -19 -23 -57 -67 -85 -99 -27 -31 -57 -67 -65 -80 -8
-12 -22 -29 -30 -38 -31 -32 -120 -147 -120 -155 0 -5 -20 -33 -45 -61 -25
-29 -45 -57 -45 -62 0 -5 -25 -40 -55 -78 -30 -38 -55 -73 -55 -77 0 -5 -15
-26 -32 -46 -35 -40 -58 -77 -58 -92 0 -4 -16 -26 -35 -47 -19 -21 -35 -41
-35 -46 0 -6 -82 -137 -133 -211 -7 -10 -12 -23 -12 -30 0 -13 -1 -14 -38 -62
-34 -43 -77 -121 -77 -138 0 -8 -7 -17 -15 -21 -8 -3 -20 -17 -25 -32 -6 -14
-23 -44 -39 -68 -27 -39 -71 -111 -112 -182 -12 -22 -14 -35 -7 -42 12 -12 -9
-39 -33 -44 -14 -3 -25 -18 -54 -75 -9 -17 -25 -39 -36 -49 -10 -9 -19 -25
-19 -35 0 -10 -6 -22 -14 -26 -25 -14 -123 -170 -130 -206 -5 -26 -11 -35 -21
-30 -8 3 -15 0 -15 -6 0 -7 -13 -26 -30 -44 -16 -18 -30 -37 -30 -43 0 -6 -9
-19 -19 -28 -11 -10 -27 -33 -36 -52 -9 -19 -20 -34 -25 -34 -6 0 -10 -8 -10
-18 0 -9 -15 -31 -32 -47 -18 -17 -42 -44 -53 -59 -11 -16 -35 -47 -53 -70
-17 -22 -39 -55 -46 -72 -8 -17 -33 -49 -55 -71 -23 -22 -41 -44 -41 -48 0 -4
-16 -25 -35 -47 -27 -29 -34 -45 -29 -60 5 -16 3 -20 -9 -15 -22 8 -40 -17
-31 -45 6 -20 5 -21 -8 -10 -13 10 -20 7 -45 -18 -17 -17 -36 -43 -44 -58 -8
-15 -18 -32 -24 -39 -5 -7 -16 -19 -23 -27 -7 -9 -11 -20 -10 -26 2 -5 -8 -16
-22 -23 -14 -7 -32 -26 -40 -43 -16 -32 -30 -51 -68 -89 -15 -15 -19 -26 -12
-30 15 -10 -7 -35 -31 -35 -11 0 -30 -18 -46 -42 -15 -23 -40 -54 -55 -69 -32
-32 -35 -54 -10 -68 15 -9 14 -11 -8 -19 -22 -9 -23 -11 -7 -17 9 -4 17 -12
17 -18 0 -6 7 -19 16 -29 16 -17 18 -17 53 2 42 22 173 52 194 44 8 -3 18 0
22 6 6 9 9 9 15 -1 9 -14 159 -26 187 -14 10 5 24 7 31 6 10 -2 11 2 2 18 -9
19 -8 21 13 21 13 0 32 -9 41 -19 19 -21 46 -18 46 5 0 10 14 13 60 10 33 -2
60 0 60 3 0 9 84 33 106 30 11 -1 26 1 34 4 31 12 88 25 158 38 l74 13 28 -31
c21 -22 26 -33 18 -41 -8 -8 -8 -16 2 -27 11 -13 10 -14 -4 -9 -9 3 -16 1 -16
-4 0 -42 75 -1 106 57 14 27 27 37 49 39 25 3 80 33 95 52 3 4 23 10 44 13 22
4 42 10 45 15 3 4 15 9 26 9 53 3 149 16 235 32 93 17 95 18 92 44 l-3 26 68
-5 c102 -8 101 -8 205 0 90 7 97 6 107 -12 6 -11 8 -22 5 -25 -3 -2 -7 -24 -9
-48 -6 -53 -18 -63 -110 -90 -38 -12 -74 -25 -79 -30 -6 -5 -18 -9 -27 -9 -29
0 -31 -17 -4 -44 14 -14 25 -30 25 -36 0 -5 4 -10 8 -10 5 0 21 -10 35 -23 28
-24 35 -47 15 -47 -6 0 -1 -11 12 -25 24 -25 80 -35 80 -14 0 5 4 8 9 5 13 -9
6 -93 -14 -155 -9 -30 -14 -67 -11 -82 3 -18 0 -29 -9 -32 -9 -4 -12 -17 -8
-46 3 -25 2 -41 -5 -41 -11 0 -18 -23 -28 -95 -3 -27 -8 -52 -10 -54 -2 -2 3
-12 12 -22 9 -10 14 -25 10 -34 -3 -8 -4 -17 -3 -19 1 -2 -6 -13 -17 -25 -13
-15 -16 -24 -8 -33 11 -14 7 -91 -5 -111 -4 -7 -9 -16 -10 -22 -1 -5 -6 -27
-11 -47 -8 -29 -6 -40 4 -49 20 -16 18 -103 -2 -120 -9 -8 -14 -22 -11 -37 3
-14 -1 -39 -8 -56 -13 -32 -21 -77 -31 -181 -3 -33 -8 -64 -11 -68 -3 -4 1
-15 8 -23 18 -22 20 -116 2 -129 -15 -11 -26 -94 -14 -113 7 -11 61 -36 72
-34 4 1 5 -7 2 -17 -3 -14 -13 -18 -36 -17 -29 1 -32 -1 -29 -27 2 -17 -1 -26
-7 -23 -5 4 -13 1 -17 -5 -5 -9 3 -10 30 -5 44 8 46 -2 6 -37 -16 -15 -30 -35
-31 -45 0 -9 -2 -33 -3 -52 -1 -19 -5 -41 -10 -49 -5 -7 -10 -59 -11 -114 -2
-76 1 -106 12 -123 17 -26 10 -46 -12 -37 -22 8 -21 -85 1 -101 15 -12 10 -46
-7 -46 -5 0 -9 -9 -9 -20 0 -11 4 -20 8 -20 5 0 5 -21 1 -47 -15 -94 -12 -111
21 -118 21 -5 30 -13 30 -26 0 -10 -4 -19 -9 -19 -5 0 -11 -25 -13 -55 -2 -46
0 -55 13 -55 18 0 33 -26 23 -41 -8 -13 -44 -11 -44 2 0 8 -5 8 -15 -1 -18
-15 -11 -30 15 -30 23 0 35 -29 14 -37 -8 -3 -20 -1 -27 6 -15 15 -27 14 -27
-4 0 -8 5 -15 10 -15 17 0 11 -48 -7 -59 -15 -8 -16 -13 -6 -29 8 -13 9 -32 3
-58 -10 -43 -6 -54 18 -54 15 -1 14 -3 -3 -15 -13 -11 -20 -29 -21 -59 -1 -24
-4 -48 -7 -53 -3 -5 -4 -25 -2 -44 2 -19 6 -53 9 -76 3 -27 1 -43 -6 -43 -5 0
-8 -10 -5 -22 3 -13 2 -44 -2 -69 -4 -26 -4 -56 0 -67 5 -12 5 -23 1 -26 -12
-7 2 -139 16 -144 17 -5 15 -41 -3 -48 -16 -7 -21 -34 -6 -34 6 0 9 -9 8 -20
-1 -11 -5 -20 -9 -20 -12 0 -10 -138 3 -162 6 -11 12 -45 14 -76 8 -131 15
-155 58 -195 44 -42 97 -68 124 -61 13 4 23 -4 34 -30 10 -20 13 -40 8 -48
-13 -20 -10 -38 6 -38 8 0 15 -4 15 -10 0 -5 -7 -10 -15 -10 -9 0 -15 -9 -15
-25 0 -32 -30 -45 -114 -47 -33 -2 -64 -7 -68 -12 -4 -6 -15 0 -26 14 -39 48
-70 -7 -40 -71 13 -27 81 -64 140 -76 18 -3 39 -15 46 -25 7 -10 18 -16 23
-12 5 3 23 -2 41 -10 17 -9 41 -16 52 -16 12 0 35 -7 51 -16 17 -9 62 -22 101
-29 99 -20 98 -19 104 -26 4 -5 53 -20 200 -65 25 -7 88 -22 140 -34 52 -11
103 -25 112 -30 31 -18 97 -28 101 -17 3 9 32 11 82 5 8 -1 15 -7 15 -15 0
-13 22 -17 68 -13 16 1 25 -5 29 -19 6 -23 28 -28 37 -8 3 6 3 2 0 -10 -4 -17
-1 -20 14 -16 26 6 88 -12 84 -26 -1 -6 2 -11 8 -11 5 0 10 7 10 15 0 8 4 15
9 15 5 0 17 3 27 7 14 5 16 2 11 -18 -6 -22 -2 -27 26 -36 18 -6 43 -11 57
-10 14 2 31 -4 39 -11 10 -10 30 -13 65 -9 40 3 56 0 78 -16 24 -18 30 -18 58
-7 17 7 39 13 48 14 30 2 93 38 109 62 8 13 21 24 28 24 17 0 25 23 15 40 -11
17 -2 33 12 24 8 -5 9 -1 4 11 -6 16 -4 16 11 4 10 -8 21 -18 25 -24 5 -6 8
-6 8 1 0 6 -3 14 -7 18 -4 3 -8 14 -9 22 -2 11 3 14 16 11 24 -6 32 22 13 44
-7 9 -11 24 -7 33 6 16 24 23 24 8 0 -11 69 -7 102 6 15 6 32 21 38 32 l11 21
20 -22 c15 -18 19 -19 19 -6 0 10 -5 17 -11 17 -6 0 -9 7 -6 14 4 10 1 13 -7
10 -7 -3 -19 2 -26 11 -11 13 -9 15 13 15 14 0 29 -5 32 -10 4 -7 12 -7 18 -2
17 12 59 13 74 0 7 -6 31 -8 52 -5 22 2 44 0 50 -6 7 -7 15 -6 26 3 12 10 21
10 41 1 16 -7 31 -8 38 -2 6 5 25 12 43 15 25 6 36 3 53 -14 13 -13 28 -19 39
-15 11 3 21 0 24 -9 5 -12 11 -12 43 4 32 17 38 17 51 4 8 -8 23 -19 34 -24
15 -8 19 -7 19 4 0 39 40 27 43 -13 1 -17 8 -21 34 -21 45 0 50 16 14 49 -17
16 -31 36 -31 44 0 17 -21 27 -57 27 -14 0 -37 6 -51 14 -42 22 -104 44 -142
52 -19 3 -40 10 -46 16 -7 5 -16 8 -20 7 -5 -1 -18 1 -29 5 -11 5 -37 14 -58
22 -20 8 -70 16 -109 20 -40 3 -77 9 -83 14 -5 4 -27 11 -47 15 -38 7 -52 24
-41 51 5 13 2 15 -17 9 -20 -6 -22 -5 -17 16 4 16 0 31 -16 48 -22 25 -6 20
26 -7 16 -14 17 -12 19 19 0 19 0 41 -1 49 -1 8 -3 27 -3 43 -1 15 -6 27 -11
27 -5 0 -4 7 3 15 6 8 9 18 6 23 -4 7 -11 61 -21 166 -1 10 -12 27 -24 37 -13
11 -18 19 -12 19 6 0 8 7 5 15 -4 8 -1 15 5 15 6 0 11 16 11 36 0 31 -2 35
-15 24 -13 -11 -15 -8 -16 16 -1 16 -1 33 0 38 1 4 -4 14 -10 22 -9 11 -9 14
1 14 9 0 9 4 -1 17 -12 15 -12 16 8 11 20 -5 22 -3 17 31 -2 20 -5 43 -5 51
-1 8 -7 38 -14 67 -11 44 -11 53 2 57 10 4 12 13 7 28 -7 25 -24 39 -36 32 -4
-3 -8 11 -8 30 0 19 -4 38 -10 41 -17 11 -11 27 8 21 15 -5 18 0 17 34 0 22
-3 40 -7 40 -11 0 -10 38 1 44 10 7 7 149 -4 166 -4 7 -1 16 6 21 11 7 11 13
-4 38 -9 16 -17 41 -17 55 0 14 -4 26 -9 26 -12 0 -11 59 0 66 8 4 7 13 -7 51
-4 10 -7 38 -8 63 -1 25 -5 50 -9 57 -4 6 -3 14 3 18 15 9 12 19 -11 44 -18
19 -19 25 -8 32 10 6 11 11 2 20 -7 7 -9 38 -5 91 4 68 2 82 -11 90 -21 11
-22 28 -3 28 13 0 16 45 4 66 -3 5 -6 22 -6 39 0 16 -5 31 -11 33 -15 5 -14
22 3 41 12 14 12 21 -4 55 -21 42 -22 58 -3 66 9 3 3 15 -16 36 -30 32 -30 43
4 62 14 8 16 11 5 12 -9 0 -16 10 -16 24 -1 13 -12 38 -24 54 -20 26 -21 34
-10 47 11 13 10 18 -6 31 -10 9 -14 13 -8 10 6 -3 20 1 30 9 11 8 14 14 6 15
-8 0 -10 8 -6 27 6 23 4 25 -11 19 -18 -6 -18 -6 -2 11 13 16 14 22 4 43 -11
21 -10 27 2 38 14 12 14 13 -1 8 -9 -2 -19 1 -21 8 -4 10 1 12 14 9 26 -7 39
31 29 85 -4 23 -3 39 1 36 5 -3 9 1 9 10 0 8 -5 16 -10 18 -6 2 -12 12 -14 23
-2 11 -7 32 -11 48 -6 22 -4 27 10 27 14 0 16 6 10 27 -3 15 -12 31 -18 35 -9
5 -9 10 1 20 17 17 15 24 -8 46 -17 16 -19 24 -11 45 6 15 8 33 5 40 -2 7 5
23 17 36 18 19 19 25 8 32 -8 5 -10 9 -5 9 6 0 5 5 -2 12 -14 14 -16 55 -4 60
5 2 12 18 15 36 6 28 4 32 -14 32 -18 0 -20 4 -14 27 6 24 5 25 -11 12 -15
-13 -16 -12 -9 11 4 14 11 29 16 35 16 16 10 45 -9 45 -28 0 -28 56 0 63 14 4
19 11 14 22 -3 9 -6 24 -6 32 0 13 -3 13 -15 3 -13 -10 -15 -9 -15 11 0 19 6
24 26 25 32 2 36 6 40 43 2 21 -4 36 -23 55 -14 14 -29 26 -34 26 -4 0 -7 9
-6 20 1 11 7 20 14 20 7 0 13 5 13 12 0 6 8 21 17 32 10 12 11 15 3 9 -21 -19
-40 -16 -40 7 0 13 7 20 20 20 14 0 19 6 17 21 -1 12 4 24 11 26 6 3 12 0 12
-7 0 -6 -4 -8 -10 -5 -5 3 -10 1 -10 -4 0 -6 9 -11 20 -11 17 0 18 3 10 26
-14 36 -12 75 4 93 19 22 30 61 17 61 -6 0 -11 6 -11 14 0 7 -11 16 -25 18
-14 3 -25 1 -25 -4 0 -5 -7 -2 -16 6 -16 17 -11 36 10 36 8 0 19 7 26 15 10
12 9 15 -5 15 -15 0 -15 2 -4 16 8 10 9 18 2 22 -5 4 -8 18 -6 32 4 22 11 90
12 129 1 11 12 12 59 6 31 -4 80 -9 107 -10 28 -1 97 -6 155 -11 58 -4 165 -8
238 -8 72 -1 132 -5 132 -9 0 -5 10 -5 23 -1 12 4 37 6 55 6 17 -1 32 3 32 9
0 11 68 2 85 -11 6 -4 87 -9 180 -9 94 -1 171 -5 173 -10 1 -5 23 -4 48 1 25
6 62 7 82 2 20 -4 47 -6 59 -5 35 4 43 -6 33 -39 -7 -25 -5 -35 14 -55 13 -14
32 -25 43 -25 10 0 24 -5 29 -10 24 -24 119 38 109 71 -4 13 2 19 27 24 18 4
40 16 49 26 9 10 19 16 23 12 3 -3 6 -1 6 5 0 7 10 12 23 13 19 0 20 2 6 11
-15 10 -15 14 -1 39 16 26 76 54 94 43 4 -3 8 -1 8 5 0 5 -22 24 -50 42 -27
18 -50 36 -50 40 0 9 -82 22 -147 23 -29 0 -53 4 -53 8 0 5 -7 8 -16 8 -13 0
-14 3 -4 15 7 8 10 26 8 39 -6 32 23 50 65 40 18 -4 48 -7 69 -6 20 1 41 -5
48 -13 6 -8 18 -11 26 -8 8 3 14 0 14 -7 0 -6 5 -8 11 -5 5 4 19 -1 30 -11 17
-15 22 -16 29 -5 7 12 15 11 49 -3 37 -14 45 -15 77 -1 20 8 44 15 54 15 9 0
27 9 39 19 13 11 29 17 37 14 8 -3 14 0 14 6 0 6 -6 11 -14 11 -8 0 -34 11
-57 25 -37 21 -117 50 -127 46 -1 -1 -15 5 -31 14 -16 8 -44 16 -63 18 -18 2
-46 9 -63 16 -51 21 -204 58 -315 76 -174 27 -200 36 -250 82 -25 24 -53 45
-62 49 -10 3 -18 12 -18 20 0 8 -4 14 -8 14 -5 0 -18 9 -30 21 -12 11 -27 17
-34 13 -7 -4 -8 -3 -4 5 12 19 -4 51 -26 51 -15 0 -19 5 -15 19 5 20 -25 61
-43 61 -6 0 -10 14 -10 30 0 20 -5 30 -15 30 -8 0 -15 7 -15 15 0 8 -11 22
-24 30 -29 20 -31 62 -4 92 19 20 19 24 5 52 -14 28 -14 31 1 31 12 0 13 3 4
12 -9 9 -7 14 6 24 10 8 12 13 5 14 -7 0 -31 18 -54 40 -23 22 -44 38 -48 35
-4 -2 -20 3 -36 11 -23 12 -30 12 -37 2 -6 -10 -10 -10 -17 2 -5 8 -7 19 -3
25 19 29 -5 104 -28 90 -4 -3 -7 3 -6 13 1 12 -6 16 -24 15 -14 -1 -19 1 -12
3 18 8 15 24 -6 24 -10 0 -24 8 -32 18 -31 37 -60 81 -60 90 0 4 -16 22 -35
39 -24 22 -33 37 -29 50 5 17 5 17 -6 -1 -12 -17 -13 -17 -26 5 -7 13 -17 32
-20 42 -7 19 -24 23 -24 6 0 -5 -4 -7 -10 -4 -18 11 -10 23 20 30 44 10 38 32
-8 26 -7 -1 -11 7 -9 21 5 29 -41 80 -64 73 -9 -3 -22 1 -29 10 -10 12 -9 16
4 21 12 5 14 10 6 19 -8 9 -4 12 13 10 20 -3 23 1 19 21 -2 14 -13 31 -24 38
-14 10 -18 20 -13 35 4 15 2 21 -9 21 -8 0 -17 13 -21 31 -4 17 -14 33 -22 36
-9 4 -13 14 -9 25 3 12 -3 29 -14 40 -10 11 -16 28 -13 39 4 15 2 18 -11 13
-9 -3 -16 -10 -16 -16 0 -5 -4 -6 -10 -3 -18 11 -11 35 8 29 14 -5 14 -3 -2
10 -11 9 -14 16 -8 16 21 0 13 36 -13 60 -14 13 -31 44 -37 67 -12 48 -11 47
-39 33 -13 -7 -19 -7 -19 0 0 5 -7 10 -16 10 -11 0 -14 6 -9 20 5 16 3 19 -11
13 -14 -5 -15 -3 -5 15 6 12 17 21 23 19 7 -1 12 3 13 8 0 6 4 16 8 22 5 8 -1
22 -14 35 l-21 23 7 -22 c4 -15 2 -23 -5 -23 -6 0 -8 5 -5 10 3 6 2 10 -2 10
-12 0 -33 59 -26 76 3 8 1 14 -3 14 -5 0 -9 13 -10 29 -1 16 -8 37 -18 46 -9
9 -18 28 -21 43 -3 15 -10 41 -16 57 -6 17 -11 36 -12 43 0 6 -4 12 -9 12 -4
0 -8 7 -8 15 0 8 -4 15 -10 15 -5 0 -10 8 -10 19 0 10 -10 33 -23 52 -13 19
-33 55 -45 80 -17 36 -27 46 -41 42 -16 -4 -18 1 -17 34 1 31 -2 37 -16 35
-20 -3 -23 9 -7 25 8 8 4 15 -11 26 -14 10 -20 22 -17 31 4 9 3 16 -2 16 -10
0 -31 45 -31 68 0 9 -18 37 -40 61 -22 25 -40 53 -40 63 0 10 -9 27 -21 39
-13 13 -18 27 -14 39 4 12 -2 31 -16 49 -15 21 -19 34 -12 43 13 17 16 81 4
74 -5 -4 -13 -1 -17 5 -4 7 -3 9 4 5 6 -3 17 3 26 15 13 19 17 20 31 9 14 -12
18 -11 26 1 16 26 10 45 -26 76 -38 34 -42 48 -20 77 12 16 18 17 27 8 9 -9 8
-12 -5 -12 -10 0 -14 -5 -11 -14 3 -8 11 -13 17 -11 46 11 55 18 49 33 -8 23
-33 41 -49 35 -8 -3 -13 2 -13 13 -1 17 -2 17 -19 -3 -20 -24 -29 -21 -54 25
-21 37 -17 67 12 101 21 23 47 20 37 -5 -7 -19 1 -18 23 4 21 19 30 60 17 81
-7 10 -4 12 13 6 24 -7 29 10 5 19 -9 3 -12 11 -8 18 4 7 -3 3 -15 -9 -12 -13
-30 -23 -41 -23 -10 0 -21 -6 -23 -12 -4 -10 -7 -10 -15 0 -7 11 -17 9 -48 -9
-21 -12 -56 -31 -77 -42 -24 -12 -36 -25 -33 -33 4 -9 -2 -13 -17 -12 -17 2
-24 9 -25 28 -1 14 -7 27 -12 28 -6 2 -8 7 -5 12 3 5 0 21 -6 37 -7 15 -11 43
-10 61 2 36 -1 37 -68 21 -26 -6 -47 -6 -50 -1 -3 5 -15 0 -26 -10z m-125
-123 c15 9 13 -48 -2 -64 -10 -11 -10 -14 0 -18 6 -3 12 -16 12 -29 0 -14 -4
-23 -9 -20 -14 9 -41 -4 -41 -20 0 -13 -14 -18 -46 -17 -6 0 -9 -8 -7 -17 5
-19 -18 -41 -25 -22 -2 7 -10 5 -22 -5 -16 -14 -17 -18 -4 -38 8 -12 12 -30 8
-39 -7 -17 -24 -22 -24 -6 0 19 -29 10 -36 -12 -5 -16 -1 -27 15 -39 24 -20
28 -49 6 -49 -8 0 -15 -4 -15 -10 0 -5 7 -10 15 -10 8 0 15 -5 15 -11 0 -7 -9
-9 -22 -6 -27 7 -77 -16 -59 -27 15 -10 14 -49 -1 -43 -7 2 -20 -4 -29 -15
-16 -18 -17 -18 -22 2 -6 24 -27 25 -67 5 -28 -14 -32 -28 -17 -52 4 -7 -5
-17 -24 -27 -38 -19 -57 -11 -33 15 10 11 12 19 6 19 -7 0 -12 -4 -12 -10 0
-5 -4 -10 -9 -10 -5 0 -4 11 2 24 9 19 16 22 28 15 14 -7 17 -4 15 16 -2 13 1
22 5 19 5 -3 9 0 9 5 0 6 -4 11 -10 11 -5 0 -10 7 -10 15 0 8 3 14 8 13 4 0
15 2 25 7 15 6 16 10 5 16 -10 7 -9 9 5 9 29 0 75 59 69 88 -2 7 5 15 15 19
32 12 120 118 115 139 -4 21 67 89 91 86 19 -2 20 -1 7 10 -17 14 -26 43 -11
34 13 -8 52 44 44 58 -4 6 1 5 10 -2 9 -8 21 -11 27 -7z m480 -17 c0 -6 -3 -8
-6 -5 -4 3 -16 1 -28 -5 -19 -10 -20 -10 -7 5 16 19 41 23 41 5z m-63 -23 c0
-12 -3 -12 -16 -3 -9 7 -18 14 -20 15 -2 2 5 3 16 3 11 0 20 -7 20 -15z m57
-111 c6 -15 4 -15 -11 -3 -10 7 -20 15 -22 16 -2 2 3 3 11 3 9 0 19 -7 22 -16z
m-20 -39 c3 -9 0 -15 -9 -15 -8 0 -15 7 -15 15 0 8 4 15 9 15 5 0 11 -7 15
-15z m-359 -5 c3 -5 -1 -10 -9 -10 -9 0 -16 5 -16 10 0 6 4 10 9 10 6 0 13 -4
16 -10z m-145 -84 c0 -3 -4 -8 -10 -11 -5 -3 -10 -1 -10 4 0 6 5 11 10 11 6 0
10 -2 10 -4z m476 -29 c1 -12 3 -26 4 -32 1 -5 2 -21 1 -34 -1 -19 -4 -21 -15
-12 -8 7 -15 20 -14 29 0 9 -3 27 -7 39 -5 16 -2 22 12 26 10 3 18 5 18 6 0 0
1 -9 1 -22z m60 -16 c-3 -5 2 -12 11 -15 12 -5 14 -9 5 -18 -9 -9 -16 -8 -28
4 -16 16 -12 38 7 38 6 0 8 -4 5 -9z m-5 -74 c-10 -9 -11 -8 -5 6 3 10 9 15
12 12 3 -3 0 -11 -7 -18z m-971 -262 c-7 -8 -19 -15 -26 -15 -8 0 -14 -6 -14
-14 0 -8 -4 -17 -9 -21 -6 -3 -8 4 -6 16 2 12 6 22 7 23 2 0 12 6 23 13 28 17
40 16 25 -2z m47 -40 c22 -23 13 -26 -35 -12 -24 7 -40 16 -36 20 13 12 55 7
71 -8z m543 -19 c0 -8 -7 -16 -15 -20 -17 -6 -18 -4 -9 18 8 20 24 21 24 2z
m57 -18 c-3 -8 -6 -5 -6 6 -1 11 2 17 5 13 3 -3 4 -12 1 -19z m43 -3 c0 -8 -4
-15 -10 -15 -5 0 -7 7 -4 15 4 8 8 15 10 15 2 0 4 -7 4 -15z m-768 -18 c-1 -8
2 -18 8 -22 6 -4 10 5 11 22 0 15 3 22 6 15 4 -10 8 -10 19 -1 18 15 20 -11 2
-29 -9 -9 -7 -12 9 -12 12 0 24 5 26 10 3 6 4 5 3 -2 -1 -7 -14 -14 -29 -16
-17 -2 -24 -8 -21 -17 3 -7 -4 -19 -16 -25 -15 -8 -20 -18 -17 -31 3 -12 -2
-24 -16 -34 -24 -17 -31 -46 -14 -57 17 -11 1 -22 -20 -13 -29 13 -43 14 -43
4 0 -5 8 -9 19 -9 23 0 36 -39 15 -47 -8 -3 -20 0 -28 6 -7 6 -17 7 -21 3 -5
-4 -6 -2 -2 3 3 6 2 16 -2 23 -4 8 -10 5 -19 -8 -10 -16 -9 -21 8 -30 11 -6
20 -20 20 -30 0 -14 7 -20 23 -21 12 0 16 -3 9 -6 -7 -3 -17 -16 -22 -29 -12
-31 -24 -30 -48 1 -22 27 -38 19 -27 -15 4 -11 12 -17 21 -13 17 6 17 5 3 -35
-7 -22 -15 -29 -26 -25 -11 4 -14 2 -9 -5 10 -16 43 -15 49 1 3 7 6 5 6 -5 1
-10 -5 -18 -13 -18 -15 0 -32 -37 -22 -47 3 -4 6 1 6 10 0 10 8 17 20 17 13 0
20 -7 20 -19 0 -13 -10 -20 -36 -24 -41 -7 -86 -49 -77 -73 5 -12 -1 -15 -27
-12 -19 2 -35 9 -38 16 -2 7 2 10 12 6 10 -4 18 0 22 10 3 9 14 16 24 16 13 0
17 6 13 19 -4 14 1 20 18 23 19 2 24 10 25 36 1 17 -2 32 -6 32 -4 0 -11 12
-14 26 -4 14 -12 24 -19 21 -7 -2 -18 3 -25 12 -7 9 -12 12 -11 6 3 -14 -13
-49 -25 -57 -8 -6 -6 -11 4 -19 12 -8 10 -9 -7 -4 -20 5 -23 2 -23 -19 0 -29
-49 -69 -69 -57 -9 6 -10 11 -3 15 6 4 9 12 6 19 -2 7 15 35 39 62 41 47 152
212 152 226 0 10 38 60 63 82 12 11 22 29 22 39 0 10 5 18 10 18 6 0 10 7 10
15 0 8 5 15 10 15 6 0 17 18 26 40 16 39 42 51 36 17z m1158 -7 c0 -5 -5 -10
-11 -10 -5 0 -7 5 -4 10 3 6 8 10 11 10 2 0 4 -4 4 -10z m-503 -28 c1 -12 -1
-22 -7 -22 -12 0 -31 36 -23 44 12 11 26 1 30 -22z m-479 -16 c-10 -7 -16 -15
-13 -18 3 -2 -2 -5 -10 -5 -12 0 -10 6 7 24 12 12 24 20 27 17 3 -3 -2 -11
-11 -18z m1142 -266 c0 -5 -5 -10 -11 -10 -5 0 -7 5 -4 10 3 6 8 10 11 10 2 0
4 -4 4 -10z m40 -30 c0 -5 -2 -10 -4 -10 -3 0 -8 5 -11 10 -3 6 -1 10 4 10 6
0 11 -4 11 -10z m-1420 -30 c0 -5 -5 -10 -11 -10 -5 0 -7 5 -4 10 3 6 8 10 11
10 2 0 4 -4 4 -10z m1380 -50 c0 -5 -2 -10 -4 -10 -3 0 -8 5 -11 10 -3 6 -1
10 4 10 6 0 11 -4 11 -10z m-67 -60 c3 -11 1 -18 -4 -14 -5 3 -9 12 -9 20 0
20 7 17 13 -6z m-1486 -26 c-3 -3 -12 -4 -19 -1 -8 3 -5 6 6 6 11 1 17 -2 13
-5z m-77 -44 c-6 -11 -16 -18 -21 -14 -6 3 -3 12 8 20 24 18 26 17 13 -6z
m-120 6 c0 -3 -4 -8 -10 -11 -5 -3 -10 -1 -10 4 0 6 5 11 10 11 6 0 10 -2 10
-4z m40 -10 c0 -23 -11 -46 -20 -41 -10 6 0 55 11 55 5 0 9 -6 9 -14z m252 -4
c-10 -3 -10 -7 -1 -18 9 -12 8 -14 -7 -11 -11 1 -20 6 -22 10 -4 12 22 35 33
29 5 -3 4 -7 -3 -10z m1431 -25 c-3 -6 -12 -2 -20 8 -19 27 -16 37 6 18 11 -9
17 -21 14 -26z m-933 -3 c0 -16 -24 -24 -40 -14 -10 6 -8 9 6 13 17 4 17 6 -3
12 -13 4 -21 11 -18 15 7 11 55 -12 55 -26z m-633 20 c-3 -3 -12 -4 -19 -1 -8
3 -5 6 6 6 11 1 17 -2 13 -5z m-39 -32 c2 -7 -3 -12 -10 -12 -8 0 -15 7 -15
15 0 18 19 15 25 -3z m-95 -31 c6 -22 0 -32 -33 -54 -13 -9 -19 -17 -12 -17 7
0 10 -5 6 -11 -3 -6 -1 -15 6 -19 10 -6 9 -14 -2 -36 -7 -16 -19 -30 -26 -30
-6 -1 -17 -2 -23 -3 -6 0 -9 -8 -5 -16 3 -9 0 -15 -9 -15 -8 0 -15 -4 -15 -10
0 -5 -12 -10 -26 -10 -37 0 -19 -20 19 -21 30 0 31 -1 9 -10 -13 -5 -28 -6
-33 -3 -14 8 -40 -23 -33 -40 5 -12 2 -15 -11 -10 -14 6 -16 3 -10 -15 4 -12
2 -28 -4 -35 -6 -7 -8 -25 -6 -42 4 -24 3 -26 -5 -11 -8 12 -18 15 -38 11 -26
-7 -27 -6 -9 13 9 11 17 30 17 42 0 16 4 21 15 17 8 -3 15 -1 15 4 0 6 -7 10
-15 10 -13 0 -12 4 4 21 11 12 18 26 17 33 -2 6 -1 8 1 4 9 -16 33 -7 33 11 0
11 3 27 7 37 4 12 3 15 -5 10 -7 -4 -12 -1 -12 8 0 11 9 16 30 16 22 0 28 4
24 15 -4 8 -1 15 6 15 8 0 11 9 7 25 -3 19 1 29 17 37 11 6 23 14 26 17 3 4
18 12 33 19 23 10 26 15 17 31 -13 26 -13 31 4 31 7 0 16 -9 19 -19z m697 -1
c0 -5 -5 -10 -11 -10 -5 0 -7 5 -4 10 3 6 8 10 11 10 2 0 4 -4 4 -10z m-755
-20 c3 -5 1 -10 -4 -10 -6 0 -11 5 -11 10 0 6 2 10 4 10 3 0 8 -4 11 -10z
m1439 -34 c13 5 66 -38 66 -54 0 -10 -93 8 -105 20 -4 3 -1 17 6 30 7 13 14
18 16 11 3 -7 10 -10 17 -7z m481 -6 c-3 -5 -12 -10 -18 -10 -7 0 -6 4 3 10
19 12 23 12 15 0z m-170 -30 c3 -6 -1 -7 -9 -4 -18 7 -21 14 -7 14 6 0 13 -4
16 -10z m-465 -10 c0 -5 -5 -10 -11 -10 -5 0 -7 5 -4 10 3 6 8 10 11 10 2 0 4
-4 4 -10z m165 -32 l30 -3 -27 -12 c-23 -10 -30 -10 -43 3 -8 9 -12 20 -9 26
4 7 9 7 13 0 3 -6 19 -12 36 -14z m575 2 c0 -5 -2 -10 -4 -10 -3 0 -8 5 -11
10 -3 6 -1 10 4 10 6 0 11 -4 11 -10z m-505 -10 c3 -5 1 -10 -4 -10 -6 0 -11
5 -11 10 0 6 2 10 4 10 3 0 8 -4 11 -10z m-1435 -19 c0 -5 -7 -12 -16 -15 -14
-5 -15 -4 -4 9 14 17 20 19 20 6z m-225 -61 c-3 -5 -11 -10 -16 -10 -6 0 -7 5
-4 10 3 6 11 10 16 10 6 0 7 -4 4 -10z m135 -49 c0 -14 -29 -21 -36 -9 -4 6
-3 8 4 4 6 -3 13 -2 17 4 8 12 15 13 15 1z m-75 -11 c3 -5 1 -10 -4 -10 -6 0
-11 5 -11 10 0 6 2 10 4 10 3 0 8 -4 11 -10z m1656 -79 c20 -18 20 -19 -14
-39 -19 -11 -40 -16 -47 -12 -9 6 -9 9 -1 15 7 3 9 16 6 28 -6 22 -6 22 14 -1
11 -13 22 -18 26 -12 3 5 2 10 -3 10 -5 0 -9 7 -9 15 0 19 4 19 28 -4z m-1671
-21 c0 -5 -7 -7 -15 -4 -8 4 -12 10 -9 15 6 11 24 2 24 -11z m-125 -48 c-6 -7
-35 18 -35 31 0 5 9 2 20 -8 11 -10 18 -20 15 -23z m45 -33 c0 -10 -47 -39
-62 -39 -7 0 -19 -10 -26 -21 -16 -25 -27 -16 -35 28 -6 31 -5 32 23 28 38 -5
82 15 75 35 -3 9 1 7 10 -4 8 -11 15 -23 15 -27z m1513 -3 c4 -9 -2 -13 -18
-13 -16 0 -22 4 -18 13 3 8 11 14 18 14 7 0 15 -6 18 -14z m797 -36 c0 -5 -4
-10 -10 -10 -5 0 -10 5 -10 10 0 6 5 10 10 10 6 0 10 -4 10 -10z m-2414 -92
c-1 -17 -8 -34 -15 -36 -8 -3 -11 0 -7 7 5 7 1 9 -8 5 -22 -9 -20 5 5 27 l20
18 -22 11 c-17 10 -19 14 -8 21 20 12 37 -14 35 -53z m1428 43 c3 -5 -1 -11
-9 -15 -9 -3 -15 0 -15 9 0 16 16 20 24 6z m-1464 -22 c0 -5 -7 -9 -15 -9 -13
0 -19 -12 -16 -32 0 -4 -7 -4 -17 -1 -15 6 -15 5 -3 -10 16 -20 7 -37 -10 -20
-7 7 -8 19 -4 30 5 10 7 22 6 27 -1 4 3 14 9 21 11 14 50 9 50 -6z m2555 1 c3
-5 1 -10 -4 -10 -6 0 -11 5 -11 10 0 6 2 10 4 10 3 0 8 -4 11 -10z m-495 -117
c0 -5 -5 -15 -10 -23 -9 -13 -11 -13 -19 0 -7 10 -6 17 2 22 15 10 27 10 27 1z
m-2143 -30 c-3 -44 -29 -58 -72 -37 -23 11 -35 22 -32 33 2 9 10 14 18 12 26
-9 73 -4 77 8 7 20 11 12 9 -16z m2488 17 c-11 -5 -27 -9 -35 -9 -13 -1 -13 0
0 9 8 5 24 9 35 9 l20 0 -20 -9z m-591 -56 c4 -16 12 -24 20 -21 17 7 27 -25
15 -44 -7 -11 -9 -11 -9 2 0 27 -20 39 -46 27 -30 -14 -45 -1 -21 17 12 9 14
14 6 17 -16 5 -3 28 16 28 7 0 16 -12 19 -26z m-2009 -24 c3 -5 1 -10 -4 -10
-6 0 -11 5 -11 10 0 6 2 10 4 10 3 0 8 -4 11 -10z m2015 -30 c0 -5 -5 -10 -11
-10 -5 0 -7 5 -4 10 3 6 8 10 11 10 2 0 4 -4 4 -10z m800 -90 c0 -11 -4 -20
-10 -20 -5 0 -10 9 -10 20 0 11 5 20 10 20 6 0 10 -9 10 -20z m-1165 -10 c-3
-5 -12 -10 -18 -10 -7 0 -6 4 3 10 19 12 23 12 15 0z m125 -22 c0 -25 -32 -23
-55 2 -19 21 -19 21 18 18 28 -1 37 -6 37 -20z m640 -8 c8 -5 11 -12 8 -16 -4
-3 -14 1 -23 10 -18 17 -9 21 15 6z m-2505 -71 c-4 -5 -13 -9 -22 -9 -13 0
-13 3 -3 15 13 15 35 11 25 -6z m2496 -80 c-11 -12 -27 -19 -36 -17 -25 5 -19
23 10 26 14 2 25 8 25 13 0 6 4 7 10 4 6 -4 2 -14 -9 -26z m158 24 c-4 -22 3
-33 20 -33 12 0 21 -9 25 -25 4 -14 11 -25 17 -25 6 0 8 -4 4 -9 -3 -5 -1 -12
5 -16 5 -3 10 -13 10 -22 0 -9 6 -21 14 -27 17 -13 29 -63 18 -70 -8 -5 -20
-8 -87 -22 -16 -4 -36 -11 -43 -17 -7 -5 -15 -7 -19 -3 -8 8 -7 8 50 34 42 20
62 42 37 42 -5 0 -7 7 -4 15 4 8 1 15 -6 15 -9 0 -10 3 -1 13 8 11 6 18 -9 32
-11 10 -17 22 -14 26 3 5 2 14 -2 20 -4 8 -9 7 -15 -2 -7 -11 -9 -10 -9 4 0
13 -8 17 -34 17 -49 0 -52 15 -8 38 41 23 53 26 51 15z m-219 -7 c0 -11 -19
-15 -25 -6 -3 5 1 10 9 10 9 0 16 -2 16 -4z m-1970 -16 c0 -5 -2 -10 -4 -10
-3 0 -8 5 -11 10 -3 6 -1 10 4 10 6 0 11 -4 11 -10z m1940 -34 c0 -3 -4 -8
-10 -11 -5 -3 -10 -1 -10 4 0 6 5 11 10 11 6 0 10 -2 10 -4z m-153 -88 c-3 -8
-6 -5 -6 6 -1 11 2 17 5 13 3 -3 4 -12 1 -19z m858 -44 c9 -9 13 -19 10 -22
-3 -3 -14 4 -25 16 -24 25 -10 30 15 6z m-515 -71 c0 -16 -27 -53 -39 -53 -14
0 -9 42 7 59 19 20 32 18 32 -6z m-316 -55 c-7 -11 -34 -10 -34 1 0 6 9 9 19
8 11 0 17 -5 15 -9z m-574 -38 c0 -5 -5 -10 -11 -10 -5 0 -7 5 -4 10 3 6 8 10
11 10 2 0 4 -4 4 -10z m105 -30 c3 -5 1 -10 -4 -10 -6 0 -11 5 -11 10 0 6 2
10 4 10 3 0 8 -4 11 -10z m-2060 -100 c3 -5 -1 -10 -10 -10 -9 0 -13 5 -10 10
3 6 8 10 10 10 2 0 7 -4 10 -10z m2835 -100 c9 -16 8 -20 -5 -20 -8 0 -15 9
-15 20 0 11 2 20 5 20 2 0 9 -9 15 -20z m-1530 -124 c0 -9 -30 -14 -35 -6 -4
6 3 10 14 10 12 0 21 -2 21 -4z m1084 -5 c3 -5 -3 -11 -14 -14 -20 -5 -26 3
-13 16 9 10 21 9 27 -2z m-1409 -11 c-3 -5 -12 -7 -20 -3 -21 7 -19 13 6 13
11 0 18 -4 14 -10z m2453 -8 c6 -18 -15 -14 -22 4 -4 10 -1 14 6 12 6 -2 14
-10 16 -16z m-2201 -14 c6 -13 9 -33 7 -46 -2 -13 1 -32 6 -42 8 -16 8 -18 -5
-14 -8 4 -15 2 -15 -3 0 -5 -16 -10 -35 -11 -20 -2 -48 -8 -63 -14 -15 -6 -61
-11 -102 -13 -41 -1 -88 -6 -104 -10 -22 -6 -28 -5 -24 5 2 7 12 14 22 16 10
1 28 12 40 23 12 12 33 21 45 21 29 0 83 38 75 52 -4 6 -1 9 7 6 8 -3 37 8 64
23 60 35 69 35 82 7z m1093 2 c0 -5 -2 -10 -4 -10 -3 0 -8 5 -11 10 -3 6 -1
10 4 10 6 0 11 -4 11 -10z m-1350 -10 c0 -5 -2 -10 -4 -10 -3 0 -8 5 -11 10
-3 6 -1 10 4 10 6 0 11 -4 11 -10z m2260 -16 c0 -13 3 -13 23 0 12 8 34 14 50
12 15 -2 27 1 27 5 0 5 11 9 25 9 15 0 25 -6 25 -14 0 -9 12 -13 37 -12 l38 1
-3 -41 c-2 -23 2 -45 7 -49 6 -3 9 -10 6 -15 -3 -4 4 -6 16 -3 12 3 18 11 15
19 -9 22 12 16 24 -7 12 -22 4 -42 -8 -22 -5 8 -13 9 -22 3 -12 -8 -9 -15 18
-42 32 -33 33 -33 30 -8 -3 22 1 25 27 26 37 1 55 -5 55 -18 0 -5 -4 -6 -10
-3 -5 3 -24 8 -41 10 l-32 4 22 -22 c16 -16 24 -19 29 -10 6 9 11 6 21 -8 7
-12 8 -18 2 -14 -6 3 -11 1 -11 -4 0 -14 -196 -3 -252 15 -9 2 -51 9 -95 14
-43 6 -98 13 -123 16 -25 3 -65 7 -90 9 -25 1 -56 6 -70 11 l-25 8 25 7 c14 4
48 4 76 2 45 -5 53 -3 67 17 l15 22 30 -33 c33 -37 53 -33 32 5 -17 33 -6 64
16 46 11 -10 12 -15 3 -21 -7 -4 -9 -15 -5 -25 7 -18 8 -18 22 0 11 16 14 17
14 4 0 -9 7 -18 15 -22 10 -4 15 1 15 15 0 11 -6 22 -13 25 -15 5 -19 34 -5
34 4 0 8 8 8 17 0 13 -3 14 -12 5 -7 -7 -17 -12 -22 -12 -6 0 -4 4 4 10 11 7
9 11 -14 20 -23 8 -26 13 -16 25 14 17 30 11 30 -11z m-1774 -21 c18 -3 41 0
52 6 16 8 21 7 26 -5 3 -8 10 -12 16 -9 5 3 10 -1 10 -9 0 -8 7 -19 15 -23 13
-8 13 -11 0 -28 -8 -11 -15 -15 -15 -9 0 11 -35 12 -46 1 -14 -14 -26 -7 -21
12 3 14 -1 19 -21 19 -23 0 -24 -2 -9 -13 21 -15 4 -35 -30 -35 -13 0 -26 -7
-29 -15 -4 -8 -10 -13 -15 -10 -4 3 -2 23 6 45 9 25 10 40 4 40 -6 0 -8 4 -4
9 3 5 1 12 -5 16 -16 10 0 27 19 19 9 -4 30 -9 47 -11z m1741 -17 c-2 -6 -14
-13 -27 -14 -20 -3 -22 -1 -12 10 14 17 44 20 39 4z m-2482 -15 c-3 -6 3 -14
12 -20 10 -6 13 -11 7 -11 -6 0 -17 7 -24 15 -10 13 -15 13 -21 3 -4 -7 -11
-9 -14 -6 -11 11 5 28 26 28 11 0 18 -4 14 -9z m-640 -32 c4 -6 5 -12 3 -14
-7 -7 -48 7 -48 16 0 13 37 11 45 -2z m3505 -29 c0 -5 -4 -10 -10 -10 -5 0
-10 5 -10 10 0 6 5 10 10 10 6 0 10 -4 10 -10z m59 -11 c-16 -10 -23 -4 -14
10 3 6 11 8 17 5 6 -4 5 -9 -3 -15z m-3762 -135 c-3 -3 -12 -4 -19 -1 -8 3 -5
6 6 6 11 1 17 -2 13 -5z m1012 -25 c-11 -7 -11 -9 1 -9 13 0 13 -2 1 -9 -8 -5
-20 -7 -27 -4 -9 3 -8 9 4 22 9 10 21 16 26 13 4 -2 2 -8 -5 -13z m191 11 c0
-5 -4 -10 -10 -10 -5 0 -10 5 -10 10 0 6 5 10 10 10 6 0 10 -4 10 -10z m-270
-10 c0 -5 -4 -10 -10 -10 -5 0 -10 5 -10 10 0 6 5 10 10 10 6 0 10 -4 10 -10z
m210 6 c0 -3 -4 -8 -10 -11 -5 -3 -10 -1 -10 4 0 6 5 11 10 11 6 0 10 -2 10
-4z m-1275 -16 c19 -8 19 -8 1 -15 -17 -8 -17 -9 5 -21 22 -12 22 -12 -14 -11
-26 1 -39 6 -43 19 -10 34 10 45 51 28z m3262 -81 c18 -6 37 -8 43 -4 5 3 10
2 10 -4 0 -10 11 -9 49 3 16 6 26 4 32 -5 8 -12 10 -12 18 0 7 11 14 11 40 -2
17 -8 40 -13 51 -10 11 3 20 0 20 -6 0 -17 47 -13 54 5 3 9 4 19 1 24 -3 4 2
11 11 14 11 4 15 0 14 -17 -3 -36 -1 -39 21 -23 25 17 50 11 42 -12 -5 -11 -2
-14 10 -9 10 4 17 2 17 -4 0 -7 14 -9 38 -5 20 3 31 3 24 0 -6 -3 -10 -10 -6
-15 8 -13 54 -11 54 3 0 7 5 6 13 -4 6 -9 25 -19 41 -22 23 -6 27 -4 23 8 -4
9 -2 16 2 16 5 0 12 -7 15 -16 3 -8 14 -14 23 -12 10 3 30 -1 45 -9 24 -12 27
-11 33 8 5 16 9 18 21 8 12 -10 12 -14 2 -20 -10 -7 -8 -9 5 -9 10 0 16 -4 12
-10 -3 -5 -12 -7 -20 -3 -9 3 -15 -1 -15 -11 0 -9 7 -16 15 -16 9 0 18 -7 22
-16 5 -13 10 -11 29 11 l23 27 23 -24 c13 -14 29 -23 36 -21 6 3 12 0 12 -6 0
-6 5 -11 11 -11 7 0 8 11 4 30 -7 31 7 60 29 60 8 0 8 -2 0 -8 -11 -7 -18 -32
-15 -59 1 -18 21 -16 44 5 19 16 19 16 13 -5 -6 -18 -4 -21 15 -16 16 4 20 2
17 -8 -5 -15 -70 -15 -303 -2 -55 3 -136 7 -180 9 -44 2 -116 6 -160 9 -44 3
-125 8 -180 10 -55 3 -145 7 -200 11 -55 3 -117 5 -138 4 -21 0 -43 3 -50 7
-6 4 -16 8 -21 8 -5 0 -11 6 -13 13 -3 6 0 12 5 12 6 0 13 19 17 43 9 50 30
77 62 77 12 0 23 4 23 9 0 11 71 5 117 -10z m-3319 -9 c-7 -11 -17 -20 -22
-20 -5 0 -1 9 9 20 10 11 20 20 22 20 2 0 -2 -9 -9 -20z m847 0 c3 -5 1 -10
-4 -10 -6 0 -11 5 -11 10 0 6 2 10 4 10 3 0 8 -4 11 -10z m555 -14 c0 -3 -4
-8 -10 -11 -5 -3 -10 -1 -10 4 0 6 5 11 10 11 6 0 10 -2 10 -4z m2818 -46
c-14 -22 -24 -19 -15 5 4 8 11 15 17 15 6 0 6 -7 -2 -20z m-4338 -14 c0 -3 -4
-8 -10 -11 -5 -3 -10 -1 -10 4 0 6 5 11 10 11 6 0 10 -2 10 -4z m1887 -27
c-14 -23 -49 -26 -41 -4 4 8 10 12 15 9 5 -3 9 2 9 10 0 9 6 13 15 10 11 -5
12 -10 2 -25z m2883 -5 c0 -8 -4 -12 -10 -9 -5 3 -10 10 -10 16 0 5 5 9 10 9
6 0 10 -7 10 -16z m-510 -9 c-7 -9 -15 -13 -17 -11 -7 7 7 26 19 26 6 0 6 -6
-2 -15z m78 -7 c-2 -6 -15 -13 -27 -15 -20 -3 -22 -1 -11 12 15 18 43 20 38 3z
m632 3 c0 -6 -4 -13 -10 -16 -5 -3 -10 1 -10 9 0 9 5 16 10 16 6 0 10 -4 10
-9z m-5165 -11 c3 -5 1 -10 -4 -10 -6 0 -11 5 -11 10 0 6 2 10 4 10 3 0 8 -4
11 -10z m5003 -18 c3 -16 -1 -19 -18 -15 -27 7 -36 23 -19 34 20 12 34 6 37
-19z m-4877 -3 c-12 -12 -25 -18 -28 -15 -4 3 2 13 13 21 29 22 41 18 15 -6z
m-35 -62 c3 -19 -24 -37 -55 -37 -25 0 -28 26 -5 51 19 21 56 12 60 -14z m634
-49 c-1 -32 -16 -36 -39 -12 l-23 24 31 0 c18 0 31 -5 31 -12z m2380 -14 c0
-8 -4 -12 -10 -9 -5 3 -10 13 -10 21 0 8 5 12 10 9 6 -3 10 -13 10 -21z
m-1383 -50 c-3 -3 -12 -4 -19 -1 -8 3 -5 6 6 6 11 1 17 -2 13 -5z m2743 -8 c0
-2 -7 -6 -15 -10 -8 -3 -15 -1 -15 4 0 6 7 10 15 10 8 0 15 -2 15 -4z m-1435
-116 c17 -19 17 -19 -8 -7 -14 6 -23 15 -21 19 7 11 9 10 29 -12z m-150 -340
c-3 -5 -10 -10 -16 -10 -5 0 -9 5 -9 10 0 6 7 10 16 10 8 0 12 -4 9 -10z m575
-70 c0 -5 -5 -10 -11 -10 -5 0 -7 5 -4 10 3 6 8 10 11 10 2 0 4 -4 4 -10z
m-270 -20 c0 -5 -4 -10 -10 -10 -5 0 -10 5 -10 10 0 6 5 10 10 10 6 0 10 -4
10 -10z m-765 -20 c4 -6 -5 -10 -20 -10 -15 0 -24 4 -20 10 3 6 12 10 20 10 8
0 17 -4 20 -10z m104 1 c13 -4 -25 -30 -49 -33 -31 -5 -46 12 -28 30 7 7 55
10 77 3z m871 -121 c0 -5 -4 -10 -10 -10 -5 0 -10 5 -10 10 0 6 5 10 10 10 6
0 10 -4 10 -10z m-1334 -38 c-22 -5 -30 3 -21 18 5 8 11 7 22 -2 15 -12 14
-13 -1 -16z m837 15 c3 -7 -3 -18 -12 -24 -14 -9 -20 -7 -29 7 -9 15 -8 20 6
23 28 8 30 7 35 -6z m-768 -17 c-3 -5 -14 -10 -23 -10 -15 0 -15 2 -2 10 20
13 33 13 25 0z m832 4 c-3 -3 -12 -4 -19 -1 -8 3 -5 6 6 6 11 1 17 -2 13 -5z
m471 -40 c0 -18 -3 -22 -9 -13 -11 18 -11 39 0 39 5 0 9 -12 9 -26z m-1393
-12 c-3 -3 -11 0 -18 7 -9 10 -8 11 6 5 10 -3 15 -9 12 -12z m182 -108 c-3 -3
-12 -4 -19 -1 -8 3 -5 6 6 6 11 1 17 -2 13 -5z m883 -100 c0 -22 2 -25 15 -14
16 13 17 10 19 -65 1 -16 5 -36 10 -44 7 -11 4 -12 -20 -6 -16 5 -45 9 -64 9
-19 1 -39 6 -43 11 -6 6 -10 6 -14 -2 -9 -24 -21 -13 -19 18 1 17 10 37 20 45
21 15 40 9 30 -9 -3 -7 1 -4 9 6 8 9 19 17 26 17 14 0 15 27 1 35 -13 8 -3 25
16 25 8 0 14 -10 14 -26z m-555 5 c11 -17 -1 -21 -15 -4 -8 9 -8 15 -2 15 6 0
14 -5 17 -11z m433 -24 c-3 -3 -9 2 -12 12 -6 14 -5 15 5 6 7 -7 10 -15 7 -18z
m-47 -23 c21 2 39 0 39 -4 0 -5 -6 -8 -14 -8 -16 0 -49 -47 -42 -59 3 -5 -3
-11 -14 -14 -11 -3 -20 -12 -20 -21 0 -10 -9 -16 -25 -16 -22 0 -25 -3 -19
-25 4 -15 2 -25 -5 -25 -6 0 -11 7 -11 15 0 8 -4 15 -10 15 -5 0 -9 -3 -8 -7
4 -15 -13 -53 -24 -53 -5 0 -12 8 -15 19 -3 13 -11 17 -24 14 -10 -3 -19 -9
-19 -13 0 -4 -20 -11 -45 -14 -27 -5 -45 -12 -45 -20 0 -18 -21 -35 -48 -39
-12 -2 -28 -9 -34 -15 -7 -7 -18 -12 -26 -12 -7 0 -11 -4 -8 -9 7 -10 -35 -8
-52 3 -21 13 -13 28 13 24 22 -5 23 -3 13 15 -9 17 -8 19 8 12 11 -4 30 -10
43 -13 19 -4 23 -2 18 11 -4 11 -2 14 7 11 8 -3 17 -1 20 4 3 6 -6 13 -22 17
-25 7 -25 8 -7 15 11 4 23 3 26 -3 4 -6 14 -1 25 11 10 12 21 19 26 16 4 -3 8
0 8 7 0 6 8 9 19 6 13 -3 32 7 55 29 20 19 41 34 46 34 6 0 10 5 10 10 0 6 7
10 15 10 8 0 14 3 14 8 -4 23 3 42 16 42 7 0 18 6 22 13 4 6 17 17 28 23 16 9
21 8 23 -3 3 -11 15 -14 43 -11z m486 -4 c-3 -8 -6 -5 -6 6 -1 11 2 17 5 13 3
-3 4 -12 1 -19z m-615 5 c-15 -3 -22 -10 -18 -19 3 -8 1 -14 -3 -14 -5 0 -11
6 -14 14 -6 16 7 25 38 24 16 -1 15 -2 -3 -5z m-62 -77 c0 -3 -4 -8 -10 -11
-5 -3 -10 -1 -10 4 0 6 5 11 10 11 6 0 10 -2 10 -4z m-130 -70 c0 -11 -19 -15
-25 -6 -3 5 1 10 9 10 9 0 16 -2 16 -4z m-555 -16 c3 -5 -1 -10 -9 -10 -9 0
-16 5 -16 10 0 6 4 10 9 10 6 0 13 -4 16 -10z m65 -10 c0 -5 -6 -10 -14 -10
-8 0 -18 5 -21 10 -3 6 3 10 14 10 12 0 21 -4 21 -10z m780 0 c0 -5 -4 -10
-10 -10 -5 0 -10 5 -10 10 0 6 5 10 10 10 6 0 10 -4 10 -10z m-840 -29 c0 -17
-18 -21 -24 -6 -3 9 0 15 9 15 8 0 15 -4 15 -9z m1120 -11 c18 -11 8 -22 -25
-25 -27 -3 -32 4 -13 23 14 14 18 15 38 2z m-1150 -4 c0 -3 -4 -8 -10 -11 -5
-3 -10 -1 -10 4 0 6 5 11 10 11 6 0 10 -2 10 -4z m760 -6 c0 -5 -4 -10 -10
-10 -5 0 -10 5 -10 10 0 6 5 10 10 10 6 0 10 -4 10 -10z m-240 -80 c0 -5 -5
-10 -11 -10 -5 0 -7 5 -4 10 3 6 8 10 11 10 2 0 4 -4 4 -10z m860 -14 c0 -3
-4 -8 -10 -11 -5 -3 -10 -1 -10 4 0 6 5 11 10 11 6 0 10 -2 10 -4z m-1104 -66
c0 -11 -3 -20 -7 -20 -16 0 -39 13 -39 22 0 5 4 7 9 3 5 -3 12 -1 16 5 10 16
21 11 21 -10z m797 14 c20 -7 10 -41 -13 -47 -12 -3 -17 0 -14 8 3 7 -2 15
-10 18 -9 4 -16 11 -16 17 0 11 29 13 53 4z m-943 -53 c0 -4 -13 -8 -30 -8
-22 0 -27 3 -19 13 10 12 49 8 49 -5z m-263 -17 c-3 -3 -12 -4 -19 -1 -8 3 -5
6 6 6 11 1 17 -2 13 -5z m1124 -27 l-24 -22 19 27 c10 14 21 24 23 22 3 -3 -6
-15 -18 -27z m-161 -51 c0 -2 -3 -12 -6 -20 -5 -13 -9 -14 -20 -5 -20 16 -17
29 6 29 11 0 20 -2 20 -4z m-165 -106 c-3 -5 -16 -10 -28 -10 -18 0 -19 2 -7
10 20 13 43 13 35 0z m35 0 c0 -5 -2 -10 -4 -10 -3 0 -8 5 -11 10 -3 6 -1 10
4 10 6 0 11 -4 11 -10z m-560 -9 c0 -5 -7 -12 -16 -15 -24 -9 -28 -7 -14 9 14
17 30 20 30 6z m737 -57 c0 -15 -35 -26 -43 -13 -3 5 -2 18 1 29 5 16 9 17 24
8 10 -6 18 -17 18 -24z m213 16 c-19 -13 -30 -13 -30 0 0 6 10 10 23 10 18 0
19 -2 7 -10z m-46 -16 c9 -8 21 -12 27 -8 8 4 9 3 5 -4 -4 -7 -15 -12 -26 -12
-10 0 -20 -7 -24 -15 -3 -8 -10 -15 -16 -15 -7 0 -7 6 0 21 7 11 9 27 6 35 -7
19 9 18 28 -2z m-64 -4 c0 -5 -2 -10 -4 -10 -3 0 -8 5 -11 10 -3 6 -1 10 4 10
6 0 11 -4 11 -10z m135 -38 c4 -45 -18 -79 -29 -44 -7 20 -34 25 -54 9 -7 -5
-15 -7 -19 -3 -10 10 14 29 39 33 39 6 48 12 48 34 0 36 11 15 15 -29z m310
-12 c3 -6 -4 -10 -17 -10 -18 0 -20 2 -8 10 19 12 18 12 25 0z m-530 -20 c-3
-4 6 -22 21 -39 l25 -30 -31 -31 c-28 -27 -42 -34 -62 -31 -4 0 -15 -10 -25
-23 -14 -17 -24 -21 -40 -15 -36 13 -35 27 2 45 19 9 35 20 35 25 0 15 -37 10
-50 -6 -7 -8 -16 -12 -21 -9 -5 3 -9 0 -9 -5 0 -6 -4 -11 -10 -11 -21 0 -9 19
20 32 19 8 28 18 25 27 -3 9 0 11 10 8 8 -4 17 -2 20 3 9 15 42 12 59 -5 18
-19 22 -11 21 42 0 23 3 39 7 37 5 -3 6 -9 3 -14z m-445 -10 c0 -5 -4 -10 -10
-10 -5 0 -10 5 -10 10 0 6 5 10 10 10 6 0 10 -4 10 -10z m420 -4 c0 -3 -4 -8
-10 -11 -5 -3 -10 -1 -10 4 0 6 5 11 10 11 6 0 10 -2 10 -4z m210 -18 c0 -4
-6 -8 -14 -8 -8 0 -17 4 -20 8 -2 4 4 8 15 8 10 0 19 -4 19 -8z m-44 -21 c4
-4 0 -7 -9 -7 -9 0 -18 4 -21 9 -7 10 20 9 30 -2z m-1181 -28 c11 -17 -1 -21
-15 -4 -8 9 -8 15 -2 15 6 0 14 -5 17 -11z m148 -53 c3 3 7 1 10 -3 3 -5 -14
-9 -38 -9 -32 1 -41 4 -33 13 6 8 17 9 33 3 13 -5 25 -6 28 -4z m-88 -25 c-9
-16 -25 -3 -18 15 4 10 9 12 15 6 6 -6 7 -15 3 -21z m782 -23 c15 -3 15 -4 0
-17 -15 -12 -18 -10 -26 10 -5 13 -6 29 -3 34 4 6 8 2 10 -7 2 -9 10 -18 19
-20z m-69 10 c-9 -7 -19 -20 -22 -28 -3 -8 -4 -5 -2 7 2 12 -1 24 -8 27 -6 2
2 5 18 5 26 1 28 -1 14 -11z m418 -45 c-7 -7 -26 7 -26 19 0 6 6 6 15 -2 9 -7
13 -15 11 -17z m-486 -17 c0 -5 7 -2 16 5 14 12 16 11 13 -5 -2 -11 -11 -20
-19 -22 -8 -1 -24 -5 -35 -9 -16 -6 -17 -5 -5 4 12 9 11 11 -8 11 -19 0 -22
-4 -17 -20 5 -14 2 -20 -9 -20 -20 0 -21 28 -2 49 15 17 66 22 66 7z m530 -4
c0 -11 -11 -24 -25 -30 -16 -7 -23 -17 -19 -27 10 -26 -5 -16 -20 14 -15 28
-14 29 9 33 13 3 22 1 19 -3 -3 -5 0 -9 6 -9 7 0 14 9 17 20 7 25 13 26 13 2z
m47 -12 c-4 -14 0 -20 12 -20 9 0 22 -9 29 -20 7 -11 8 -20 3 -20 -6 0 -12 4
-16 9 -8 14 -63 10 -69 -5 -3 -7 8 -17 26 -23 29 -10 30 -12 15 -29 -10 -10
-17 -27 -17 -36 0 -12 -5 -16 -16 -12 -9 3 -25 6 -36 6 -17 0 -20 5 -16 34 2
23 0 32 -8 29 -7 -2 -15 0 -19 6 -3 6 1 11 9 11 8 0 20 9 25 19 6 10 24 24 41
29 16 6 30 18 30 26 0 9 3 16 6 16 4 0 4 -9 1 -20z m-952 -10 c3 -5 1 -10 -4
-10 -6 0 -11 5 -11 10 0 6 2 10 4 10 3 0 8 -4 11 -10z m-97 -13 c6 -7 7 -18 3
-26 -9 -13 -13 -9 -24 22 -7 20 6 23 21 4z m157 -7 c3 -5 -1 -10 -10 -10 -9 0
-13 5 -10 10 3 6 8 10 10 10 2 0 7 -4 10 -10z m-400 -20 c-2 -30 -9 -31 -22
-4 -9 21 -9 24 6 24 11 0 17 -7 16 -20z m-75 -14 c0 -3 -4 -8 -10 -11 -5 -3
-10 -1 -10 4 0 6 5 11 10 11 6 0 10 -2 10 -4z m-29 -63 c-12 -20 -14 -14 -5
12 4 9 9 14 11 11 3 -2 0 -13 -6 -23z m1143 11 c3 -8 2 -12 -4 -9 -6 3 -10 10
-10 16 0 14 7 11 14 -7z m91 -43 c-3 -11 -11 -21 -17 -21 -6 0 -8 3 -5 7 4 3
-2 12 -13 20 -19 14 -29 40 -11 28 5 -3 13 0 16 6 12 19 38 -16 30 -40z m-775
-5 c0 -3 -4 -8 -10 -11 -5 -3 -10 -1 -10 4 0 6 5 11 10 11 6 0 10 -2 10 -4z
m668 -2 c13 -4 22 -14 22 -25 0 -21 -25 -26 -34 -6 -4 8 -5 7 -5 -3 3 -36 -1
-41 -20 -30 -27 14 -34 13 -28 -4 4 -9 -2 -17 -14 -21 -10 -4 -19 -14 -20 -23
0 -11 -3 -12 -6 -4 -2 6 -11 12 -19 12 -9 0 -13 -4 -10 -9 3 -5 0 -14 -8 -20
-10 -8 -16 -8 -25 2 -8 11 -5 19 14 35 27 23 31 37 15 47 -5 3 -10 11 -10 17
0 7 9 2 21 -10 11 -12 17 -26 14 -31 -3 -5 -1 -12 4 -15 5 -4 13 3 16 15 4 11
20 26 37 33 28 12 29 14 13 29 -15 16 -15 17 2 17 10 0 28 -3 41 -6z m237 -4
c3 -5 1 -10 -4 -10 -6 0 -11 5 -11 10 0 6 2 10 4 10 3 0 8 -4 11 -10z m312
-82 c-3 -8 -6 -5 -6 6 -1 11 2 17 5 13 3 -3 4 -12 1 -19z m-1457 -28 c0 -5 -5
-10 -11 -10 -5 0 -7 5 -4 10 3 6 8 10 11 10 2 0 4 -4 4 -10z m301 -53 c-16
-16 -25 -1 -10 16 8 8 16 11 18 5 2 -5 -2 -15 -8 -21z m419 7 c0 -2 -7 -4 -15
-4 -8 0 -15 4 -15 10 0 5 7 7 15 4 8 -4 15 -8 15 -10z m-40 -4 c0 -5 -13 -16
-30 -25 -17 -9 -30 -11 -30 -5 0 5 -1 13 -2 17 -2 4 11 11 27 14 17 4 31 7 33
8 1 0 2 -3 2 -9z m-820 -20 c0 -5 -2 -10 -4 -10 -3 0 -8 5 -11 10 -3 6 -1 10
4 10 6 0 11 -4 11 -10z m1290 -51 c-14 -26 -18 -24 -12 6 2 14 8 22 13 19 5
-3 5 -14 -1 -25z m-720 17 c0 -11 -19 -15 -25 -6 -3 5 1 10 9 10 9 0 16 -2 16
-4z m110 -9 c0 -2 -9 -12 -20 -22 -19 -17 -20 -17 -20 -1 0 9 4 15 9 11 5 -3
12 -1 16 5 6 10 15 14 15 7z m-367 -87 c3 -11 1 -18 -4 -14 -5 3 -9 12 -9 20
0 20 7 17 13 -6z m91 -35 c-7 -16 -24 -21 -24 -6 0 8 7 13 27 20 1 1 0 -6 -3
-14z m-81 -22 c-7 -2 -19 -2 -25 0 -7 3 -2 5 12 5 14 0 19 -2 13 -5z m-53 -25
c0 -4 -4 -8 -9 -8 -6 0 -12 4 -15 8 -3 5 1 9 9 9 8 0 15 -4 15 -9z m-608 -40
c-7 -7 -12 -8 -12 -2 0 14 12 26 19 19 2 -3 -1 -11 -7 -17z m1673 -46 c6 -4
16 -15 24 -25 13 -17 12 -18 -12 -12 -19 5 -27 3 -27 -6 0 -7 -7 -3 -16 9 -22
32 1 57 31 34z m-40 -42 c3 -5 1 -10 -4 -10 -6 0 -11 -4 -11 -10 0 -5 7 -6 17
-3 10 4 14 2 10 -4 -4 -6 -1 -14 5 -17 7 -4 -2 -4 -21 -1 -34 5 -107 -26 -124
-52 -4 -7 -15 -13 -22 -13 -8 0 -15 -7 -15 -16 0 -8 -5 -12 -10 -9 -6 4 -18 1
-27 -6 -13 -11 -18 -10 -34 10 -20 25 -16 49 5 32 7 -6 16 -8 20 -4 4 4 21 8
37 9 17 1 40 11 53 23 12 11 28 21 34 21 7 0 12 9 12 20 0 18 3 19 21 10 17
-10 21 -8 26 9 6 23 18 27 28 11z m-1215 -40 c0 -5 -5 -10 -11 -10 -5 0 -7 5
-4 10 3 6 8 10 11 10 2 0 4 -4 4 -10z m50 -10 c-7 -4 -9 -13 -6 -19 4 -6 1
-11 -6 -11 -10 0 -9 -3 2 -10 8 -5 11 -12 8 -16 -4 -3 -14 1 -23 10 -9 9 -12
16 -6 16 6 0 11 8 11 18 0 23 10 33 22 25 6 -3 5 -9 -2 -13z m754 -8 c3 -5 -1
-9 -9 -9 -8 0 -12 4 -9 9 3 4 7 8 9 8 2 0 6 -4 9 -8z m-624 -122 c23 12 64 -2
79 -27 7 -12 13 -14 18 -7 15 22 50 26 57 7 8 -21 -18 -44 -42 -36 -14 4 -15
3 -2 -6 8 -5 11 -14 6 -18 -4 -4 -14 1 -22 11 -11 16 -14 17 -19 4 -4 -10 -15
-13 -31 -10 -19 3 -23 1 -18 -12 3 -9 1 -16 -5 -16 -6 0 -11 5 -11 11 0 6 -7
3 -16 -5 -8 -9 -20 -16 -25 -16 -6 0 -7 -5 -4 -10 8 -12 -5 -17 -70 -25 -48
-6 -49 -6 -27 10 12 9 28 13 35 9 6 -4 4 2 -7 14 -17 19 -17 22 -3 28 12 4 15
16 13 44 -4 50 5 64 37 56 22 -5 25 -3 21 17 -3 16 -1 15 7 -5 9 -23 14 -26
29 -18z m84 4 c3 -8 2 -12 -4 -9 -6 3 -10 10 -10 16 0 14 7 11 14 -7z m881 7
c3 -5 1 -12 -4 -15 -5 -3 -11 1 -15 9 -6 16 9 21 19 6z m395 -21 c0 -13 -7
-20 -20 -20 -22 0 -28 25 -7 33 22 10 27 7 27 -13z m-675 -11 c-3 -4 -12 -6
-20 -3 -8 4 -13 10 -10 15 3 4 12 6 20 3 8 -4 13 -10 10 -15z m-1219 -11 c-3
-13 -5 -25 -5 -27 -2 -7 -31 21 -31 29 0 5 8 11 18 13 9 3 18 5 19 6 2 0 1 -9
-1 -21z m426 0 c-9 -9 -15 -9 -24 0 -9 9 -7 12 12 12 19 0 21 -3 12 -12z m718
-24 c0 -2 -7 -4 -15 -4 -8 0 -15 4 -15 10 0 5 7 7 15 4 8 -4 15 -8 15 -10z
m-1169 -36 c-6 -13 -9 -15 -7 -5 3 9 1 17 -4 17 -5 0 -7 7 -3 16 4 10 9 12 16
5 7 -7 7 -17 -2 -33z m409 21 c0 -6 -4 -7 -10 -4 -5 3 -10 11 -10 16 0 6 5 7
10 4 6 -3 10 -11 10 -16z m-67 -26 c-7 -2 -19 -2 -25 0 -7 3 -2 5 12 5 14 0
19 -2 13 -5z m613 -15 c14 -17 15 -20 2 -9 -9 7 -21 10 -26 7 -5 -3 -9 1 -9 9
0 21 11 19 33 -7z m399 12 c-3 -5 -10 -10 -16 -10 -5 0 -9 5 -9 10 0 6 7 10
16 10 8 0 12 -4 9 -10z m-1085 -49 c14 -27 0 -64 -20 -50 -12 8 -12 12 -2 16
10 4 9 8 -5 19 -16 12 -16 15 -3 24 19 13 18 13 30 -9z m300 -11 c0 -5 -9 -10
-20 -10 -11 0 -20 5 -20 10 0 6 9 10 20 10 11 0 20 -4 20 -10z m-108 -42 c-7
-7 -12 -8 -12 -2 0 14 12 26 19 19 2 -3 -1 -11 -7 -17z m775 -14 c8 -17 9 -33
3 -43 -7 -14 -9 -14 -13 -1 -21 65 -14 95 10 44z m-50 9 c-4 -3 -2 -12 5 -20
8 -11 7 -12 -6 -7 -18 7 -22 34 -4 34 6 0 8 -3 5 -7z m-893 -47 c-3 -9 -10
-13 -15 -10 -5 3 -9 -1 -9 -9 0 -10 -7 -13 -20 -10 -20 5 -20 6 -3 23 18 16
45 30 51 25 1 -1 0 -10 -4 -19z m1676 -60 c-11 -29 -22 -29 -26 -1 -1 8 2 15
8 15 5 0 8 8 6 18 -1 9 2 24 7 32 15 22 19 -29 5 -64z m-1520 19 c0 -5 -5 -3
-10 5 -5 8 -10 20 -10 25 0 6 5 3 10 -5 5 -8 10 -19 10 -25z m43 15 c17 0 17
-1 2 -16 -18 -18 -18 -19 -35 16 -10 21 -10 23 1 13 7 -7 21 -13 32 -13z m177
-6 c0 -8 -4 -12 -10 -9 -5 3 -10 13 -10 21 0 8 5 12 10 9 6 -3 10 -13 10 -21z
m-70 -34 c0 -11 -2 -20 -4 -20 -2 0 -6 9 -9 20 -3 11 -1 20 4 20 5 0 9 -9 9
-20z m924 5 c-4 -8 -8 -15 -10 -15 -2 0 -4 7 -4 15 0 8 4 15 10 15 5 0 7 -7 4
-15z m-1489 -15 c3 -5 2 -10 -4 -10 -5 0 -13 5 -16 10 -3 6 -2 10 4 10 5 0 13
-4 16 -10z m436 -17 c-12 -20 -14 -14 -5 12 4 9 9 14 11 11 3 -2 0 -13 -6 -23z
m89 17 c0 -5 -2 -10 -4 -10 -3 0 -8 5 -11 10 -3 6 -1 10 4 10 6 0 11 -4 11
-10z m-124 -25 c-10 -8 -15 -18 -12 -24 4 -5 -3 -15 -14 -21 -18 -10 -19 -9
-9 17 10 30 39 57 48 47 3 -3 -2 -12 -13 -19z m-403 -37 c16 -12 16 -14 -1
-24 -15 -10 -20 -7 -29 12 -13 28 1 33 30 12z m1933 -44 c-3 -8 -11 -14 -18
-14 -10 0 -10 2 1 9 7 5 10 14 6 20 -5 9 -10 9 -21 0 -12 -10 -13 -9 -8 5 4
10 13 15 20 12 8 -3 15 2 15 12 1 10 3 8 6 -6 3 -13 2 -30 -1 -38z m-1612 -4
c-6 -5 -24 21 -24 34 0 6 6 1 14 -10 8 -10 12 -21 10 -24z m1043 19 c-14 -8
-22 -8 -30 0 -8 8 -3 11 19 11 25 -1 27 -2 11 -11z m-933 -24 c-7 -17 -20 -20
-28 -6 -7 10 3 21 20 21 8 0 11 -6 8 -15z m316 -2 c0 -16 -16 -28 -37 -29 -26
-1 -28 2 -10 21 13 15 47 20 47 8z m-287 -28 c-3 -9 -8 -14 -10 -11 -3 3 -2 9
2 15 9 16 15 13 8 -4z m1517 -151 c0 -2 -12 -4 -27 -4 -21 0 -24 3 -14 9 13 8
41 5 41 -5z m-113 -16 c-3 -8 -6 -5 -6 6 -1 11 2 17 5 13 3 -3 4 -12 1 -19z
m-297 -13 c0 -14 -8 -29 -19 -35 -34 -18 -38 -11 -21 34 12 34 40 34 40 1z
m-96 -2 c12 -10 21 -24 20 -30 -1 -7 -2 -17 -3 -23 0 -5 -8 -10 -16 -10 -9 0
-12 -6 -9 -17 5 -15 4 -15 -6 1 -10 14 -14 16 -21 5 -6 -11 -12 -11 -33 1 -24
12 -28 11 -40 -6 -14 -18 -14 -18 -12 7 2 14 6 31 10 37 9 15 -18 16 -44 2
-13 -7 -21 -6 -30 5 -11 13 -8 15 19 16 42 2 48 3 56 10 9 10 45 -1 45 -13 0
-6 7 -5 15 2 13 11 14 10 9 -6 -4 -10 -11 -24 -16 -31 -17 -22 8 -21 35 2 29
25 35 40 15 33 -7 -3 -21 4 -30 14 -16 16 -16 18 -2 18 9 0 26 -8 38 -17z
m486 -34 c0 -5 -4 -9 -10 -9 -5 0 -10 7 -10 16 0 8 5 12 10 9 6 -3 10 -10 10
-16z m-1937 -19 c-10 -11 -18 -20 -18 -20 0 0 -1 9 -2 20 -1 14 4 20 18 20 18
0 18 -1 2 -20z m1257 10 c8 -5 11 -10 5 -10 -5 0 -17 5 -25 10 -8 5 -10 10 -5
10 6 0 17 -5 25 -10z m370 -10 c0 -5 -8 -10 -17 -10 -15 0 -16 2 -3 10 19 12
20 12 20 0z m280 -17 c0 -10 -4 -14 -8 -8 -4 6 -11 13 -16 18 -5 4 -2 7 7 7
10 0 17 -8 17 -17z m50 -8 c11 -13 10 -14 -4 -9 -9 3 -16 10 -16 15 0 13 6 11
20 -6z m-1910 -16 c0 -11 -4 -17 -10 -14 -5 3 -10 13 -10 21 0 8 5 14 10 14 6
0 10 -9 10 -21z m1224 6 c17 -13 18 -15 3 -15 -9 0 -17 4 -17 9 0 5 -8 12 -17
14 -13 3 -14 5 -3 6 8 0 24 -6 34 -14z m-29 -55 c-3 -5 -10 -10 -16 -10 -5 0
-9 5 -9 10 0 6 7 10 16 10 8 0 12 -4 9 -10z m-222 -41 c-5 -3 -27 -17 -51 -29
-35 -20 -44 -22 -55 -10 -7 7 -7 10 -1 7 6 -4 24 5 38 18 15 14 31 25 37 25 5
0 9 8 9 18 1 15 2 15 15 -2 8 -11 12 -23 8 -27z m-1143 7 c0 -11 -19 -15 -25
-6 -3 5 1 10 9 10 9 0 16 -2 16 -4z m1305 -46 c-3 -5 -11 -10 -16 -10 -6 0 -7
5 -4 10 3 6 11 10 16 10 6 0 7 -4 4 -10z m-1278 -22 c-3 -8 -6 -5 -6 6 -1 11
2 17 5 13 3 -3 4 -12 1 -19z m323 -50 c0 -6 -6 -5 -15 2 -8 7 -15 14 -15 16 0
2 7 1 15 -2 8 -4 15 -11 15 -16z m1406 6 c-3 -9 -6 -20 -6 -25 0 -5 -4 -9 -9
-9 -14 0 -20 38 -7 44 21 9 28 6 22 -10z m-956 -19 c-7 -9 -15 -13 -17 -11 -7
7 7 26 19 26 6 0 6 -6 -2 -15z m-50 -12 c0 -10 -4 -14 -8 -8 -4 6 -11 13 -16
18 -5 4 -2 7 7 7 10 0 17 -8 17 -17z m805 -3 c3 -5 -3 -10 -15 -10 -12 0 -18
5 -15 10 3 6 10 10 15 10 5 0 12 -4 15 -10z m-727 -12 c21 -21 14 -40 -8 -21
-21 18 -26 33 -12 33 4 0 13 -5 20 -12z m622 2 c0 -5 -4 -10 -10 -10 -5 0 -10
5 -10 10 0 6 5 10 10 10 6 0 10 -4 10 -10z m62 -7 c23 -21 23 -29 -2 -36 -11
-3 -20 -1 -20 4 0 5 -7 9 -15 9 -15 0 -21 21 -8 33 11 11 25 8 45 -10z m-1342
-3 c0 -5 -2 -10 -4 -10 -3 0 -8 5 -11 10 -3 6 -1 10 4 10 6 0 11 -4 11 -10z
m-55 -30 c-3 -5 -14 -10 -23 -9 -14 0 -13 2 3 9 27 11 27 11 20 0z m2002 4
c-3 -3 -12 -4 -19 -1 -8 3 -5 6 6 6 11 1 17 -2 13 -5z m-667 -34 c0 -5 -4 -10
-9 -10 -6 0 -13 5 -16 10 -3 6 1 10 9 10 9 0 16 -4 16 -10z m-130 -11 c0 -5 5
-7 10 -4 6 3 10 1 10 -4 0 -17 -27 -13 -34 4 -3 8 -1 15 4 15 6 0 10 -5 10
-11z m-1230 -9 c0 -5 -7 -10 -16 -10 -8 0 -12 5 -9 10 3 6 10 10 16 10 5 0 9
-4 9 -10z m1985 1 c3 -5 1 -12 -5 -16 -5 -3 -10 -1 -10 6 0 7 -9 3 -20 -9 -25
-26 -49 -30 -29 -4 26 32 52 42 64 23z m-813 -23 c-7 -7 -12 -8 -12 -2 0 14
12 26 19 19 2 -3 -1 -11 -7 -17z m22 -22 c-10 -8 -21 -12 -23 -10 -3 2 4 11
15 18 10 8 21 12 23 10 3 -2 -4 -11 -15 -18z m-1204 10 c0 -2 -7 -7 -16 -10
-8 -3 -12 -2 -9 4 6 10 25 14 25 6z m1150 -30 c0 -3 -4 -8 -10 -11 -5 -3 -10
-1 -10 4 0 6 5 11 10 11 6 0 10 -2 10 -4z m-1056 -41 c3 -9 0 -15 -9 -15 -9 0
-12 6 -9 15 4 8 7 15 9 15 2 0 5 -7 9 -15z m291 6 c3 -5 1 -12 -4 -15 -5 -3
-11 1 -15 9 -6 16 9 21 19 6z m604 -30 c-13 -10 -30 -16 -38 -13 -11 4 -7 9
14 18 43 19 51 17 24 -5z m51 -11 c0 -5 -10 -10 -22 -9 -22 0 -22 1 -3 9 11 5
21 9 23 9 1 1 2 -3 2 -9z m-154 -47 c-10 -10 -19 5 -10 18 6 11 8 11 12 0 2
-7 1 -15 -2 -18z m49 -3 c-3 -5 -12 -10 -18 -10 -7 0 -6 4 3 10 19 12 23 12
15 0z m-61 -19 c3 -5 -1 -11 -9 -14 -9 -4 -12 -1 -8 9 6 16 10 17 17 5z m549
-6 c8 -8 17 -11 21 -8 3 4 6 1 6 -5 0 -19 -24 -14 -43 8 -19 23 -6 27 16 5z
m-1244 -55 c-8 -22 -17 -30 -35 -30 -13 0 -24 5 -24 10 0 10 14 14 39 10 8 -1
12 4 8 13 -6 15 0 27 14 27 4 0 3 -13 -2 -30z m170 14 c15 10 13 -5 -4 -28
-16 -20 -35 -14 -35 13 0 23 12 34 21 20 4 -6 12 -8 18 -5z m381 2 c0 -3 -4
-8 -10 -11 -5 -3 -10 -1 -10 4 0 6 5 11 10 11 6 0 10 -2 10 -4z m-465 -35 c-3
-6 -11 -8 -17 -5 -6 4 -5 9 3 15 16 10 23 4 14 -10z m1745 -95 c0 -2 -7 -7
-16 -10 -8 -3 -12 -2 -9 4 6 10 25 14 25 6z m-6 -47 c-29 -12 -36 -10 -22 5 7
7 19 11 27 8 11 -4 10 -7 -5 -13z m-1594 0 c0 -7 7 -8 18 -4 34 14 51 13 56
-1 4 -10 13 -13 27 -9 14 5 25 1 33 -11 9 -11 15 -13 20 -6 4 6 14 8 23 5 11
-4 14 -3 9 5 -4 7 -2 12 3 12 20 0 26 2 37 11 12 10 13 -19 0 -39 -4 -7 -5
-20 -2 -29 6 -14 8 -14 22 3 9 10 13 13 9 7 -3 -7 -1 -13 5 -13 7 0 10 -7 6
-15 -3 -9 0 -15 8 -15 8 0 17 -6 19 -12 4 -10 8 -10 15 0 7 11 10 10 16 -3 3
-9 4 -21 1 -25 -8 -12 -100 -32 -147 -31 -16 0 -28 -4 -28 -9 0 -6 -4 -10 -10
-10 -5 0 -10 7 -10 15 0 11 -5 12 -26 5 -14 -6 -30 -8 -35 -4 -5 3 -9 0 -9 -6
0 -7 -15 -11 -37 -9 -21 1 -45 -1 -53 -5 -24 -10 -55 -12 -57 -3 -2 4 -8 13
-15 21 -10 11 -15 11 -26 -1 -7 -7 -19 -13 -25 -13 -7 0 -4 7 6 14 9 7 17 16
17 20 0 13 29 37 42 35 24 -3 38 1 38 11 0 6 -8 10 -17 10 -17 1 -17 1 0 11
11 6 26 12 35 14 21 3 17 25 -9 43 -16 11 -17 17 -8 28 14 17 49 19 49 3z
m277 4 c-4 -3 -2 -12 4 -19 7 -8 6 -14 -2 -19 -16 -10 -30 16 -17 32 6 7 13
13 16 13 3 0 2 -3 -1 -7z m1403 -7 c0 -11 -19 -15 -25 -6 -3 5 1 10 9 10 9 0
16 -2 16 -4z m-1790 -28 c0 -5 -9 -4 -20 2 -11 6 -20 12 -20 14 0 2 9 2 20 -1
11 -3 20 -9 20 -15z m1680 -18 c0 -13 -5 -18 -15 -14 -12 5 -13 10 -4 20 15
19 19 18 19 -6z m-328 -7 c0 -10 2 -23 2 -30 1 -6 5 -15 9 -19 4 -4 7 -18 7
-31 0 -21 -4 -23 -55 -23 -36 0 -55 4 -55 12 0 9 -3 9 -12 0 -27 -27 -71 -5
-48 23 9 10 8 19 -1 37 -8 17 -9 20 0 12 14 -13 64 -6 55 7 -3 5 5 9 18 9 13
0 30 5 38 10 23 15 40 12 42 -7z m358 -74 c0 -14 -17 -10 -23 5 -4 10 -1 13 9
9 7 -3 14 -9 14 -14z m-1748 -31 c-6 -6 -19 -7 -29 -3 -17 7 -17 8 2 15 24 9
41 2 27 -12z m1562 8 c-3 -9 -12 -12 -22 -9 -15 6 -9 11 25 22 1 1 0 -5 -3
-13z m175 -37 c-25 -16 -32 -9 -13 12 12 13 20 16 22 9 3 -7 -2 -16 -9 -21z
m-749 -149 c0 -5 -4 -10 -10 -10 -5 0 -10 5 -10 10 0 6 5 10 10 10 6 0 10 -4
10 -10z m-524 -25 c-7 -18 10 -20 18 -2 5 9 7 9 12 -2 5 -11 8 -11 14 0 7 10
11 10 24 0 11 -10 20 -10 37 -1 18 10 24 9 31 -4 7 -13 23 -16 74 -14 39 1 68
-2 76 -10 15 -15 58 -16 58 0 0 6 9 1 20 -12 17 -19 20 -20 20 -6 0 29 23 41
73 40 26 -1 49 2 52 6 7 12 45 0 45 -15 0 -18 103 -27 113 -9 4 7 15 10 24 7
11 -4 14 -3 9 5 -4 7 -3 12 2 12 5 0 12 -10 15 -22 5 -18 8 -19 21 -8 9 7 16
9 17 4 0 -5 4 0 8 10 9 23 51 30 51 9 0 -22 32 -51 38 -35 3 10 10 9 29 -3 16
-11 40 -16 68 -13 42 3 44 2 54 -32 5 -19 13 -59 16 -89 3 -30 8 -66 11 -80 5
-22 1 -28 -25 -38 -17 -6 -31 -8 -31 -4 0 4 -17 7 -37 8 -47 1 -82 7 -106 18
-13 5 -22 2 -34 -14 -12 -18 -18 -20 -29 -10 -11 9 -11 15 -3 25 8 10 5 15
-18 20 -15 4 -37 13 -48 20 -19 12 -161 40 -179 36 -4 -2 -14 3 -22 9 -10 8
-18 8 -27 1 -7 -6 -18 -7 -26 -2 -8 4 -20 6 -28 3 -7 -3 -13 2 -13 11 0 10 -9
16 -24 16 -13 0 -29 7 -36 15 -9 11 -22 14 -42 10 -15 -4 -28 -2 -28 3 0 14
-50 22 -50 8 0 -6 -6 -4 -13 5 -18 23 -94 45 -144 40 -7 -1 -13 -10 -13 -21 0
-24 -6 -25 -26 -6 -8 8 -11 22 -7 31 5 14 2 16 -16 10 -15 -4 -21 -3 -19 6 2
7 -14 16 -37 21 -22 4 -47 11 -55 15 -8 3 -18 6 -22 5 -3 -1 -12 5 -18 13 -14
17 -9 18 43 6 23 -6 37 -5 37 1 0 5 8 7 18 4 9 -3 24 -1 32 4 21 13 23 12 16
-5z m314 -15 c0 -5 -4 -10 -10 -10 -5 0 -10 5 -10 10 0 6 5 10 10 10 6 0 10
-4 10 -10z m920 -40 c-15 -12 -19 -19 -11 -24 13 -9 5 -26 -12 -26 -7 0 -6 4
3 10 12 8 13 10 1 10 -16 0 -51 29 -51 42 0 4 7 8 15 8 9 0 12 -6 9 -15 -10
-26 23 -17 42 12 12 19 19 23 22 14 3 -8 -6 -22 -18 -31z m195 30 c3 -5 1 -10
-4 -10 -6 0 -11 5 -11 10 0 6 2 10 4 10 3 0 8 -4 11 -10z m-55 -10 c0 -5 -2
-10 -4 -10 -3 0 -8 5 -11 10 -3 6 -1 10 4 10 6 0 11 -4 11 -10z m-1416 -41
c-3 -5 0 -9 6 -9 6 0 8 -5 5 -10 -5 -8 -11 -8 -20 0 -7 6 -19 9 -26 7 -8 -2
-11 -2 -6 0 4 3 7 11 7 18 0 8 7 11 20 8 11 -3 17 -9 14 -14z m1331 -7 c-3 -8
-5 -22 -5 -33 0 -10 -4 -19 -9 -19 -5 0 -7 9 -4 20 4 14 -1 26 -13 35 -17 12
-17 13 9 12 18 -1 26 -6 22 -15z m-1208 -24 c-3 -8 -6 -5 -6 6 -1 11 2 17 5
13 3 -3 4 -12 1 -19z m1138 -28 c3 -5 1 -10 -4 -10 -6 0 -11 5 -11 10 0 6 2
10 4 10 3 0 8 -4 11 -10z m-1005 -44 c0 -3 -4 -8 -10 -11 -5 -3 -10 -1 -10 4
0 6 5 11 10 11 6 0 10 -2 10 -4z m400 -106 c0 -5 -5 -10 -11 -10 -5 0 -7 5 -4
10 3 6 8 10 11 10 2 0 4 -4 4 -10z"/>
<path d="M6233 10909 c-2 -23 3 -25 10 -4 4 8 3 16 -1 19 -4 3 -9 -4 -9 -15z"/>
<path d="M6056 10703 c-6 -14 -5 -15 5 -6 7 7 10 15 7 18 -3 3 -9 -2 -12 -12z"/>
<path d="M6020 10580 c0 -5 4 -10 9 -10 6 0 13 5 16 10 3 6 -1 10 -9 10 -9 0
-16 -4 -16 -10z"/>
<path d="M5990 10563 c0 -13 -6 -23 -14 -23 -8 0 -18 -4 -21 -10 -4 -6 5 -10
21 -10 15 0 24 3 21 7 -4 3 -3 11 3 17 5 7 5 17 0 26 -8 12 -10 10 -10 -7z"/>
<path d="M5570 9895 c-10 -12 -10 -15 4 -15 9 0 16 7 16 15 0 8 -2 15 -4 15
-2 0 -9 -7 -16 -15z"/>
<path d="M5510 9820 c6 -11 17 -20 25 -20 23 0 17 16 -10 28 -24 11 -25 10
-15 -8z"/>
<path d="M5193 9493 c20 -5 22 -14 5 -31 -9 -9 -8 -12 8 -12 21 0 44 17 44 33
0 5 -7 7 -15 4 -8 -4 -17 -2 -20 3 -4 6 -14 9 -23 9 -15 -1 -15 -2 1 -6z"/>
<path d="M5145 9390 c-3 -5 -1 -10 4 -10 6 0 11 5 11 10 0 6 -2 10 -4 10 -3 0
-8 -4 -11 -10z"/>
<path d="M4740 8870 c0 -5 5 -10 11 -10 5 0 7 5 4 10 -3 6 -8 10 -11 10 -2 0
-4 -4 -4 -10z"/>
<path d="M4797 8853 c-12 -12 -7 -22 8 -17 8 4 15 10 15 15 0 11 -14 12 -23 2z"/>
<path d="M6455 8660 c3 -5 10 -10 16 -10 5 0 9 5 9 10 0 6 -7 10 -16 10 -8 0
-12 -4 -9 -10z"/>
<path d="M5590 7701 c0 -5 5 -13 10 -16 6 -3 10 -2 10 4 0 5 -4 13 -10 16 -5
3 -10 2 -10 -4z"/>
<path d="M6632 5176 c7 -8 15 -12 17 -11 5 6 -10 25 -20 25 -5 0 -4 -6 3 -14z"/>
<path d="M6873 4885 c-8 -22 6 -33 17 -15 13 20 12 30 0 30 -6 0 -13 -7 -17
-15z"/>
<path d="M5740 2579 c0 -11 4 -18 10 -14 5 3 7 12 3 20 -7 21 -13 19 -13 -6z"/>
<path d="M6920 2529 c0 -5 5 -7 10 -4 6 3 10 8 10 11 0 2 -4 4 -10 4 -5 0 -10
-5 -10 -11z"/>
<path d="M6835 10870 c-3 -5 -2 -10 4 -10 5 0 13 5 16 10 3 6 2 10 -4 10 -5 0
-13 -4 -16 -10z"/>
<path d="M6900 10714 c0 -8 5 -12 10 -9 6 3 10 10 10 16 0 5 -4 9 -10 9 -5 0
-10 -7 -10 -16z"/>
<path d="M4385 9910 c-3 -5 1 -10 10 -10 9 0 13 5 10 10 -3 6 -8 10 -10 10 -2
0 -7 -4 -10 -10z"/>
<path d="M7255 6710 c3 -5 10 -10 16 -10 5 0 9 5 9 10 0 6 -7 10 -16 10 -8 0
-12 -4 -9 -10z"/>
<path d="M7240 5124 c0 -8 5 -12 10 -9 6 4 8 11 5 16 -9 14 -15 11 -15 -7z"/>
<path d="M8140 4525 c0 -9 5 -15 11 -13 6 2 11 8 11 13 0 5 -5 11 -11 13 -6 2
-11 -4 -11 -13z"/>
<path d="M9270 4081 c-11 -22 -14 -74 -3 -84 12 -13 32 28 33 66 0 40 -13 48
-30 18z"/>
<path d="M4384 2565 c-10 -24 6 -38 21 -18 7 10 11 21 9 25 -8 13 -24 9 -30
-7z"/>
<path d="M8040 2139 c0 -5 5 -7 10 -4 6 3 10 8 10 11 0 2 -4 4 -10 4 -5 0 -10
-5 -10 -11z"/>
<path d="M6335 1990 c-3 -5 1 -10 9 -10 8 0 18 5 21 10 3 6 -1 10 -9 10 -8 0
-18 -4 -21 -10z"/>
<path d="M7315 820 c3 -5 11 -10 16 -10 6 0 7 5 4 10 -3 6 -11 10 -16 10 -6 0
-7 -4 -4 -10z"/>
</g>
</svg>
