<?xml version="1.0"?><svg fill="#FFFFFF" xmlns="http://www.w3.org/2000/svg"  viewBox="0 0 30 30" width="30px" height="30px">    <path d="M 22.5 1 C 20.205167 1 18.188218 2.199104 17.03125 4 L 6 4 C 4.895 4 4 4.895 4 6 L 4 24 C 4 24.178 4.0312187 24.346719 4.0742188 24.511719 L 17.060547 11.525391 C 17.367993 12.158787 17.711699 12.761454 18.064453 13.349609 L 16.414062 15 L 25.925781 24.511719 C 25.968781 24.346719 26 24.178 26 24 L 26 14.929688 C 26.150262 14.677052 26.302642 14.42312 26.457031 14.169922 C 27.649031 12.214922 29 10 29 7.5 C 29 3.916 26.084 1 22.5 1 z M 22.5 3 C 24.985 3 27 5.015 27 7.5 C 27 8.7647357 26.495722 10.009796 25.849609 11.222656 C 25.576646 11.734614 25.286561 12.243492 24.984375 12.742188 C 24.961257 12.780333 24.939145 12.819363 24.916016 12.857422 C 24.893877 12.893856 24.87369 12.928489 24.851562 12.964844 C 24.590882 13.393047 24.335344 13.816123 24.09375 14.232422 C 23.876765 14.606669 23.666653 14.980298 23.490234 15.34375 C 23.374003 15.582967 23.271776 15.818618 23.181641 16.052734 C 23.157929 16.114385 23.138795 16.175045 23.117188 16.236328 C 23.052253 16.420336 22.998792 16.602619 22.955078 16.783203 C 22.938216 16.852949 22.921558 16.922969 22.908203 16.992188 C 22.862715 17.227531 22.830078 17.460441 22.830078 17.689453 C 22.830078 17.858453 22.668 17.984375 22.5 17.984375 C 22.332 17.984375 22.193359 17.835969 22.193359 17.667969 C 22.19329 17.461781 22.168866 17.250683 22.130859 17.039062 C 22.118148 16.968099 22.096625 16.895774 22.080078 16.824219 C 22.049675 16.693133 22.016874 16.562701 21.974609 16.429688 C 21.943274 16.330799 21.908348 16.230784 21.871094 16.130859 C 21.825088 16.007743 21.774779 15.884405 21.720703 15.759766 C 21.678434 15.662152 21.636509 15.563366 21.589844 15.464844 C 21.553909 15.389111 21.512887 15.312583 21.474609 15.236328 C 21.345622 14.978958 21.197053 14.714234 21.046875 14.451172 C 20.892536 14.181183 20.735915 13.908328 20.568359 13.632812 C 20.29458 13.182251 20.019032 12.723499 19.742188 12.259766 C 19.303046 11.524378 18.885931 10.777542 18.570312 10.015625 C 18.568957 10.012356 18.567759 10.009129 18.566406 10.005859 C 18.482236 9.8023533 18.406399 9.5975813 18.337891 9.3925781 C 18.337491 9.3913808 18.33829 9.3898692 18.337891 9.3886719 C 18.271812 9.1906392 18.212422 8.992261 18.164062 8.7929688 C 18.144311 8.7103752 18.131588 8.627719 18.115234 8.5449219 C 18.089106 8.4148671 18.061947 8.2848149 18.044922 8.1542969 C 18.017173 7.9370607 18 7.7184005 18 7.5 C 18 7.2215179 18.033594 6.9520026 18.082031 6.6875 C 18.09127 6.6380794 18.098504 6.5878776 18.109375 6.5390625 C 18.159022 6.3115827 18.229868 6.0921001 18.3125 5.8789062 C 18.348354 5.788272 18.386206 5.6989549 18.427734 5.6113281 C 18.498742 5.458596 18.580907 5.3127754 18.667969 5.1699219 C 18.757403 5.025741 18.854338 4.8868318 18.958984 4.7539062 C 18.993687 4.7092353 19.03008 4.6663527 19.066406 4.6230469 C 19.253102 4.4030754 19.459169 4.1994142 19.683594 4.0175781 C 19.690412 4.0120539 19.696275 4.0054865 19.703125 4 C 20.473102 3.3837673 21.437248 3 22.5 3 z M 10.082031 6 C 11.140031 6 12.103078 6.4034531 12.830078 7.0644531 L 11.681641 8.2128906 C 11.250641 7.8438906 10.692031 7.6191406 10.082031 7.6191406 C 8.7220313 7.6191406 7.6210938 8.7200781 7.6210938 10.080078 C 7.6210938 11.439078 8.7220313 12.542969 10.082031 12.542969 C 11.223031 12.542969 12.014688 11.866875 12.304688 10.921875 L 10.082031 10.921875 L 10.082031 9.3613281 L 13.929688 9.3671875 C 14.263687 10.958187 13.506031 14.160156 10.082031 14.160156 C 7.8270312 14.160156 6 12.334078 6 10.080078 C 6 7.8260781 7.8270312 6 10.082031 6 z M 22.5 6 A 1.5 1.5 0 0 0 21 7.5 A 1.5 1.5 0 0 0 22.5 9 A 1.5 1.5 0 0 0 24 7.5 A 1.5 1.5 0 0 0 22.5 6 z M 15 16.414062 L 5.4882812 25.925781 C 5.6532813 25.968781 5.822 26 6 26 L 24 26 C 24.178 26 24.346719 25.968781 24.511719 25.925781 L 15 16.414062 z"/></svg>