<?xml version="1.0" standalone="no"?>
<!DOCTYPE svg PUBLIC "-//W3C//DTD SVG 20010904//EN"
 "http://www.w3.org/TR/2001/REC-SVG-20010904/DTD/svg10.dtd">
<svg version="1.0" xmlns="http://www.w3.org/2000/svg"
 width="205.000000pt" height="190.000000pt" viewBox="0 0 205.000000 190.000000"
 preserveAspectRatio="xMidYMid meet">
<metadata>
Created by potrace 1.16, written by Peter Selinger 2001-2019
</metadata>
<g transform="translate(0.000000,190.000000) scale(0.100000,-0.100000)"
fill="#000000" stroke="none">
<path d="M0 950 l0 -950 1025 0 1025 0 0 950 0 950 -1025 0 -1025 0 0 -950z
m1251 664 c51 -49 60 -156 18 -216 -29 -40 -24 -57 24 -78 36 -16 39 -19 17
-20 -84 -6 -154 10 -192 43 -16 14 -28 27 -28 29 0 3 20 13 45 23 53 20 71 43
80 100 8 50 -18 101 -63 125 -41 22 -29 33 28 26 28 -4 54 -16 71 -32z m-610
-71 c1 -28 5 -51 24 -150 17 -95 16 -140 -4 -90 -10 26 -31 38 -31 16 0 -5 5
-7 10 -4 6 3 10 -1 10 -9 0 -9 -4 -16 -9 -16 -5 0 -9 -14 -9 -30 1 -17 -2 -33
-5 -37 -4 -3 -7 2 -7 11 0 11 -5 16 -13 13 -9 -3 -21 23 -40 92 -29 105 -34
165 -14 185 36 36 86 47 88 19z m-175 -201 c2 -102 21 -162 66 -209 18 -18 29
-36 25 -39 -4 -4 -28 -9 -55 -12 -44 -4 -51 -2 -70 23 -18 22 -22 41 -22 94 0
82 35 231 53 231 1 0 3 -39 3 -88z m194 -72 c0 -5 6 -7 13 -4 10 3 18 -23 31
-98 10 -57 25 -132 33 -168 8 -36 17 -74 19 -85 2 -11 6 -31 10 -45 5 -17 4
-22 -4 -15 -6 6 -12 17 -14 25 -2 8 -11 21 -20 28 -10 7 -18 18 -18 24 0 6 -6
16 -14 22 -16 13 -101 264 -92 273 3 3 8 -7 12 -23 7 -34 31 -70 41 -61 3 4
-2 13 -12 21 -17 12 -18 17 -6 54 8 22 10 45 7 51 -4 6 -2 11 3 11 6 0 11 -4
11 -10z m837 -20 c55 -32 108 -90 142 -157 23 -47 27 -87 10 -130 -31 -82
-110 -109 -353 -123 -94 -6 -187 -13 -206 -17 -31 -5 -33 -4 -22 9 19 24 112
65 255 114 153 52 182 67 203 99 21 32 11 62 -51 155 -62 94 -61 97 22 50z
m-604 -132 c-2 -109 4 -138 31 -138 6 0 3 7 -6 14 -10 7 -18 22 -18 32 1 18 1
18 12 -1 27 -48 61 -46 118 6 85 78 177 133 293 175 l37 13 -16 -31 c-9 -18
-62 -79 -118 -136 -131 -134 -232 -189 -275 -149 -11 10 -13 10 -7 0 9 -16 6
-16 -37 2 -41 17 -47 28 -36 75 16 67 11 138 -11 160 -11 11 -20 25 -20 30 0
15 20 12 20 -2 0 -7 5 -5 11 5 11 18 5 37 -13 37 -6 0 -5 -7 3 -17 11 -15 11
-16 -1 -5 -16 14 -34 16 -25 3 3 -5 1 -12 -5 -16 -21 -13 -9 24 12 39 49 34
53 25 51 -96z m-690 -505 c139 -170 137 -169 146 -155 4 7 18 59 30 115 33
144 36 152 56 156 14 2 17 -1 11 -20 -4 -13 -25 -95 -48 -182 -23 -87 -45
-156 -49 -155 -4 2 -29 30 -56 63 -78 98 -178 214 -181 210 -6 -6 -50 -178
-57 -223 -6 -40 -27 -63 -42 -49 -3 4 11 66 31 139 20 73 41 152 47 176 7 23
13 42 14 42 2 0 46 -53 98 -117z m763 32 c-7 -34 -6 -35 24 -35 16 0 30 -4 30
-10 0 -5 -16 -10 -35 -10 -37 0 -38 -1 -65 -124 -13 -59 -3 -76 49 -76 27 0
32 -3 21 -10 -20 -13 -76 -13 -101 0 -24 13 -24 44 0 138 19 71 19 72 0 72
-10 0 -19 5 -19 10 0 6 9 10 20 10 13 0 22 9 26 25 6 24 28 44 48 45 4 0 5
-16 2 -35z m-199 -60 c32 -32 35 -40 30 -75 -11 -83 -84 -140 -179 -140 -71 0
-115 26 -124 74 -8 47 0 78 33 117 36 42 76 58 147 59 53 0 61 -3 93 -35z
m501 19 c26 -18 28 -51 7 -120 -20 -66 -19 -85 6 -91 16 -4 17 -8 7 -14 -20
-13 -45 -11 -62 7 -14 14 -18 14 -38 0 -33 -23 -103 -21 -129 5 -45 45 -3 91
105 113 66 14 86 26 86 53 0 38 -77 57 -116 28 -22 -17 -34 -19 -34 -5 0 34
127 53 168 24z m733 -14 c24 -23 30 -37 27 -62 l-3 -33 -105 0 -105 0 -3 -32
c-5 -51 27 -76 91 -71 29 3 60 8 70 12 10 5 17 4 17 -2 0 -19 -60 -34 -121
-30 -80 6 -109 34 -109 107 0 83 65 141 158 141 46 0 58 -4 83 -30z m-777
-420 c8 -9 5 -16 -13 -31 -29 -24 -109 -25 -230 -4 -76 14 -111 24 -85 26 5 0
52 6 104 14 104 15 206 13 224 -5z"/>
<path d="M585 567 c-85 -85 -41 -206 64 -177 46 12 76 46 91 102 20 70 -7 108
-77 108 -38 0 -50 -5 -78 -33z"/>
</g>
</svg>
