<?xml version="1.0" standalone="no"?>
<!DOCTYPE svg PUBLIC "-//W3C//DTD SVG 20010904//EN"
 "http://www.w3.org/TR/2001/REC-SVG-20010904/DTD/svg10.dtd">
<svg version="1.0" xmlns="http://www.w3.org/2000/svg"
 width="1023.000000pt" height="948.000000pt" viewBox="0 0 1023.000000 948.000000"
 preserveAspectRatio="xMidYMid meet">
<metadata>
Created by potrace 1.16, written by Peter Selinger 2001-2019
</metadata>
<g transform="translate(0.000000,948.000000) scale(0.100000,-0.100000)"
fill="#000000" stroke="none">
<path d="M0 4740 l0 -4740 5115 0 5115 0 0 4740 0 4740 -5115 0 -5115 0 0
-4740z m5757 4675 c34 -20 63 -42 63 -49 0 -8 7 -16 15 -19 8 -4 21 -22 29
-42 8 -19 20 -35 25 -35 6 0 11 -11 11 -23 0 -13 9 -34 20 -47 16 -18 19 -32
14 -59 -7 -43 -31 -66 -51 -50 -7 6 -13 17 -13 25 0 14 -35 28 -49 20 -13 -9
-3 -39 25 -71 13 -15 24 -34 24 -41 0 -7 5 -16 10 -19 16 -10 40 14 40 40 0
21 17 35 41 35 5 0 9 -17 9 -39 0 -21 10 -60 22 -87 19 -42 22 -69 24 -191 2
-142 2 -143 -23 -163 -32 -25 -60 -25 -98 0 -16 11 -38 20 -47 20 -10 0 -18 4
-18 9 0 5 -17 12 -37 16 -52 9 -110 49 -128 88 -9 17 -22 43 -30 57 -15 25
-12 76 6 94 14 16 11 39 -5 33 -22 -9 -10 245 14 293 11 24 17 63 18 119 2 83
8 121 19 121 3 0 35 -16 70 -35z m-3146 -207 c10 -13 18 -28 19 -34 0 -6 11
-32 25 -58 14 -26 25 -56 25 -67 0 -11 9 -37 20 -59 11 -22 20 -46 20 -54 0
-8 6 -21 13 -28 8 -7 16 -30 20 -51 3 -20 13 -44 21 -53 9 -8 16 -29 16 -45 0
-17 9 -49 19 -72 10 -23 22 -67 26 -97 4 -30 11 -59 15 -65 4 -5 13 -37 20
-70 6 -33 16 -68 21 -77 5 -10 9 -29 9 -42 0 -37 -56 -138 -105 -190 -38 -39
-50 -46 -82 -46 -44 0 -68 17 -117 80 -23 29 -32 48 -26 55 6 8 0 19 -20 34
-17 12 -30 30 -30 40 0 10 -9 26 -20 36 -11 10 -20 30 -20 44 0 14 -7 40 -16
56 -13 24 -17 70 -20 227 -3 183 -2 198 16 221 14 17 20 41 20 74 0 26 7 57
15 67 8 11 15 26 15 34 0 8 10 31 22 51 12 19 24 44 25 54 4 22 21 57 29 57 3
0 14 -10 25 -22z m2023 -544 c9 -3 16 -12 16 -20 0 -10 14 -14 48 -14 36 0 54
-5 66 -19 10 -11 32 -21 50 -23 17 -2 30 -7 28 -13 -1 -5 23 -13 54 -16 31 -4
59 -11 63 -16 6 -10 40 -29 98 -57 18 -8 38 -28 45 -43 7 -15 20 -39 30 -52
13 -18 17 -33 12 -58 -5 -27 -2 -38 14 -54 26 -23 18 -51 -12 -47 -11 2 -24 7
-27 11 -3 4 -26 3 -50 -2 -43 -10 -45 -10 -76 24 -18 21 -34 31 -38 25 -3 -6
7 -22 24 -36 30 -25 42 -64 21 -64 -6 0 -20 11 -31 24 -21 24 -75 53 -84 45
-6 -7 84 -99 97 -99 6 0 20 8 30 17 14 13 38 18 89 18 61 1 69 -1 69 -17 0
-35 -20 -57 -60 -69 -31 -10 -43 -10 -52 -1 -9 9 -6 12 15 12 22 0 27 5 27 25
0 32 -10 32 -44 0 -23 -21 -33 -24 -66 -19 -22 4 -45 13 -51 20 -6 8 -18 14
-26 14 -7 0 -16 7 -19 15 -3 8 -14 17 -23 20 -10 3 -38 23 -62 45 -24 22 -47
40 -51 40 -5 0 -8 5 -8 11 0 6 -9 23 -21 37 -12 16 -16 28 -10 30 6 2 9 8 6
12 -3 5 -11 7 -19 4 -21 -8 -96 110 -96 152 0 27 -5 37 -19 41 -14 4 -20 16
-23 50 -2 24 -1 46 1 49 6 6 47 5 65 -2z m2237 -203 c20 -17 22 -22 11 -38 -6
-10 -18 -29 -24 -43 -17 -36 -105 -140 -118 -140 -3 0 -6 13 -6 30 1 16 -2 30
-6 30 -39 1 -48 -2 -48 -14 0 -8 13 -24 29 -37 l29 -23 -30 -39 c-19 -24 -52
-48 -86 -63 -65 -29 -80 -30 -89 -6 -9 21 -28 42 -41 42 -6 0 -18 21 -28 48
-10 26 -24 51 -31 55 -17 11 -17 36 2 43 8 3 17 14 20 25 3 10 27 39 53 64 40
38 53 45 88 45 26 0 49 7 64 20 33 29 177 29 211 1z m-876 -260 c210 -58 347
-192 419 -411 14 -41 28 -97 31 -125 3 -27 13 -85 22 -128 15 -72 15 -86 0
-175 -9 -53 -19 -118 -23 -145 -3 -26 -10 -50 -15 -53 -5 -3 -9 -13 -9 -22 0
-9 -15 -46 -32 -82 -38 -74 -37 -73 -78 -120 -40 -46 -90 -132 -90 -156 0 -11
13 -40 29 -65 24 -37 43 -52 106 -83 42 -21 98 -41 123 -45 26 -5 61 -16 77
-25 17 -9 39 -16 49 -16 23 0 56 -28 56 -47 0 -7 -1 -13 -2 -13 -2 -1 -39 -7
-83 -15 -95 -17 -233 -19 -370 -5 -96 10 -332 60 -385 82 -47 19 -125 62 -169
92 -62 44 -189 165 -197 188 -8 26 21 56 62 64 18 3 38 12 45 20 6 8 17 14 23
14 6 0 28 9 49 20 20 11 42 20 48 20 7 0 55 21 107 48 140 70 207 152 258 317
26 82 27 318 2 385 -9 25 -19 56 -22 70 -13 59 -135 216 -200 258 -73 46 -120
69 -159 75 -30 5 -77 37 -77 52 0 8 59 40 85 46 55 15 235 3 320 -20z m-2825
-396 c6 -8 9 -23 5 -35 -5 -16 -1 -26 14 -36 16 -11 18 -20 12 -37 -6 -15 -4
-37 5 -62 13 -38 19 -95 10 -95 -2 0 -11 -3 -19 -6 -20 -7 -42 57 -28 84 15
28 -1 47 -28 31 -11 -8 -21 -19 -21 -26 0 -7 -4 -13 -10 -13 -17 0 -11 -25 10
-40 11 -8 20 -22 20 -30 0 -21 20 -40 42 -40 11 0 18 -7 18 -20 0 -11 6 -19
12 -17 8 1 17 -24 26 -73 7 -41 20 -96 28 -121 8 -26 14 -74 14 -108 0 -40 6
-75 19 -99 10 -21 20 -68 23 -107 3 -39 12 -85 21 -102 11 -21 17 -56 17 -101
0 -42 6 -81 15 -98 10 -19 15 -58 15 -111 0 -45 5 -85 10 -88 6 -3 10 -27 10
-52 0 -25 7 -72 15 -105 9 -33 17 -87 18 -121 0 -40 6 -66 15 -73 17 -12 18
-144 2 -174 -5 -10 -10 -34 -9 -52 0 -18 3 -26 6 -18 4 8 12 21 20 28 7 7 13
21 13 29 0 9 3 13 7 9 4 -4 10 -40 14 -81 4 -41 14 -84 23 -97 11 -15 16 -44
16 -88 0 -51 4 -69 18 -81 25 -21 30 -161 7 -195 -13 -21 -12 -28 20 -89 26
-49 35 -79 35 -115 0 -32 5 -52 16 -61 13 -11 15 -27 11 -82 -4 -57 -2 -70 12
-75 25 -9 31 -23 31 -79 0 -42 4 -54 20 -63 16 -9 20 -21 20 -68 0 -32 6 -66
13 -77 7 -11 19 -63 26 -115 7 -52 20 -108 28 -124 11 -21 14 -48 10 -95 -3
-48 -2 -59 5 -41 8 22 10 23 19 8 5 -9 11 -34 12 -55 2 -32 -1 -38 -19 -41
-26 -4 -76 65 -76 103 0 17 -10 34 -29 47 -15 12 -35 38 -43 59 -9 21 -27 46
-41 55 -15 10 -25 26 -25 40 0 14 -10 30 -25 40 -14 9 -25 23 -25 30 0 8 -5
14 -10 14 -6 0 -15 10 -21 23 -24 52 -41 77 -60 87 -10 6 -19 17 -19 25 0 8
-6 18 -13 22 -33 21 -57 77 -87 201 -6 23 -14 50 -19 60 -4 9 -15 37 -23 62
-9 25 -21 59 -28 76 -17 40 -6 84 20 84 11 0 20 -6 20 -14 0 -7 9 -16 20 -19
11 -3 20 0 20 6 0 7 3 21 6 33 4 15 -1 23 -21 32 -23 11 -25 16 -19 48 6 30 4
36 -15 41 -25 6 -27 36 -6 73 19 33 18 40 -2 40 -33 1 -56 27 -50 56 6 34 -1
54 -19 54 -23 0 -16 27 9 35 12 3 17 9 10 11 -18 8 15 95 38 101 10 3 21 14
24 24 4 10 11 19 16 19 6 0 15 13 20 29 6 15 21 33 34 39 27 12 33 28 13 34
-8 3 -9 15 -1 46 6 24 7 44 2 48 -15 9 -29 -6 -29 -29 0 -12 -3 -33 -7 -45 -4
-18 -8 -20 -14 -10 -12 18 -29 -7 -29 -44 0 -25 -4 -28 -35 -28 -34 0 -35 -1
-35 -40 0 -44 -21 -55 -40 -20 -18 34 -30 22 -30 -31 0 -27 4 -48 9 -45 15 9
33 -22 26 -44 -3 -11 -11 -20 -16 -20 -13 0 -11 -28 2 -32 6 -2 12 -21 14 -43
3 -22 9 -54 14 -71 5 -17 6 -44 4 -59 -5 -23 -3 -26 13 -21 16 5 22 -2 33 -39
13 -44 10 -76 -8 -104 -13 -20 -41 -5 -41 22 0 13 -7 39 -17 57 -9 18 -22 63
-30 99 -21 101 -29 131 -53 194 -19 49 -20 63 -10 87 13 31 4 63 -11 39 -14
-24 -33 7 -32 50 2 31 -2 40 -18 44 -14 4 -19 14 -19 39 0 18 -9 47 -20 63
-11 17 -20 46 -20 65 0 20 -6 44 -14 55 -7 11 -15 43 -18 71 -3 29 -15 70 -26
93 -26 49 -27 66 -8 103 16 31 12 38 -21 38 -20 0 -23 5 -23 39 0 24 -8 48
-21 65 -17 21 -20 35 -15 69 3 23 6 58 6 77 -1 29 3 36 20 37 16 1 26 -8 37
-35 17 -40 29 -52 56 -52 12 0 17 8 17 28 0 16 8 32 20 40 11 7 17 18 14 27
-5 11 1 15 21 15 28 0 28 0 22 -55 -3 -30 -4 -55 -1 -55 8 0 44 40 44 50 0 6
17 10 39 10 31 0 40 4 46 23 4 12 8 25 10 30 1 4 3 12 4 18 1 14 53 2 63 -14
4 -7 8 7 8 31 0 35 -3 42 -19 42 -11 0 -23 -9 -26 -20 -3 -11 -15 -20 -25 -20
-10 0 -20 -5 -22 -12 -3 -7 -14 -9 -32 -4 -24 6 -27 11 -22 31 5 21 3 25 -18
25 -13 0 -27 8 -31 18 -6 16 -7 16 -16 0 -12 -22 -39 -23 -39 -2 0 9 -7 14
-17 12 -24 -5 -27 -25 -3 -31 23 -6 28 -47 5 -47 -10 0 -17 -14 -21 -40 -5
-29 -11 -40 -24 -40 -10 0 -21 7 -24 16 -8 21 -8 79 1 71 9 -9 33 12 33 29 0
8 -7 14 -15 14 -20 0 -19 30 1 44 8 7 18 32 20 56 3 25 9 54 14 65 40 95 38
115 -10 115 l-40 0 1 -87 c2 -78 -1 -88 -20 -104 -17 -14 -22 -27 -20 -61 2
-42 -30 -116 -44 -102 -3 3 -9 -11 -12 -32 -10 -57 -14 -66 -28 -62 -7 3 -13
26 -15 54 -2 26 -8 54 -14 62 -6 7 -13 28 -14 45 -11 115 -18 153 -29 162 -7
6 -16 34 -19 63 -3 29 -12 63 -21 75 -11 15 -15 47 -15 109 0 51 -6 103 -14
125 -23 60 -28 141 -11 174 8 15 15 42 15 60 0 25 12 44 64 95 65 66 157 125
164 105 7 -20 19 -12 18 12 -1 18 5 23 33 25 19 2 40 10 46 18 5 8 26 16 45
17 19 2 44 8 55 15 26 15 30 15 45 -3z m1250 -106 c22 -10 71 -16 134 -18 77
-2 108 -7 139 -22 30 -16 50 -19 81 -15 29 5 47 2 61 -8 11 -9 32 -16 47 -16
45 0 85 -70 60 -106 -15 -23 -42 -22 -77 2 -44 29 -156 49 -167 29 -4 -7 -18
-10 -30 -8 -17 3 -27 -3 -41 -26 -10 -18 -14 -32 -8 -32 6 -1 17 -2 23 -3 7 0
14 -10 16 -21 8 -39 35 -58 45 -31 8 21 -4 56 -19 56 -12 0 -12 4 -2 20 11 17
24 20 76 20 55 0 66 -3 87 -26 17 -18 30 -24 44 -19 18 5 21 2 21 -19 0 -14
-4 -26 -9 -26 -5 0 -14 -12 -19 -27 -5 -16 -28 -47 -49 -69 -29 -31 -49 -43
-78 -46 -38 -5 -142 7 -175 19 -8 3 -23 8 -32 9 -9 2 -41 15 -72 29 -30 14
-58 25 -63 25 -4 0 -25 16 -45 35 -20 19 -40 35 -45 35 -8 0 -21 12 -77 69
-12 13 -18 34 -18 61 1 32 -3 40 -15 38 -12 -2 -19 8 -25 36 -5 22 -13 45 -19
52 -7 9 -6 15 5 21 23 13 207 -1 246 -18z m2706 -60 c3 -6 1 -16 -5 -22 -6 -6
-11 -18 -11 -26 0 -21 -40 -61 -61 -61 -9 0 -19 -9 -22 -20 -3 -11 -20 -28
-37 -37 -18 -10 -46 -30 -62 -45 -16 -16 -36 -28 -44 -28 -9 0 -22 -7 -31 -15
-38 -39 -146 50 -111 92 7 9 7 17 -2 28 -10 12 -15 13 -20 4 -12 -19 -27 -2
-33 36 -10 59 -3 65 70 65 35 0 74 6 86 12 12 7 67 15 122 19 55 3 112 6 127
7 15 1 30 -3 34 -9z m-4791 -506 c-30 -74 -31 -644 -1 -758 9 -33 16 -78 16
-100 0 -23 5 -46 11 -52 6 -6 16 -37 23 -69 14 -59 22 -85 58 -179 55 -140
161 -296 250 -365 29 -23 61 -47 70 -55 9 -7 26 -19 38 -25 27 -15 23 -51 -8
-66 -13 -6 -29 -17 -35 -23 -6 -6 -23 -11 -37 -11 -14 0 -43 -10 -65 -21 -35
-19 -56 -21 -190 -22 -143 0 -152 1 -200 26 -27 14 -69 45 -92 69 -56 58 -123
187 -123 237 0 21 -7 58 -15 81 -17 49 -20 277 -4 350 5 25 13 88 18 140 5 52
16 109 25 125 9 17 16 50 16 75 0 25 7 58 15 74 8 15 15 35 15 44 0 30 56 256
71 284 5 9 12 35 15 58 4 22 10 43 15 46 5 3 13 22 18 42 12 43 66 112 88 112
10 0 13 -5 8 -17z m4919 -782 c23 -10 80 -37 128 -60 48 -23 90 -41 94 -41 17
0 249 -185 320 -255 165 -164 323 -380 390 -537 9 -21 20 -38 25 -38 5 0 9
-10 9 -22 0 -13 9 -36 20 -53 11 -16 20 -44 20 -60 0 -17 10 -58 21 -90 17
-49 20 -75 16 -140 -3 -44 -12 -97 -21 -117 -9 -21 -16 -50 -16 -65 0 -43 -67
-182 -122 -251 -45 -56 -39 -49 -109 -109 -87 -74 -271 -160 -394 -185 -27 -5
-62 -16 -77 -24 -15 -8 -45 -14 -68 -14 -23 0 -55 -7 -72 -16 -17 -9 -70 -20
-117 -23 -47 -4 -96 -13 -108 -19 -12 -7 -51 -12 -87 -12 -36 0 -138 -6 -228
-14 -272 -24 -483 -36 -683 -37 -104 -1 -219 -5 -255 -10 -36 -5 -146 -13
-245 -17 -111 -6 -190 -14 -204 -22 -14 -7 -62 -15 -108 -18 -103 -6 -105 2
-25 79 59 58 133 103 287 178 50 23 121 58 159 77 37 19 77 34 88 34 11 0 32
7 46 15 39 21 156 65 173 65 9 0 24 7 35 15 10 8 26 15 34 15 8 0 32 9 53 20
20 11 48 20 61 20 13 0 29 6 35 14 6 7 30 16 53 20 23 4 53 13 67 20 14 8 73
29 131 47 58 18 110 36 115 40 6 4 27 10 47 14 21 4 42 13 49 21 6 8 24 14 40
14 16 0 46 9 66 20 21 11 46 20 55 20 10 0 26 4 36 9 9 5 71 26 137 46 66 20
144 50 172 66 29 16 59 29 66 29 8 0 22 9 32 20 10 11 25 20 32 20 36 0 185
142 209 198 33 80 36 124 15 209 -19 76 -71 196 -91 208 -6 4 -10 17 -10 30 0
13 -4 26 -8 29 -10 6 -102 161 -103 173 0 5 -16 28 -34 53 -19 25 -60 83 -91
130 -32 47 -85 119 -120 162 -68 84 -84 116 -63 129 23 15 80 10 123 -10z
m-2766 -234 c7 -5 12 -32 12 -64 0 -46 -3 -56 -20 -60 -22 -6 -22 -6 -20 -83
1 -31 -5 -68 -14 -85 -8 -16 -17 -74 -20 -127 -4 -54 -9 -104 -12 -113 -4 -9
4 -26 20 -42 24 -24 26 -32 26 -112 0 -56 -4 -92 -12 -100 -11 -11 -9 -13 8
-9 27 7 44 -20 44 -67 0 -22 8 -43 20 -55 11 -11 20 -30 20 -42 0 -12 7 -29
16 -39 19 -21 11 -54 -11 -45 -9 3 -15 0 -15 -9 0 -18 -34 -37 -54 -29 -22 9
-38 -39 -35 -106 1 -30 -1 -66 -5 -80 -7 -27 10 -88 21 -76 4 4 8 47 9 96 3
97 19 145 47 145 10 0 21 5 25 12 4 6 19 14 33 18 22 5 30 1 48 -24 13 -17 29
-31 37 -31 19 0 54 -36 54 -55 0 -9 -9 -15 -24 -15 -18 0 -25 6 -28 23 -4 26
-21 30 -26 5 -2 -11 15 -36 42 -63 39 -38 46 -51 46 -85 l0 -40 40 0 40 0 0
50 0 51 -34 -6 c-36 -7 -60 10 -35 25 10 7 10 12 1 23 -26 31 -4 45 77 48 57
3 82 9 95 22 10 9 25 17 35 17 10 0 26 9 36 20 20 22 51 26 58 8 3 -7 6 -3 6
9 1 12 13 35 29 51 15 16 49 54 75 85 27 32 52 57 57 57 5 0 22 12 37 26 15
14 35 32 44 40 9 8 23 14 32 14 10 0 17 7 17 15 0 9 11 20 24 25 14 5 30 18
36 30 16 31 90 74 103 61 13 -13 47 -15 47 -2 0 6 -4 13 -10 16 -19 12 -10 35
20 50 16 8 40 26 54 40 14 14 28 25 32 25 4 0 16 8 26 17 16 14 23 15 39 5 25
-16 42 -6 36 19 -6 20 26 45 43 34 5 -3 44 21 87 53 99 74 145 102 170 102 12
0 26 7 33 15 7 8 19 15 27 15 7 0 31 9 53 20 48 25 48 25 52 -1 4 -28 44 -44
52 -22 4 9 -1 17 -14 20 -32 9 -24 20 38 49 31 16 61 34 65 41 4 7 21 13 37
13 16 0 33 7 38 15 4 9 30 20 58 25 96 17 159 37 214 69 19 11 83 31 86 28 2
-1 0 -25 -4 -52 -6 -40 -13 -53 -39 -71 -23 -15 -29 -24 -21 -32 8 -8 3 -22
-18 -49 -50 -66 -132 -143 -151 -143 -11 0 -20 -7 -20 -15 0 -8 4 -15 9 -15
14 0 9 -20 -14 -50 -27 -37 -38 -38 -38 -5 0 17 6 25 18 26 19 1 11 4 -30 13
-39 9 -35 32 7 47 36 13 47 29 20 29 -8 0 -15 7 -15 15 0 11 7 14 23 10 38 -8
61 18 54 62 -4 21 -3 32 2 25 10 -17 26 1 36 41 7 26 5 27 -29 27 -33 0 -36
-2 -36 -30 0 -21 -5 -30 -16 -30 -23 0 -55 20 -49 31 4 5 -1 9 -10 9 -28 0
-55 -20 -55 -40 0 -18 -3 -19 -21 -8 -17 11 -22 10 -30 -4 -6 -10 -19 -18 -29
-18 -24 0 -25 -6 -6 -26 22 -22 39 -17 75 20 25 26 41 34 67 33 19 -1 34 -2
34 -3 0 -14 -15 -34 -25 -34 -20 0 -29 -20 -16 -33 6 -6 11 -15 11 -19 0 -12
-38 -10 -45 2 -12 19 -45 11 -45 -10 0 -13 -7 -20 -19 -20 -32 0 -35 -19 -7
-47 33 -32 33 -53 2 -53 -15 0 -26 -7 -28 -17 -2 -10 -10 6 -17 35 -7 29 -19
52 -26 52 -7 0 -15 7 -19 15 -3 8 -14 15 -25 15 -30 0 -51 11 -51 27 0 10 -10
13 -37 11 -26 -2 -38 -8 -38 -18 0 -10 12 -16 38 -18 20 -2 37 -9 37 -15 0 -7
18 -25 40 -40 23 -16 40 -37 40 -47 0 -11 9 -24 20 -30 26 -14 27 -50 1 -50
-10 0 -21 9 -24 20 -3 14 -14 20 -31 20 -24 0 -31 10 -27 34 3 15 -52 66 -70
66 -10 0 -21 5 -24 11 -4 5 -18 15 -33 20 -33 13 -51 -3 -28 -26 18 -19 20
-31 6 -40 -16 -10 -50 5 -50 21 0 22 -44 14 -48 -8 -2 -13 3 -18 18 -18 29 0
80 -37 80 -58 0 -12 3 -13 11 -5 16 16 39 5 51 -26 6 -16 12 -21 15 -13 9 23
-7 61 -27 67 -31 10 -25 37 7 33 19 -2 29 -10 33 -28 3 -14 12 -25 20 -26 35
-2 40 -5 40 -23 0 -24 25 -45 42 -35 7 5 5 -4 -5 -19 -18 -27 -18 -28 10 -57
20 -22 30 -26 40 -18 11 8 9 17 -8 45 -23 37 -21 48 8 39 30 -10 38 -7 38 16
0 16 8 24 33 30 21 6 36 18 42 33 10 27 40 34 40 10 0 -8 9 -19 21 -25 16 -9
18 -14 8 -26 -6 -8 -17 -14 -23 -14 -6 -1 -29 -24 -51 -52 -22 -28 -48 -59
-57 -69 -10 -11 -18 -23 -18 -28 0 -10 -24 -21 -45 -21 -7 0 -15 9 -18 20 -6
22 -37 28 -37 8 0 -19 13 -34 34 -42 18 -6 18 -8 3 -23 -13 -13 -21 -14 -39
-6 -13 6 -36 14 -51 18 -15 3 -25 10 -22 14 8 14 -6 41 -21 41 -8 0 -17 7 -20
15 -4 8 -12 15 -20 15 -8 0 -14 7 -14 15 0 10 -10 15 -30 15 -17 0 -33 6 -36
14 -3 7 -25 22 -49 31 -38 16 -44 23 -50 59 -5 36 -8 39 -19 24 -6 -9 -19 -16
-27 -16 -34 2 -47 -3 -52 -22 -3 -12 -14 -20 -26 -20 -12 0 -21 -6 -21 -14 0
-8 -2 -21 -5 -29 -5 -10 1 -13 25 -9 21 3 30 10 30 23 0 10 12 24 28 31 25 13
29 12 55 -15 32 -35 34 -47 7 -47 -11 0 -20 -6 -20 -13 0 -15 -46 -58 -58 -54
-4 1 -8 -8 -10 -20 -4 -27 15 -30 44 -8 10 8 29 15 42 15 18 0 22 6 22 31 0
31 0 31 43 24 42 -7 57 -18 57 -42 0 -7 12 -15 28 -19 65 -14 69 -24 16 -43
-38 -14 -70 -61 -46 -69 17 -5 15 -31 -3 -38 -8 -4 -15 -10 -15 -15 0 -12 37
-12 45 0 3 5 19 12 36 16 38 9 33 29 -9 33 -40 4 -41 20 -3 33 16 6 31 19 34
30 7 25 33 24 47 -1 8 -14 21 -20 47 -20 l36 0 -40 -43 c-22 -24 -48 -56 -58
-71 -14 -21 -24 -26 -42 -21 -13 3 -23 1 -23 -5 0 -5 5 -10 11 -10 7 0 -14
-24 -45 -54 -31 -30 -56 -59 -56 -64 0 -5 -12 -17 -26 -27 -14 -9 -42 -32 -62
-51 -20 -19 -43 -34 -52 -34 -8 0 -31 -22 -50 -49 -19 -26 -65 -72 -102 -101
-37 -29 -77 -63 -89 -76 -13 -13 -28 -24 -36 -24 -7 0 -30 -17 -51 -38 -20
-21 -57 -46 -82 -57 -25 -10 -56 -26 -70 -36 -14 -9 -35 -20 -47 -23 -13 -4
-23 -11 -23 -16 0 -4 -8 -6 -18 -4 -10 3 -29 -7 -46 -25 -25 -26 -37 -31 -78
-31 -35 0 -48 -4 -48 -14 0 -21 -21 -25 -160 -26 -234 -2 -304 4 -336 29 -18
14 -36 20 -50 17 -14 -4 -28 2 -44 19 -12 13 -35 27 -50 30 -94 21 -166 137
-139 226 6 19 14 63 19 99 7 52 14 69 34 85 l26 21 -18 34 c-13 23 -16 43 -11
60 4 14 8 124 8 245 1 179 -2 234 -16 293 -15 60 -21 72 -35 68 -10 -2 -18 0
-18 5 0 16 -79 59 -111 59 -17 0 -38 7 -47 16 -12 13 -27 15 -73 10 -54 -6
-60 -5 -91 23 l-33 30 20 38 c11 21 39 56 64 78 24 22 61 57 82 78 21 20 42
37 47 37 6 0 12 3 14 8 2 4 28 20 58 36 74 40 210 53 248 23z m-3900 -2524
c54 -83 201 -275 228 -298 6 -5 37 -44 68 -85 146 -193 414 -518 635 -769 75
-85 150 -170 167 -189 17 -20 35 -32 41 -29 6 4 16 27 22 51 6 25 15 48 21 51
5 3 10 24 10 46 0 22 8 54 17 72 9 18 20 52 24 77 4 25 14 77 23 115 9 39 20
88 25 110 11 52 27 119 41 175 6 25 15 70 19 100 5 31 16 70 25 87 9 18 16 52
16 77 0 25 9 68 20 96 11 28 20 69 20 91 0 22 7 56 15 76 8 19 15 58 15 85 0
82 7 88 105 87 50 -1 88 -6 94 -12 10 -13 -6 -86 -27 -124 -6 -12 -12 -34 -12
-50 0 -16 -9 -45 -20 -66 -11 -20 -20 -50 -20 -66 0 -16 -6 -42 -14 -58 -14
-29 -27 -72 -51 -177 -8 -32 -18 -70 -23 -85 -6 -14 -15 -53 -21 -86 -7 -33
-17 -73 -23 -90 -5 -16 -14 -48 -18 -70 -4 -22 -15 -57 -24 -77 -9 -21 -16
-52 -16 -70 0 -19 -7 -43 -15 -55 -8 -11 -17 -42 -20 -69 -4 -26 -13 -57 -21
-68 -8 -11 -14 -32 -14 -46 0 -24 -37 -201 -65 -310 -8 -30 -17 -73 -20 -95
-7 -43 -41 -115 -54 -115 -18 0 -89 79 -191 214 -5 6 -26 31 -47 56 -22 25
-68 81 -103 125 -36 44 -70 85 -76 90 -6 6 -33 39 -60 75 -27 35 -61 78 -76
95 -15 16 -50 59 -78 95 -28 36 -71 88 -95 115 -23 28 -67 79 -96 114 -30 35
-88 103 -129 151 -41 48 -99 116 -128 151 -71 85 -123 139 -133 139 -4 0 -11
-17 -14 -37 -4 -21 -11 -51 -15 -68 -5 -16 -16 -59 -25 -95 -31 -122 -42 -165
-54 -210 -7 -25 -16 -68 -20 -95 -3 -28 -14 -61 -24 -75 -10 -14 -17 -43 -17
-68 0 -24 -5 -53 -12 -65 -6 -12 -17 -49 -24 -82 -7 -33 -18 -80 -23 -105 -28
-117 -53 -250 -58 -300 -2 -30 -11 -69 -19 -87 -8 -17 -14 -39 -14 -48 0 -9
-5 -25 -10 -36 -9 -16 -22 -19 -93 -19 -45 0 -87 4 -94 8 -13 8 -4 46 41 187
14 44 31 98 37 120 6 22 17 58 24 80 8 22 16 59 20 82 4 23 13 47 21 54 8 6
14 29 14 54 0 25 6 48 15 55 7 6 17 33 21 58 4 26 11 56 17 67 6 11 14 38 18
60 4 22 22 94 39 160 17 66 35 140 40 165 4 25 15 59 24 75 9 17 16 46 16 65
0 19 9 53 20 75 11 22 20 56 20 75 0 19 7 46 15 60 8 14 14 40 15 57 0 18 6
50 14 70 8 21 17 57 19 81 10 87 57 98 105 25z m6911 -28 c56 -61 54 -107 -8
-161 -60 -52 -159 -49 -220 6 -30 28 -36 46 -31 100 6 66 57 100 151 100 66 0
67 0 108 -45z m-2644 -195 c4 -12 -3 -49 -14 -83 -12 -34 -30 -98 -40 -142
-26 -111 -26 -111 127 -95 66 7 128 10 137 6 12 -4 15 -17 13 -53 l-3 -48
-159 4 c-172 4 -176 3 -176 -52 0 -15 -9 -44 -20 -64 -11 -21 -20 -56 -20 -78
0 -22 -7 -49 -15 -59 -8 -11 -15 -29 -15 -40 0 -18 -32 -163 -75 -336 -7 -30
-21 -95 -29 -143 -16 -88 -16 -89 8 -140 17 -37 37 -61 67 -81 39 -26 55 -30
136 -34 80 -4 98 -1 133 17 45 23 70 19 70 -13 0 -56 -145 -101 -320 -101
-219 0 -352 108 -337 272 4 34 13 76 22 92 8 17 15 42 15 57 0 14 7 47 15 73
19 60 54 202 66 267 5 28 16 67 24 87 8 20 15 48 15 62 0 14 6 38 14 53 8 15
15 56 17 92 l4 65 -85 5 c-47 3 -85 9 -85 15 1 25 28 85 39 85 7 0 38 -5 69
-11 35 -6 63 -7 73 -1 20 11 54 113 54 161 0 19 9 54 20 77 18 36 28 45 78 62
133 47 168 51 177 22z m-1325 -280 c22 -11 53 -20 69 -20 26 0 58 -12 111 -42
8 -4 26 -14 40 -20 63 -31 190 -164 190 -200 0 -7 9 -31 21 -52 18 -34 20 -52
16 -169 -3 -125 -17 -197 -48 -247 -5 -8 -15 -29 -23 -47 -27 -60 -88 -148
-139 -201 -105 -108 -294 -209 -452 -241 -95 -19 -281 -25 -360 -12 -38 7 -90
15 -115 18 -25 3 -56 14 -69 24 -13 11 -32 19 -41 19 -10 0 -23 7 -30 15 -7 8
-18 15 -25 15 -6 0 -21 8 -33 18 -11 9 -36 29 -56 45 -45 35 -105 137 -122
207 -18 74 -18 246 1 312 22 81 45 141 61 159 8 8 14 18 14 22 0 9 44 73 85
122 34 40 132 124 180 152 18 11 57 30 95 46 8 4 22 11 30 16 39 22 94 41 123
41 18 0 46 9 62 20 27 18 47 20 203 20 153 0 177 -2 212 -20z m2660 0 c22 -11
48 -20 59 -20 18 0 53 -19 118 -65 12 -8 35 -35 52 -60 29 -43 31 -52 31 -140
0 -51 -5 -106 -12 -122 -6 -15 -17 -50 -23 -78 -7 -27 -25 -95 -40 -150 -15
-55 -34 -127 -42 -160 -8 -33 -19 -64 -24 -70 -5 -5 -9 -55 -9 -112 0 -132 8
-143 108 -143 40 0 73 -5 80 -12 18 -18 15 -48 -5 -55 -10 -3 -38 -15 -62 -25
-36 -16 -61 -19 -145 -16 -118 4 -136 13 -192 96 l-35 52 -43 -35 c-24 -19
-48 -35 -53 -35 -6 0 -22 -11 -37 -25 -15 -14 -35 -25 -45 -25 -9 0 -22 -5
-27 -10 -21 -21 -169 -50 -254 -50 -231 1 -390 114 -390 280 0 30 5 73 11 95
15 53 124 165 192 198 47 23 77 35 197 77 19 7 64 16 100 20 36 5 79 15 95 24
17 9 55 16 87 16 31 0 69 5 84 10 14 6 58 15 96 20 78 11 107 29 137 81 29 51
30 177 2 223 -57 92 -201 138 -363 116 -100 -14 -155 -38 -244 -106 -39 -30
-79 -54 -89 -54 -15 0 -16 7 -10 53 5 40 14 59 38 83 35 34 195 104 240 104
15 0 44 9 64 20 33 17 57 20 176 20 118 0 143 -3 177 -20z m2417 12 c8 -5 8
-32 1 -102 -12 -117 -18 -124 -106 -115 -74 8 -177 -2 -195 -19 -7 -6 -30 -20
-51 -31 -21 -10 -57 -40 -80 -66 -41 -45 -96 -139 -96 -163 0 -6 -9 -28 -20
-49 -11 -20 -20 -51 -20 -67 0 -17 -6 -43 -14 -58 -7 -15 -17 -43 -20 -62 -4
-19 -13 -57 -21 -85 -26 -89 -65 -269 -66 -300 0 -16 -10 -50 -22 -75 l-22
-45 -105 0 -105 0 1 40 c1 22 9 63 19 90 9 28 21 64 27 80 15 48 59 216 67
260 4 22 13 50 19 62 7 12 12 37 12 55 0 19 9 51 20 73 11 22 20 56 20 77 0
20 9 60 20 88 11 28 20 67 20 86 0 19 5 45 12 57 11 21 15 41 34 172 4 28 12
53 18 57 6 4 57 8 114 8 82 0 104 -3 108 -15 4 -8 2 -21 -4 -28 -9 -12 -39
-113 -49 -169 -8 -44 13 -34 96 45 87 85 202 167 231 167 11 0 37 9 57 20 39
20 79 25 100 12z m1128 -12 c22 -11 54 -19 72 -20 43 0 159 -62 210 -112 54
-53 88 -125 103 -219 11 -65 11 -86 -6 -169 l-19 -95 -524 -1 c-506 0 -524 -1
-538 -20 -12 -15 -14 -45 -10 -150 l4 -130 38 -55 c53 -76 78 -101 127 -126
111 -55 124 -58 289 -58 118 0 160 3 173 14 9 7 37 17 62 22 25 5 74 22 109
39 34 16 68 30 73 30 19 0 24 -20 12 -55 -12 -36 -69 -77 -126 -91 -16 -4 -35
-11 -41 -16 -14 -11 -82 -22 -251 -40 -89 -9 -133 -9 -200 0 -137 19 -185 29
-217 46 -16 9 -33 16 -37 16 -16 0 -100 64 -146 111 -27 28 -62 76 -77 107
-15 31 -32 68 -39 81 -14 31 -13 315 2 333 5 7 14 31 18 53 9 49 38 106 112
218 33 49 124 137 165 159 17 9 61 31 97 48 36 17 77 37 92 45 14 8 41 15 60
15 18 0 51 9 73 19 59 28 282 29 340 1z m-2339 -31 c3 -6 0 -27 -9 -47 -16
-41 -38 -112 -56 -182 -7 -25 -19 -65 -27 -90 -9 -25 -19 -63 -24 -85 -4 -22
-15 -57 -24 -77 -9 -21 -16 -50 -16 -65 -1 -15 -7 -39 -15 -53 -8 -14 -14 -39
-15 -57 0 -18 -6 -47 -14 -65 -8 -18 -20 -64 -26 -103 -7 -38 -21 -103 -31
-144 -11 -41 -19 -89 -19 -108 0 -18 -4 -41 -10 -51 -5 -9 -14 -29 -20 -44
l-10 -28 -119 0 c-131 0 -141 5 -115 55 8 15 14 37 14 49 0 11 9 36 20 54 11
18 20 42 20 53 0 12 6 35 14 52 18 40 97 349 104 402 2 22 10 49 17 60 7 11
16 46 19 79 4 32 13 68 21 79 8 12 15 41 15 65 0 24 7 56 14 70 8 15 18 57 21
95 4 39 13 74 22 82 18 18 237 22 249 4z m-1526 -2129 c19 -6 65 -14 101 -19
132 -17 192 -90 136 -165 -43 -55 -78 -84 -159 -126 l-77 -40 -190 0 c-116 0
-201 4 -218 11 -15 6 -83 15 -150 20 -67 4 -131 13 -142 19 -11 6 -62 14 -113
19 -51 5 -100 12 -108 15 -8 3 -79 15 -156 26 -78 11 -154 24 -169 30 -14 5
-40 10 -56 10 -33 0 -119 35 -119 49 0 13 47 31 98 36 26 3 63 10 82 15 19 6
53 10 76 10 22 0 63 7 90 15 27 8 76 15 109 15 34 0 85 6 115 14 30 8 116 18
190 22 74 4 167 13 205 20 86 15 407 18 455 4z"/>
<path d="M5774 9015 c-19 -29 -12 -44 10 -26 11 10 19 9 36 -1 28 -17 24 -62
-7 -66 -13 -2 -24 -13 -28 -29 -3 -14 -12 -32 -20 -39 -17 -17 -82 -18 -88 -1
-2 6 -2 1 0 -13 5 -30 0 -26 46 -34 33 -6 37 -5 37 14 0 14 7 20 23 20 30 1
52 20 61 53 7 30 30 36 40 11 11 -30 6 -61 -14 -79 -24 -22 -12 -52 25 -61 30
-7 33 -30 6 -39 -11 -3 -23 -15 -26 -26 -9 -27 -61 -26 -68 1 -5 21 -32 26
-56 11 -10 -7 -8 -10 10 -16 13 -4 31 -16 40 -27 20 -26 63 -26 97 -1 15 11
35 22 45 26 27 10 22 63 -8 89 -33 28 -33 58 -1 58 16 0 27 -7 31 -20 3 -11
13 -20 21 -20 18 0 18 29 0 36 -16 6 -25 32 -32 89 -7 50 -19 63 -33 36 -16
-29 -30 -26 -42 9 -6 16 -15 28 -19 25 -14 -9 -38 6 -43 26 -7 26 -23 24 -43
-6z"/>
<path d="M2534 8625 c-3 -14 -10 -25 -15 -25 -5 0 -8 -18 -6 -40 2 -35 5 -40
22 -36 26 7 55 -21 55 -54 0 -31 -25 -59 -33 -38 -3 8 -6 6 -6 -6 -1 -15 -4
-16 -16 -6 -13 10 -15 9 -15 -10 0 -16 4 -20 15 -16 10 4 15 -1 16 -17 0 -12
3 -16 6 -9 4 10 8 10 19 1 25 -21 47 -2 42 36 -3 24 0 35 9 35 7 0 13 6 13 13
0 8 11 24 25 37 20 19 27 21 40 10 12 -10 15 -10 15 4 0 9 -7 16 -15 16 -8 0
-15 7 -15 15 0 18 -16 20 -23 2 -3 -7 -24 -13 -48 -14 l-44 -2 1 42 c2 70 -29
115 -42 62z"/>
<path d="M4780 8525 c-10 -12 -9 -20 4 -40 9 -14 23 -25 31 -25 8 0 15 -6 15
-14 0 -8 16 -23 35 -35 34 -20 51 -59 20 -48 -25 10 -26 -10 0 -27 39 -26 48
-21 40 22 -4 20 -11 39 -16 40 -12 5 -12 42 1 42 6 0 10 -9 10 -19 0 -10 7
-21 15 -25 8 -3 15 -12 15 -21 0 -9 9 -15 25 -15 19 0 25 -5 25 -22 0 -13 4
-29 9 -37 12 -19 41 -6 41 19 0 12 -4 19 -9 15 -14 -8 -25 15 -23 46 2 22 -4
29 -28 38 -21 7 -30 16 -28 28 2 15 -4 18 -37 18 -93 1 -105 4 -105 24 0 11
-5 23 -11 27 -8 4 -7 9 2 15 11 7 11 9 -2 9 -9 0 -22 -7 -29 -15z"/>
<path d="M3035 7721 c-3 -5 -21 -7 -41 -4 -33 5 -35 4 -29 -18 4 -18 -1 -33
-19 -54 -14 -17 -26 -35 -26 -42 0 -22 12 -43 25 -43 21 0 39 -30 52 -84 14
-64 -3 -236 -24 -236 -7 0 -13 -11 -13 -24 0 -13 -7 -26 -15 -30 -8 -3 -15
-10 -15 -15 0 -5 7 -16 15 -25 8 -8 15 -26 15 -40 0 -22 4 -26 30 -26 28 0 30
2 30 40 0 22 5 40 10 40 6 0 10 11 10 24 0 13 7 26 15 30 19 7 20 26 1 26 -9
0 -15 20 -20 61 -10 96 -9 99 19 99 19 0 25 -5 25 -21 0 -51 51 -82 65 -39 9
30 -4 60 -26 60 -20 0 -26 15 -9 25 6 3 10 21 10 40 0 25 -5 35 -21 40 -11 4
-25 18 -31 31 -11 24 -28 33 -28 14 0 -16 -39 13 -46 33 -6 19 13 77 25 77 4
0 13 -6 20 -12 11 -10 14 -10 18 0 3 6 16 12 29 12 31 0 30 10 -4 43 -30 29
-38 32 -47 18z"/>
<path d="M2880 7532 c0 -10 -39 -32 -61 -35 -8 -2 -28 -13 -43 -25 -16 -12
-36 -22 -45 -23 -9 -1 -5 -4 8 -8 13 -3 30 -16 38 -27 12 -18 11 -24 -7 -47
-11 -14 -20 -32 -20 -40 0 -20 22 -35 28 -19 2 7 16 13 30 13 17 1 21 3 10 6
-39 10 -15 23 42 23 66 0 80 -14 25 -24 -24 -5 -33 -11 -28 -21 7 -19 23 -19
23 -1 0 7 14 16 31 20 45 9 51 8 43 -6 -5 -10 -4 -10 6 -1 16 14 5 33 -21 33
-12 0 -19 7 -19 20 0 13 7 20 20 20 29 0 45 37 29 66 -21 39 -44 31 -45 -16
-1 -23 -3 -42 -5 -44 -2 -2 -30 -6 -61 -10 -53 -6 -58 -4 -58 13 0 12 11 23
29 29 16 6 32 20 36 31 3 12 15 21 25 21 20 0 32 23 24 45 -6 16 -34 21 -34 7z"/>
<path d="M3111 7130 c-1 -27 6 -40 31 -62 l32 -27 -22 -22 c-20 -18 -23 -29
-20 -77 3 -50 6 -57 25 -60 19 -3 23 3 28 42 4 26 5 55 2 66 -4 15 -1 20 10
18 34 -6 37 27 7 90 -32 67 -57 80 -70 35 l-7 -28 -7 30 -8 30 -1 -35z"/>
<path d="M3194 6466 c-4 -17 -13 -26 -25 -26 -15 0 -19 -7 -19 -40 0 -29 -4
-40 -15 -40 -9 0 -15 -9 -15 -23 0 -19 -8 -26 -40 -36 -29 -9 -40 -17 -40 -32
0 -18 4 -19 38 -13 20 4 40 12 44 17 4 7 19 4 42 -8 38 -21 46 -39 21 -49 -17
-6 -19 -15 -6 -35 7 -11 13 -9 30 8 25 25 30 91 6 91 -19 0 -21 78 -3 127 17
47 42 43 58 -9 8 -24 21 -51 29 -61 9 -10 19 -46 23 -80 15 -124 18 -134 43
-134 20 0 24 5 27 44 2 26 -2 49 -8 54 -7 5 -15 42 -19 82 -8 89 -24 137 -45
137 -9 0 -21 -12 -27 -27 -11 -27 -11 -27 -12 14 -1 43 0 42 -63 59 -12 4 -19
-2 -24 -20z"/>
<path d="M3531 5271 c-16 -28 -14 -138 2 -144 9 -3 9 -7 0 -18 -7 -8 -10 -25
-6 -37 4 -17 13 -22 39 -22 41 0 44 -17 9 -48 -26 -23 -29 -32 -19 -69 4 -16
13 -21 34 -21 25 1 27 3 18 23 -7 15 -6 34 1 60 10 38 2 71 -23 87 -6 4 -12
31 -13 60 -3 74 -14 137 -24 143 -4 3 -13 -3 -18 -14z"/>
<path d="M4265 7648 c4 -13 18 -32 31 -43 14 -11 39 -32 56 -47 36 -32 44 -34
52 -13 4 12 14 14 39 10 29 -6 35 -4 40 14 7 29 34 37 57 16 19 -17 19 -18
-13 -46 -17 -16 -41 -29 -52 -29 -11 0 -26 -4 -34 -9 -22 -14 3 -39 45 -47 46
-9 64 -32 39 -50 -10 -8 -30 -14 -43 -14 -19 0 -22 -3 -13 -13 11 -14 90 -21
122 -11 26 7 21 54 -7 66 -13 6 -24 15 -24 19 0 4 -10 9 -22 11 -27 4 -39 48
-14 48 17 0 86 65 86 80 0 5 10 18 22 30 l22 20 -28 0 c-15 0 -36 -5 -47 -10
-13 -8 -19 -7 -19 0 0 7 -14 10 -32 8 -23 -2 -36 -11 -45 -28 -12 -24 -13 -24
-13 -3 0 28 -10 53 -21 53 -5 0 -9 -15 -9 -32 0 -50 -11 -60 -48 -47 -24 8
-32 17 -32 35 0 20 -5 24 -31 24 -16 0 -28 4 -25 9 3 5 -1 12 -10 15 -28 11
-35 6 -29 -16z"/>
<path d="M5870 5361 c0 -5 11 -18 25 -29 14 -11 25 -30 25 -42 0 -22 0 -22
-31 4 -37 31 -54 33 -77 5 -9 -11 -33 -27 -52 -35 -26 -11 -31 -17 -21 -24 11
-6 4 -10 -22 -15 -41 -8 -49 -29 -14 -39 34 -9 57 -7 57 5 0 6 11 20 25 31 14
11 25 26 25 34 0 20 69 19 76 -1 10 -25 33 -17 74 25 22 23 40 43 40 45 0 3
-18 5 -40 5 -33 0 -40 3 -40 20 0 15 -7 20 -25 20 -14 0 -25 -4 -25 -9z"/>
<path d="M5201 5168 c-5 -13 -31 -45 -57 -71 -37 -36 -46 -50 -35 -56 11 -7
11 -9 0 -14 -8 -3 -1 -4 15 -4 16 1 31 -4 33 -10 3 -7 -2 -13 -11 -13 -10 0
-13 -6 -10 -15 4 -9 0 -15 -10 -15 -17 0 -39 -33 -29 -44 14 -14 44 -5 59 19
9 14 22 25 28 25 7 0 25 14 39 30 15 17 31 30 35 30 5 0 15 11 22 25 7 14 20
25 29 25 20 1 51 24 51 38 0 15 -28 23 -56 16 -16 -4 -24 -13 -24 -27 0 -16
-3 -18 -12 -9 -8 8 -15 3 -27 -21 -11 -22 -24 -33 -43 -35 -28 -3 -40 19 -18
33 6 4 10 16 8 28 -2 18 3 23 30 25 20 2 32 9 32 18 0 8 5 14 10 14 6 0 10 7
10 15 0 26 -59 19 -69 -7z"/>
<path d="M5680 5080 l0 -40 -79 0 c-77 0 -79 0 -84 -27 -7 -38 1 -57 19 -42 8
6 25 9 39 7 17 -4 25 -1 25 8 0 8 3 14 8 14 12 -1 42 -27 42 -37 0 -5 6 -15
13 -21 6 -7 12 -18 12 -24 0 -19 22 -20 29 -1 4 11 1 22 -8 29 -17 12 -21 34
-7 34 5 0 16 -7 25 -15 8 -8 22 -15 30 -15 25 0 19 29 -9 42 -20 9 -25 18 -25
50 0 38 0 38 40 38 22 0 40 3 40 6 0 16 -38 33 -72 34 -38 0 -38 0 -38 -40z"/>
<path d="M5299 4990 c-13 -16 -36 -32 -51 -36 -16 -3 -28 -12 -28 -20 0 -8 -6
-14 -12 -13 -31 4 -36 -4 -43 -76 -6 -67 -5 -76 14 -96 12 -13 21 -31 21 -41
0 -15 3 -17 19 -8 11 5 29 10 40 10 20 0 51 24 51 40 0 5 -8 11 -17 13 -10 3
3 3 28 0 40 -5 47 -2 61 19 9 14 39 40 67 57 31 20 51 40 51 51 0 10 6 21 13
23 10 4 10 6 0 6 -7 1 -13 8 -13 16 0 8 -7 15 -15 15 -21 0 -19 -28 3 -33 9
-3 3 -5 -15 -6 -17 0 -35 -5 -38 -11 -11 -18 -64 -11 -75 10 -6 11 -22 23 -35
26 -14 3 -25 10 -25 15 0 16 32 23 52 10 17 -10 18 -9 12 16 -13 54 -30 58
-65 13z"/>
<path d="M4532 4959 c-15 -26 -29 -39 -38 -35 -19 7 -18 -1 6 -31 23 -30 28
-124 8 -140 -7 -5 -37 -10 -67 -12 -45 -2 -53 0 -48 13 7 18 -1 20 -22 7 -12
-8 -13 -14 -3 -36 7 -14 17 -23 22 -20 6 3 10 1 10 -4 0 -6 9 -11 19 -11 21 0
35 -13 24 -23 -3 -4 -14 -2 -24 4 -25 13 -26 -11 -3 -46 18 -28 39 -32 48 -10
10 28 40 16 64 -25 25 -44 56 -53 65 -20 3 12 14 20 26 20 14 0 21 6 21 20 0
14 7 20 23 20 24 -1 81 -29 59 -30 -32 -1 3 -19 46 -25 26 -3 62 -7 80 -10 23
-3 32 0 32 11 0 8 9 14 20 14 11 0 20 -6 20 -14 0 -8 8 -17 17 -20 12 -5 29 6
58 38 40 42 43 44 83 36 37 -6 42 -5 42 11 0 11 5 19 10 19 11 0 13 56 3 113
-3 23 -9 34 -13 26 -5 -8 -10 -4 -15 11 -16 52 -65 80 -65 38 0 -34 23 -88 37
-88 8 0 13 -14 13 -40 l0 -40 -65 0 c-37 0 -65 -4 -65 -10 0 -5 7 -10 15 -10
20 0 19 -7 -3 -35 -17 -21 -20 -21 -45 -9 -14 8 -53 16 -86 19 -66 4 -101 18
-101 40 0 25 -71 6 -98 -27 -14 -16 -34 -28 -48 -28 -24 0 -100 59 -76 60 17
0 42 25 42 41 0 6 -8 18 -17 25 -17 13 -17 13 0 14 9 0 17 6 17 14 0 7 9 16
20 19 46 12 42 127 -4 127 -12 0 -16 4 -11 8 17 12 36 52 30 62 -13 22 -41 8
-63 -31z"/>
<path d="M5510 4860 c-1 -3 -3 -16 -6 -29 -5 -26 -44 -80 -59 -80 -5 -1 -23
-17 -38 -36 -30 -37 -57 -44 -77 -20 -18 21 -33 19 -27 -5 6 -25 -47 -60 -93
-60 -23 0 -33 -5 -37 -20 -3 -12 -14 -20 -28 -20 -18 0 -22 -6 -23 -31 -1 -27
2 -30 26 -27 18 2 27 9 27 21 0 22 22 37 58 37 16 0 27 5 27 13 0 17 42 37 75
37 16 0 25 6 25 15 0 18 5 18 31 5 15 -9 21 -7 25 5 3 8 10 15 15 15 15 0 99
90 99 107 0 9 7 25 17 35 15 17 15 18 -5 18 -11 0 -23 6 -25 13 -3 6 -6 10 -7
7z"/>
<path d="M3230 3011 c-110 -9 -209 -57 -307 -148 -46 -43 -153 -198 -153 -223
0 -8 -9 -28 -20 -45 -11 -16 -20 -42 -20 -56 0 -14 -7 -40 -16 -58 -12 -24
-16 -66 -17 -169 -2 -126 0 -141 22 -187 35 -72 84 -129 137 -159 65 -36 226
-62 295 -47 27 6 67 11 88 11 23 0 48 8 64 20 14 11 32 20 39 20 18 0 109 67
167 123 67 64 171 239 171 287 0 11 9 39 21 61 17 35 20 60 21 182 l1 142 -32
57 c-87 153 -221 208 -461 189z"/>
<path d="M6061 2485 c-18 -8 -55 -15 -81 -15 -26 0 -76 -9 -110 -20 -34 -11
-72 -20 -85 -20 -31 0 -153 -43 -200 -71 -58 -34 -111 -86 -135 -131 -29 -56
-27 -134 4 -177 29 -39 84 -81 105 -81 9 0 29 -7 45 -15 36 -19 107 -19 153 0
19 8 44 15 55 15 32 0 149 66 198 112 53 50 86 112 96 183 3 28 13 62 20 77 8
15 14 39 14 53 0 14 7 39 15 56 9 16 13 34 10 39 -9 15 -65 11 -104 -5z"/>
<path d="M9470 3011 c-74 -10 -174 -58 -236 -114 -42 -38 -134 -156 -134 -173
0 -3 -9 -26 -21 -51 -12 -26 -18 -55 -15 -68 6 -22 10 -23 181 -30 96 -4 274
-6 395 -3 262 5 251 0 258 116 7 118 -15 183 -83 248 -38 36 -68 55 -99 63
-61 15 -178 21 -246 12z"/>
</g>
</svg>
